SplineFontDB: 3.0
FontName: Pelagiad
FullName: Pelagiad
FamilyName: Pelagiad
Weight: Regular
Copyright: Copyright Isak Larborn. Licensed under the SIL Open Font License.
UComments: "2015-2-24: Created with FontForge (http://fontforge.org)"
Version: 20150410
ItalicAngle: 0
UnderlinePosition: -50
UnderlineWidth: 25
Ascent: 849
Descent: 175
InvalidEm: 0
LayerCount: 2
Layer: 0 1 "Back" 1
Layer: 1 1 "Fore" 0
XUID: [1021 550 254111602 2708]
FSType: 0
OS2Version: 0
OS2_WeightWidthSlopeOnly: 0
OS2_UseTypoMetrics: 1
CreationTime: 1424795239
ModificationTime: 1428667354
PfmFamily: 17
TTFWeight: 400
TTFWidth: 5
LineGap: 92
VLineGap: 0
OS2TypoAscent: 849
OS2TypoAOffset: 0
OS2TypoDescent: -175
OS2TypoDOffset: 0
OS2TypoLinegap: 92
OS2WinAscent: 849
OS2WinAOffset: 0
OS2WinDescent: 175
OS2WinDOffset: 0
HheadAscent: 849
HheadAOffset: 0
HheadDescent: -175
HheadDOffset: 0
OS2CapHeight: 0
OS2XHeight: 0
OS2Vendor: 'PfEd'
Lookup: 258 0 0 "'kern' Horizontal Kerning in Latin lookup 0" { "'kern' Horizontal Kerning in Latin lookup 0-1" [153,15,0] "'kern' Horizontal Kerning in Latin lookup 0-2" [153,15,0] "'kern' Horizontal Kerning in Latin lookup 0-3" [153,15,0] "'kern' Horizontal Kerning in Latin lookup 0-4" [153,15,0] "'kern' Horizontal Kerning in Latin lookup 0-5" [153,15,0] "'kern' Horizontal Kerning in Latin lookup 0-6" [153,15,0] } ['kern' ('DFLT' <'dflt' > 'latn' <'dflt' > ) ]
MarkAttachClasses: 1
DEI: 91125
KernClass2: 1+ 2 "'kern' Horizontal Kerning in Latin lookup 0-6"
 94 a h m n u agrave aacute acircumflex atilde adieresis aring ugrave uacute ucircumflex udieresis
 9 m n p v w
 0 {} -13 {}
KernClass2: 1+ 2 "'kern' Horizontal Kerning in Latin lookup 0-5"
 3 A R
 7 m n p r
 0 {} -67 {}
KernClass2: 2 2 "'kern' Horizontal Kerning in Latin lookup 0-4"
 1 T
 27 agrave egrave ograve ugrave
 0 {} 0 {} 0 {} -65 {}
KernClass2: 2 2 "'kern' Horizontal Kerning in Latin lookup 0-3"
 1 T
 55 a g m n p r x aacute acircumflex atilde adieresis aring
 0 {} 0 {} 0 {} -77 {}

StartChar: o
Encoding: 111 111 0
Width: 452
VWidth: -3
Flags: W
HStem: -11 69<221.19 319.092> 324 69<133.948 245.324>
VStem: 30 93<174.285 301.937> 326 94<94.0215 249>
LayerCount: 2
Back
Fore
SplineSet
326 122 m 0,0,1
 326 191 326 191 282.5 257.5 c 128,-1,2
 239 324 239 324 194.5 324 c 128,-1,3
 150 324 150 324 136.5 312 c 128,-1,4
 123 300 123 300 123 262 c 0,5,6
 123 190 123 190 178 124 c 128,-1,7
 233 58 233 58 271 58 c 128,-1,8
 309 58 309 58 317.5 69 c 128,-1,9
 326 80 326 80 326 122 c 0,0,1
378 55 m 128,-1,11
 336 -11 336 -11 250 -11 c 135,-1,12
 164 -11 164 -11 97 51.5 c 128,-1,13
 30 114 30 114 30 188 c 0,14,15
 30 295 30 295 83 344 c 128,-1,16
 136 393 136 393 232 393 c 0,17,18
 302 393 302 393 361 333.5 c 128,-1,19
 420 274 420 274 420 224 c 0,20,10
 420 121 420 121 378 55 c 128,-1,11
EndSplineSet
Validated: 1
EndChar

StartChar: n
Encoding: 110 110 1
Width: 535
VWidth: -3
Flags: W
HStem: -14 21G<110 135 362 362.5> 321 78<247.232 362.5> 331 69<59.3159 84.3354>
VStem: 110 100<30.9569 304.281> 373 89<74.3832 282.524>
LayerCount: 2
Back
Fore
SplineSet
26 344.5 m 128,-1,1
 26 358 26 358 61.5 379 c 128,-1,2
 97 400 97 400 113.5 400 c 128,-1,3
 130 400 130 400 160.5 385.5 c 128,-1,4
 191 371 191 371 205 343 c 1,5,6
 236 373 236 373 264 386 c 128,-1,7
 292 399 292 399 339 399 c 128,-1,8
 386 399 386 399 416 367.5 c 128,-1,9
 446 336 446 336 454 301 c 128,-1,10
 462 266 462 266 462 192 c 128,-1,11
 462 118 462 118 447 73 c 1,12,13
 495 101 495 101 507 101 c 0,14,15
 527 101 527 101 527 69 c 0,16,17
 527 55 527 55 450.5 20.5 c 128,-1,18
 374 -14 374 -14 351 -14 c 1,19,20
 373 70 373 70 373 160.5 c 131,-1,21
 373 251 373 251 348.5 286 c 128,-1,22
 324 321 324 321 270 321 c 0,23,24
 251 321 251 321 210 290 c 1,25,-1
 210 103 l 1,26,27
 208 66 208 66 184 24.5 c 128,-1,28
 160 -17 160 -17 110 -17 c 1,29,-1
 110 153 l 2,30,31
 110 272 110 272 90 301 c 0,32,33
 70 331 70 331 48 331 c 128,-1,0
 26 331 26 331 26 344.5 c 128,-1,1
EndSplineSet
Validated: 8388609
EndChar

StartChar: c
Encoding: 99 99 2
Width: 410
VWidth: -3
Flags: W
HStem: -19 67<194.676 309.425> 310 73<160.558 274.363>
VStem: 30 102<109.219 278.232>
LayerCount: 2
Back
Fore
SplineSet
384 97 m 5,0,1
 354 37 354 37 335 21 c 4,2,3
 287 -19 287 -19 216 -19 c 4,4,5
 131 -19 131 -19 80.5 41.5 c 132,-1,6
 30 102 30 102 30 192.5 c 132,-1,7
 30 283 30 283 83 333 c 132,-1,8
 136 383 136 383 231 383 c 4,9,10
 295 383 295 383 334.5 362.5 c 132,-1,11
 374 342 374 342 374 317 c 4,12,13
 374 290 374 290 345 271 c 4,14,15
 336 265 336 265 316 253 c 5,16,17
 292 274 292 274 280 284 c 4,18,19
 248 310 248 310 198 310 c 7,20,21
 172 310 172 310 152 275 c 4,22,23
 132 239 132 239 132 183 c 7,24,25
 132 128 132 128 172 88 c 4,26,27
 214 48 214 48 273 48 c 4,28,29
 303 48 303 48 322.5 78.5 c 132,-1,30
 342 109 342 109 355 109 c 4,31,32
 374 109 374 109 384 97 c 5,0,1
EndSplineSet
Validated: 1
EndChar

StartChar: E
Encoding: 69 69 3
Width: 641
VWidth: -12
Flags: W
HStem: -26 108<289.973 463.963> 261 104<171 278.946> 285 105<419.207 523 558 572> 566 90<211.872 358.34>
VStem: 44 117<365 460.071> 572 66<167.755 285> 590 37<-69 57.4231>
LayerCount: 2
Back
Fore
SplineSet
418 82 m 0,0,1
 516 82 516 82 573 119 c 1,2,-1
 572 285 l 1,3,4
 189 262 189 262 171 261 c 1,5,6
 178 195 178 195 232 142 c 0,7,8
 292 82 292 82 418 82 c 0,0,1
184 500 m 0,9,10
 165 447 165 447 161 365 c 1,11,-1
 523 387 l 1,12,13
 474 455 474 455 408 510.5 c 128,-1,14
 342 566 342 566 275 566 c 128,-1,15
 208 566 208 566 184 500 c 0,9,10
583 64 m 1,16,17
 531 30 531 30 504 15 c 0,18,19
 430 -26 430 -26 339 -26 c 0,20,21
 239 -26 239 -26 171 24 c 0,22,23
 44 118 44 118 44 329 c 0,24,25
 44 497 44 497 170 605 c 0,26,27
 230 656 230 656 295 656 c 128,-1,28
 360 656 360 656 426.5 628 c 128,-1,29
 493 600 493 600 539 552 c 1,30,31
 544 566 544 566 551.5 598 c 128,-1,32
 559 630 559 630 566.5 642.5 c 128,-1,33
 574 655 574 655 588 655 c 0,34,35
 605 655 605 655 605 629 c 128,-1,36
 605 603 605 603 584.5 516.5 c 128,-1,37
 564 430 564 430 558 390 c 1,38,-1
 638 398 l 1,39,40
 627 262 627 262 627 -69 c 1,41,42
 624 -72 624 -72 620 -76 c 0,43,44
 608 -89 608 -89 590 -91 c 1,45,46
 589 -47 589 -47 583 64 c 1,16,17
EndSplineSet
Validated: 8388609
EndChar

StartChar: I
Encoding: 73 73 4
Width: 411
VWidth: -15
Flags: W
HStem: -9 20G<20 40 349.5 402.5> -2 55<39.5947 141.27 236.483 288.933> 567 51<235.342 290> 572 57<40.626 139.693 345 366.82>
VStem: 142 94<60.668 562.85> 291 54<56 567>
LayerCount: 2
Back
Fore
SplineSet
142 79 m 2,0,-1
 142 542 l 2,1,2
 142 567 142 567 84 572 c 0,3,4
 60 574 60 574 40 586 c 128,-1,5
 20 598 20 598 20 629 c 1,6,7
 75 629 75 629 124 618 c 0,8,9
 164 609 164 609 190.5 609 c 128,-1,10
 217 609 217 609 291 618 c 1,11,12
 294 654 294 654 311 654 c 128,-1,13
 328 654 328 654 338 625 c 1,14,15
 380 629 380 629 401 629 c 1,16,17
 401 581 401 581 345 569 c 1,18,-1
 345 50 l 1,19,20
 383 39 383 39 394 25 c 4,21,22
 402 15 402 15 403 -10 c 1,23,24
 296 5 296 5 233 5 c 128,-1,25
 170 5 170 5 115 -2 c 128,-1,26
 60 -9 60 -9 20 -9 c 1,27,28
 20 23 20 23 39 37 c 128,-1,29
 58 51 58 51 81 53 c 0,30,31
 142 60 142 60 142 79 c 2,0,-1
235 542 m 2,32,-1
 236 79 l 6,33,34
 236 57 236 57 291 56 c 1,35,-1
 290 567 l 1,36,37
 235 565 235 565 235 542 c 2,32,-1
EndSplineSet
Validated: 8388609
EndChar

StartChar: e
Encoding: 101 101 5
Width: 425
VWidth: -3
Flags: W
HStem: -9 71<180.699 315.58> 336 53<165.962 226.924>
VStem: 30 106<221 287.901>
DStem2: 136 221 141 161 0.895274 0.445516<0 69.3265 226.816 274.571>
LayerCount: 2
Back
Fore
SplineSet
389 107 m 1,0,1
 384 89 384 89 356 49 c 0,2,3
 314 -9 314 -9 217 -9 c 0,4,5
 132 -9 132 -9 80 52 c 0,6,7
 30 113 30 113 30 194 c 131,-1,8
 30 275 30 275 84 332 c 0,9,10
 137 389 137 389 216 389 c 0,11,12
 260 389 260 389 307 361 c 0,13,14
 311 358 311 358 347 326 c 1,15,16
 368 338 368 338 385 338 c 0,17,18
 409 338 409 338 409 305 c 0,19,20
 409 289 409 289 341 258 c 0,21,22
 175 181 175 181 141 161 c 1,23,24
 150 106 150 106 180 84 c 128,-1,25
 210 62 210 62 265 62 c 0,26,27
 292 62 292 62 309 71 c 128,-1,28
 326 80 326 80 332 90 c 0,29,30
 347 119 347 119 359 119 c 0,31,32
 366 119 366 119 375.5 113.5 c 128,-1,33
 385 108 385 108 389 107 c 1,0,1
187 336 m 0,34,35
 174 336 174 336 156.5 296.5 c 128,-1,36
 139 257 139 257 136 221 c 1,37,38
 186 242 186 242 200 248 c 0,39,40
 246 266 246 266 255 272 c 1,41,42
 222 336 222 336 187 336 c 0,34,35
EndSplineSet
Validated: 1
EndChar

StartChar: p
Encoding: 112 112 6
Width: 499
VWidth: 8
Flags: W
HStem: -160 56<194.959 315.417> -11 67<219.496 354.048> 313 82<228.859 318.058> 314 61<18.4041 87.5601>
VStem: 89 105<-104 19 81.4092 292.996> 365 108<88.04 253.8>
LayerCount: 2
Back
Fore
SplineSet
194 -104 m 5,0,1
 298 -107 298 -107 316 -120 c 4,2,3
 322 -124 322 -124 322 -129 c 4,4,5
 322 -149 322 -149 253 -160.5 c 132,-1,6
 184 -172 184 -172 116 -174 c 6,7,-1
 39 -175 l 5,8,9
 39 -151 39 -151 50 -140 c 4,10,11
 67 -122 67 -122 89 -114 c 5,12,-1
 89 314 l 5,13,14
 32 322 32 322 14 340 c 4,15,16
 0 354 0 354 0 383 c 13,17,-1
 72 375 l 7,18,19
 114 375 114 375 194 389 c 5,20,-1
 191 329 l 5,21,-1
 230 374 l 6,22,23
 248 395 248 395 290 395 c 4,24,25
 361 394 361 394 417 334 c 4,26,27
 473 271 473 271 473 225 c 4,28,29
 473 119 473 119 434.5 54 c 132,-1,30
 396 -11 396 -11 312 -11 c 4,31,32
 264 -11 264 -11 241 -4 c 132,-1,33
 218 3 218 3 194 19 c 5,34,-1
 194 -104 l 5,0,1
268 313 m 4,35,36
 240 313 240 313 223.5 299.5 c 132,-1,37
 207 286 207 286 191 260 c 5,38,-1
 194 115 l 5,39,40
 210 56 210 56 313 56 c 4,41,42
 345 56 345 56 355 79 c 132,-1,43
 365 102 365 102 365 159 c 132,-1,44
 365 216 365 216 337.5 264.5 c 132,-1,45
 310 313 310 313 268 313 c 4,35,36
EndSplineSet
Validated: 8388609
EndChar

StartChar: q
Encoding: 113 113 7
Width: 495
VWidth: 8
Flags: W
HStem: -6 74<164.595 252.932> 330 64<154.356 248.481>
VStem: 40 83<114.124 292.033> 300 105<-70 39 85.7971 280.175>
LayerCount: 2
Back
Fore
SplineSet
212 330 m 0,0,1
 171 330 171 330 147 299.5 c 128,-1,2
 123 269 123 269 123 206 c 128,-1,3
 123 143 123 143 150.5 105.5 c 128,-1,4
 178 68 178 68 218.5 68 c 128,-1,5
 259 68 259 68 300 101 c 1,6,-1
 300 255 l 1,7,8
 287 272 287 272 256.5 301 c 128,-1,9
 226 330 226 330 212 330 c 0,0,1
300 -175 m 1,10,-1
 300 39 l 1,11,12
 213 -6 213 -6 180 -6 c 0,13,14
 119 -6 119 -6 79.5 50 c 128,-1,15
 40 106 40 106 40 172 c 0,16,17
 40 266 40 266 82.5 330 c 128,-1,18
 125 394 125 394 192.5 394 c 128,-1,19
 260 394 260 394 308 357 c 1,20,21
 326 374 326 374 352.5 390.5 c 128,-1,22
 379 407 379 407 405 407 c 1,23,-1
 405 -70 l 1,24,25
 431 -58 431 -58 495 -58 c 1,26,27
 482 -82 482 -82 426 -121 c 0,28,29
 368 -161 368 -161 300 -175 c 1,10,-1
EndSplineSet
Validated: 1
EndChar

StartChar: a
Encoding: 97 97 8
Width: 459
VWidth: -3
Flags: W
HStem: -9 74<383.938 446.977> 40 11<181 263> 244 46<128.002 158.622> 311 69<128.19 261.891>
VStem: 30 104<54.0059 114.922 279.649 304.991> 275 107<223.083 296.219>
LayerCount: 2
Back
Fore
SplineSet
181 51 m 0,0,1
 246 51 246 51 274 171 c 1,2,3
 228 158 228 158 181 132 c 128,-1,4
 134 106 134 106 134 76 c 0,5,6
 134 51 134 51 181 51 c 0,0,1
123 -13 m 0,7,8
 30 -13 30 -13 30 59 c 0,9,10
 30 145 30 145 152 182 c 0,11,12
 274 221 274 221 275 248 c 0,13,14
 275 311 275 311 195 311 c 0,15,16
 173 311 173 311 152.5 304 c 128,-1,17
 132 297 132 297 128 292 c 0,18,19
 128 291 128 291 136 290 c 0,20,21
 159 287 159 287 159 270 c 0,22,23
 159 244 159 244 97 244 c 0,24,25
 74 244 74 244 52 257 c 128,-1,26
 30 270 30 270 30 295 c 128,-1,27
 30 320 30 320 62 341 c 0,28,29
 122 380 122 380 207 380 c 0,30,31
 256 380 256 380 300 366 c 0,32,33
 382 340 382 340 382 297 c 2,34,-1
 383 90 l 2,35,36
 383 75 383 75 421 65 c 128,-1,37
 459 55 459 55 459 37.5 c 128,-1,38
 459 20 459 20 437.5 5.5 c 128,-1,39
 416 -9 416 -9 393 -9 c 0,40,41
 359 -8 359 -8 289 28 c 0,42,43
 265 40 265 40 263 40 c 3,44,45
 260 40 260 40 246 27 c 0,46,47
 204 -13 204 -13 123 -13 c 0,7,8
EndSplineSet
Validated: 8388609
EndChar

StartChar: b
Encoding: 98 98 9
Width: 498
VWidth: -15
Flags: W
HStem: -36 64<229.17 343.491> 319 73<219.142 311.469>
VStem: 71 102<76.6912 284.393 337 545.097> 368 100<76.2334 248.435>
LayerCount: 2
Back
Fore
SplineSet
0 582 m 0,0,1
 0 593 0 593 30 597 c 0,2,3
 62 601 62 601 102 610 c 0,4,5
 141 619 141 619 173 658 c 1,6,-1
 173 337 l 1,7,8
 234 392 234 392 301 392 c 0,9,10
 385 392 385 392 426.5 322.5 c 128,-1,11
 468 253 468 253 468 144 c 0,12,13
 468 92 468 92 409 28 c 128,-1,14
 350 -36 350 -36 281 -36 c 0,15,16
 184 -36 184 -36 127.5 17.5 c 128,-1,17
 71 71 71 71 71 174 c 2,18,-1
 71 534 l 1,19,20
 0 568 0 568 0 582 c 0,0,1
302 28 m 128,-1,22
 368 28 368 28 368 165 c 0,23,24
 368 216 368 216 335 267.5 c 128,-1,25
 302 319 302 319 263 319 c 0,26,27
 205 319 205 319 173 249 c 1,28,-1
 173 99 l 1,29,21
 236 28 236 28 302 28 c 128,-1,22
EndSplineSet
Validated: 1
EndChar

StartChar: d
Encoding: 100 100 10
Width: 471
VWidth: -13
Flags: W
HStem: -28 76<181.756 263.966> 310 59<164.638 273.45> 602 20G<357 388.5>
VStem: 30 101<104.119 272.309> 302 97<83.1932 287.234 347 550.434>
LayerCount: 2
Back
Fore
SplineSet
165 88 m 128,-1,1
 199 48 199 48 225 48 c 128,-1,2
 251 48 251 48 265 63.5 c 128,-1,3
 279 79 279 79 302 122 c 1,4,-1
 302 252 l 1,5,6
 283 288 283 288 268 299 c 128,-1,7
 253 310 253 310 213 310 c 128,-1,8
 173 310 173 310 152 270.5 c 128,-1,9
 131 231 131 231 131 179.5 c 128,-1,0
 131 128 131 128 165 88 c 128,-1,1
204 -28 m 0,10,11
 132 -28 132 -28 81 32.5 c 128,-1,12
 30 93 30 93 30 167 c 0,13,14
 30 262 30 262 70.5 315.5 c 128,-1,15
 111 369 111 369 186 369 c 128,-1,16
 261 369 261 369 302 347 c 1,17,-1
 302 541 l 1,18,19
 246 563 246 563 246 581 c 0,20,21
 246 595 246 595 296 608.5 c 128,-1,22
 346 622 346 622 368 622 c 0,23,24
 409 622 409 622 409 594 c 0,25,26
 409 581 409 581 404 568.5 c 128,-1,27
 399 556 399 556 399 551 c 2,28,-1
 399 77 l 1,29,30
 419 87 419 87 442 87 c 0,31,32
 471 87 471 87 471 47 c 5,33,-1
 325 -24 l 1,34,-1
 306 26 l 1,35,36
 243 -28 243 -28 204 -28 c 0,10,11
EndSplineSet
Validated: 1
EndChar

StartChar: f
Encoding: 102 102 12
Width: 303
VWidth: -13
Flags: W
HStem: 292 75<175.315 241.169> 569 68<209.629 275.214>
VStem: 73 102<22.8726 290.514 367.226 504.429>
LayerCount: 2
Back
Fore
SplineSet
337 470 m 1,0,1
 336 471 336 471 324 488 c 0,2,3
 312 504 312 504 300 520 c 0,4,5
 264 565 264 565 234 569 c 0,6,7
 217 569 217 569 196 523 c 128,-1,8
 175 477 175 477 175 448 c 2,9,-1
 175 370 l 1,10,11
 183 367 183 367 207 366.5 c 128,-1,12
 231 366 231 366 241.5 357.5 c 128,-1,13
 252 349 252 349 252 326.5 c 128,-1,14
 252 304 252 304 239.5 298.5 c 128,-1,15
 227 293 227 293 206 291.5 c 128,-1,16
 185 290 185 290 175 283 c 1,17,-1
 175 68 l 2,18,19
 174 50 174 50 152 22 c 0,20,21
 131 -4 131 -4 73 -56 c 1,22,-1
 73 284 l 1,23,24
 60 293 60 293 50 294 c 0,25,26
 30 297 30 297 29 319 c 0,27,28
 29 347 29 347 73 371 c 1,29,30
 73 498 73 498 132 567.5 c 128,-1,31
 191 637 191 637 274 637 c 0,32,33
 323 637 323 637 358.5 614.5 c 128,-1,34
 394 592 394 592 394 570 c 0,35,36
 394 545 394 545 337 470 c 1,0,1
EndSplineSet
Validated: 1
EndChar

StartChar: m
Encoding: 109 109 13
Width: 759
VWidth: -3
Flags: W
HStem: -18 19G<117 143.5 346 373.5 566.5 568> 323 77<245.203 364.141> 335 65<59.7617 86.0898 485.613 602.811>
VStem: 117 95<9.21582 302.096> 346 97<9.21582 287.69> 577 109<68.4152 317.431>
LayerCount: 2
Back
Fore
SplineSet
29 346.5 m 128,-1,1
 29 360 29 360 64 380 c 128,-1,2
 99 400 99 400 115.5 400 c 128,-1,3
 132 400 132 400 161.5 386.5 c 128,-1,4
 191 373 191 373 205 345 c 1,5,6
 234 374 234 374 262 387 c 128,-1,7
 290 400 290 400 328 400 c 0,8,9
 414 400 414 400 437 343 c 1,10,11
 499 400 499 400 577 400 c 0,12,13
 648 400 648 400 669 331 c 0,14,15
 686 275 686 275 686 193.5 c 128,-1,16
 686 112 686 112 671 67 c 1,17,18
 719 95 719 95 731 95 c 0,19,20
 751 95 751 95 751 63 c 0,21,22
 751 48 751 48 665.5 14 c 128,-1,23
 580 -20 580 -20 556 -20 c 5,24,25
 577 72 577 72 577 128 c 0,26,27
 576 197 576 197 574 254 c 0,28,29
 572 300 572 300 558 318 c 0,30,31
 546 335 546 335 518.5 335 c 128,-1,32
 491 335 491 335 479 329 c 128,-1,33
 467 323 467 323 443 304 c 1,34,-1
 443 108 l 2,35,36
 443 40 443 40 422 11 c 128,-1,37
 401 -18 401 -18 346 -18 c 1,38,-1
 346 151 l 2,39,40
 346 200 346 200 337.5 243 c 128,-1,41
 329 286 329 286 315 300 c 0,42,43
 292 323 292 323 269 323 c 0,44,45
 248 322 248 322 230 306 c 0,46,47
 220 298 220 298 212 292 c 1,48,-1
 212 104 l 2,49,50
 212 40 212 40 191 11 c 128,-1,51
 170 -18 170 -18 117 -18 c 1,52,-1
 117 153 l 2,53,54
 117 202 117 202 110.5 245.5 c 128,-1,55
 104 289 104 289 94 303 c 0,56,57
 73 333 73 333 51 333 c 128,-1,0
 29 333 29 333 29 346.5 c 128,-1,1
EndSplineSet
Validated: 8388609
EndChar

StartChar: l
Encoding: 108 108 14
Width: 248
VWidth: -14
Flags: W
VStem: 66 93<56 561.368>
LayerCount: 2
Back
Fore
SplineSet
232 64 m 0,0,1
 232 47 232 47 167.5 9 c 128,-1,2
 103 -29 103 -29 66 -29 c 1,3,-1
 66 521 l 2,4,5
 66 538 66 538 45 560 c 0,6,7
 25 582 25 582 25 596.5 c 131,-1,8
 25 611 25 611 74.5 626 c 128,-1,9
 124 641 124 641 159 644 c 1,10,-1
 159 56 l 1,11,12
 180 60 180 60 214 94 c 1,13,14
 232 67 232 67 232 64 c 0,0,1
EndSplineSet
Validated: 1
EndChar

StartChar: g
Encoding: 103 103 15
Width: 458
VWidth: 8
Flags: W
HStem: -174 53<132.881 340.82> -22 70<145.076 337.711> 102 47<159.875 250.17> 296 74<341 402.825> 346 55<130.29 217.845>
VStem: 35 84<-103.581 -61.6465 192.487 334.551> 57 87<34.25 80.8732> 260 92<158.597 294.985> 350 88<-108.054 -37.2458>
LayerCount: 2
Back
Fore
SplineSet
144 63 m 3,0,1
 144 48 144 48 230 48 c 2,2,-1
 332 48 l 2,3,4
 379 48 379 48 408.5 9.5 c 128,-1,5
 438 -29 438 -29 438 -58 c 0,6,7
 438 -108 438 -108 380 -141 c 128,-1,8
 322 -174 322 -174 234 -174 c 0,9,10
 35 -174 35 -174 35 -99 c 0,11,12
 35 -69 35 -69 113 -19 c 1,13,14
 91 -13 91 -13 74 5 c 128,-1,15
 57 23 57 23 57 45.5 c 128,-1,16
 57 68 57 68 126 122 c 1,17,18
 37 174 37 174 37 280 c 0,19,20
 37 330 37 330 80 365.5 c 128,-1,21
 123 401 123 401 179 401 c 128,-1,22
 235 401 235 401 281 370 c 1,23,-1
 425 370 l 1,24,25
 425 333 425 333 398 296 c 1,26,-1
 341 296 l 1,27,28
 352 258 352 258 352 226 c 0,29,30
 352 175 352 175 311.5 138.5 c 128,-1,31
 271 102 271 102 207.5 102 c 128,-1,32
 144 102 144 102 144 63 c 3,0,1
208 149 m 0,33,34
 260 149 260 149 260 215 c 131,-1,35
 260 281 260 281 228.5 313.5 c 128,-1,36
 197 346 197 346 167.5 346 c 128,-1,37
 138 346 138 346 131 329 c 128,-1,38
 124 312 124 312 124 260 c 128,-1,39
 124 208 124 208 152 178.5 c 128,-1,40
 180 149 180 149 208 149 c 0,33,34
350 -74 m 0,41,42
 350 -22 350 -22 246 -22 c 0,43,44
 119 -22 119 -22 119 -74 c 0,45,46
 119 -121 119 -121 256 -121 c 0,47,48
 350 -121 350 -121 350 -74 c 0,41,42
EndSplineSet
Validated: 8388609
EndChar

StartChar: i
Encoding: 105 105 16
Width: 238
VWidth: -10
Flags: W
HStem: -18 21G<54.9353 73.5>
VStem: 55 93<66 321.091>
LayerCount: 2
Back
Fore
SplineSet
88 425 m 7
 62 425 62 425 62 456 c 4
 62 472 62 472 87 513 c 4
 112 554 112 554 132 554 c 4
 152 554 152 554 168 544 c 4
 185 534 185 534 185 510 c 7
 185 488 185 488 150 456 c 4
 116 425 116 425 88 425 c 7
EndSplineSet
Refer: 104 305 N 1 0 0 1 0 0 2
Validated: 1
EndChar

StartChar: h
Encoding: 104 104 17
Width: 498
VWidth: -14
Flags: W
HStem: 318 78<194.255 320.5>
VStem: 60 97<4.69751 305.309 344 556.465> 324 89<62.2169 273.821>
LayerCount: 2
Back
Fore
SplineSet
301 -26 m 1,0,1
 324 48 324 48 324 146 c 128,-1,2
 324 244 324 244 297 281 c 128,-1,3
 270 318 270 318 216 318 c 0,4,5
 194 318 194 318 175 302 c 0,6,7
 165 294 165 294 157 287 c 1,8,-1
 157 20 l 2,9,10
 157 -10 157 -10 60 -31 c 1,11,-1
 60 515 l 2,12,13
 60 530 60 530 52 541.5 c 128,-1,14
 44 553 44 553 35 558 c 0,15,16
 10 572 10 572 10 589 c 131,-1,17
 10 606 10 606 67 622 c 128,-1,18
 124 638 124 638 157 640 c 1,19,-1
 157 344 l 1,20,21
 185 371 185 371 212.5 383.5 c 128,-1,22
 240 396 240 396 286 396 c 0,23,24
 355 396 355 396 384 337.5 c 128,-1,25
 413 279 413 279 413 170 c 0,26,27
 413 103 413 103 399 61 c 1,28,29
 447 89 447 89 458 89 c 0,30,31
 478 89 478 89 478 56 c 0,32,33
 478 42 478 42 401.5 8 c 128,-1,34
 325 -26 325 -26 301 -26 c 1,0,1
EndSplineSet
Validated: 1
EndChar

StartChar: r
Encoding: 114 114 18
Width: 391
VWidth: -3
Flags: W
HStem: -17 21G<74 88.5> 300 87<238.428 299.252> 355 20G<161.5 179.333>
VStem: 74 99<13.1725 272.216>
LayerCount: 2
Back
Fore
SplineSet
173 261 m 1,0,-1
 173 46 l 2,1,2
 173 26 173 26 138 4.5 c 128,-1,3
 103 -17 103 -17 74 -17 c 1,4,-1
 74 280 l 2,5,6
 74 298 74 298 65.5 308.5 c 128,-1,7
 57 319 57 319 47 322.5 c 128,-1,8
 37 326 37 326 28.5 333.5 c 128,-1,9
 20 341 20 341 20 355 c 128,-1,10
 20 369 20 369 80.5 375 c 128,-1,11
 141 381 141 381 182 381 c 1,12,-1
 176 336 l 1,13,14
 195 345 195 345 220 360 c 0,15,16
 275 393 275 393 282 393 c 0,17,18
 298 393 298 393 334.5 380 c 128,-1,19
 371 367 371 367 371 352 c 128,-1,20
 371 337 371 337 354 305.5 c 128,-1,21
 337 274 337 274 323.5 274 c 128,-1,22
 310 274 310 274 291.5 290 c 128,-1,23
 273 306 273 306 260.5 306 c 131,-1,24
 248 306 248 306 219.5 292 c 128,-1,25
 191 278 191 278 173 261 c 1,0,-1
EndSplineSet
Validated: 8388609
EndChar

StartChar: s
Encoding: 115 115 19
Width: 366
VWidth: -4
Flags: W
HStem: -12 63<145.309 237.984> 173 85<145.855 234.906> 340 45<143.681 285>
VStem: 39 97<244 330.036> 253 87<80.9199 182>
LayerCount: 2
Back
Fore
SplineSet
89 135 m 1,0,1
 92 132 92 132 100 120 c 0,2,3
 151 52 151 52 203 51 c 0,4,5
 224 51 224 51 238.5 68 c 128,-1,6
 253 85 253 85 253 111.5 c 128,-1,7
 253 138 253 138 231 154 c 0,8,9
 210 170 210 170 178 173 c 0,10,11
 86 185 86 185 61 206 c 0,12,13
 39 225 39 225 39 263 c 0,14,15
 39 385 39 385 245 385 c 0,16,17
 325 385 325 385 325 335 c 0,18,19
 325 313 325 313 309.5 297 c 128,-1,20
 294 281 294 281 274 281 c 0,21,22
 237 281 237 281 224 310 c 0,23,24
 211 340 211 340 189.5 340 c 128,-1,25
 168 340 168 340 152 328 c 128,-1,26
 136 316 136 316 136 298 c 0,27,28
 136 268 136 268 208 258 c 0,29,30
 291 248 291 248 319 220 c 0,31,32
 340 200 340 200 340 164 c 0,33,34
 340 88 340 88 280 38 c 128,-1,35
 220 -12 220 -12 153 -12 c 0,36,37
 36 -12 36 -12 36 65 c 0,38,39
 36 116 36 116 89 135 c 1,0,1
EndSplineSet
Validated: 1
EndChar

StartChar: t
Encoding: 116 116 20
Width: 369
VWidth: -6
Flags: W
HStem: -22 80<181.037 281.25> 304 70<170 322.045>
VStem: 72 98<70.3047 304>
LayerCount: 2
Back
Fore
SplineSet
170 304 m 1,0,-1
 170 114 l 2,1,2
 170 58 170 58 249 58 c 0,3,4
 272 58 272 58 291 65.5 c 128,-1,5
 310 73 310 73 318 73 c 0,6,7
 351 73 351 73 351 51 c 0,8,9
 351 35 351 35 294.5 6.5 c 128,-1,10
 238 -22 238 -22 197.5 -22 c 128,-1,11
 157 -22 157 -22 114.5 7 c 128,-1,12
 72 36 72 36 72 68 c 2,13,-1
 72 295 l 1,14,15
 71 296 71 296 60 303 c 0,16,17
 28 323 28 323 28 336.5 c 128,-1,18
 28 350 28 350 86 393 c 128,-1,19
 144 436 144 436 157 436 c 128,-1,20
 170 436 170 436 170 374 c 1,21,22
 236 377 236 377 308 377 c 0,23,24
 326 377 326 377 326 353 c 0,25,26
 326 316 326 316 307 311 c 1,27,-1
 170 304 l 1,0,-1
EndSplineSet
Validated: 1
EndChar

StartChar: j
Encoding: 106 106 21
Width: 274
VWidth: 1
Flags: W
HStem: -176 53<43.222 106.004>
VStem: -20 42<-100.417 -73.9285> 118 96<-114.803 321.833>
LayerCount: 2
Back
Fore
SplineSet
137 425 m 3,0,1
 111 425 111 425 111 456 c 0,2,3
 111 472 111 472 136 513 c 128,-1,4
 161 554 161 554 181 554 c 128,-1,5
 201 554 201 554 217 544 c 0,6,7
 234 534 234 534 234 510 c 3,8,9
 234 488 234 488 199 456 c 0,10,11
 165 425 165 425 137 425 c 3,0,1
22 -61 m 1,12,13
 22 -68 22 -68 33 -86 c 0,14,15
 56 -123 56 -123 74 -123 c 3,16,17
 118 -123 118 -123 118 -30 c 2,18,-1
 117 286 l 2,19,20
 117 303 117 303 97 324.5 c 128,-1,21
 77 346 77 346 77 357 c 0,22,23
 78 373 78 373 127.5 387 c 128,-1,24
 177 401 177 401 213 404 c 1,25,-1
 214 -42 l 2,26,27
 214 -113 214 -113 179 -144.5 c 128,-1,28
 144 -176 144 -176 97 -176 c 128,-1,29
 50 -176 50 -176 15 -160.5 c 128,-1,30
 -20 -145 -20 -145 -20 -113 c 0,31,32
 -20 -98 -20 -98 -11 -86 c 0,33,34
 -1 -72 -1 -72 22 -61 c 1,12,13
EndSplineSet
Validated: 1
EndChar

StartChar: k
Encoding: 107 107 22
Width: 508
VWidth: -14
Flags: W
HStem: -26 70<354 435.355>
VStem: 57 94<-12.6875 169.897 236 568.344>
LayerCount: 2
Back
Fore
SplineSet
151 22 m 2,0,1
 151 5 151 5 122 -8 c 128,-1,2
 93 -21 93 -21 57 -21 c 1,3,-1
 57 550 l 2,4,5
 57 554 57 554 36 568 c 128,-1,6
 15 582 15 582 15 595 c 0,7,8
 16 612 16 612 68 627 c 0,9,10
 118 642 118 642 151 644 c 1,11,-1
 151 244 l 1,12,13
 377 391 377 391 424 392 c 0,14,15
 438 392 438 392 447 381 c 128,-1,16
 456 370 456 370 459 344 c 1,17,-1
 279 229 l 1,18,19
 313 199 313 199 343 154 c 0,20,21
 410 52 410 52 417 52 c 0,22,23
 427 52 427 52 433 68.5 c 128,-1,24
 439 85 439 85 456 85 c 0,25,26
 478 85 478 85 478 48 c 0,27,28
 478 24 478 24 438.5 3 c 128,-1,29
 399 -18 399 -18 369 -18 c 128,-1,30
 339 -18 339 -18 313 13.5 c 128,-1,31
 287 45 287 45 269 83.5 c 128,-1,32
 251 122 251 122 228 153.5 c 128,-1,33
 205 185 205 185 185 185 c 0,34,35
 169 185 169 185 151 130 c 1,36,-1
 151 22 l 2,0,1
EndSplineSet
Validated: 1
EndChar

StartChar: P
Encoding: 80 80 23
Width: 641
VWidth: -14
Flags: W
HStem: -19 56<35.1906 150.516 288.814 525.327> -6 50<280.715 508.121> 3 50<278 453.025> 148 56<345.26 489.305> 560 44<26.0547 116.069> 571 6<223 362>
VStem: 141 137<258.093 536.099> 158 120<53 180 252.743 494.527> 531 102<310.229 490.39>
LayerCount: 2
Back
Fore
SplineSet
362 571 m 0,0,1
 322 571 322 571 278 527 c 1,2,-1
 278 270 l 1,3,4
 357 204 357 204 439 204 c 0,5,6
 531 204 531 204 531 409 c 0,7,8
 531 477 531 477 481.5 524 c 128,-1,9
 432 571 432 571 362 571 c 0,0,1
35 -12.5 m 128,-1,11
 29 -6 29 -6 29 4.5 c 128,-1,12
 29 15 29 15 36.5 26 c 128,-1,13
 44 37 44 37 58 37 c 0,14,15
 136 37 136 37 151 55 c 1,16,17
 158 78 158 78 158 206 c 0,18,19
 158 396 158 396 141 518 c 0,20,21
 140 528 140 528 104.5 544 c 128,-1,22
 69 560 69 560 40 560 c 0,23,24
 26 560 26 560 26 580 c 0,25,26
 26 604 26 604 45 604 c 0,27,28
 94 604 94 604 134 590.5 c 128,-1,29
 174 577 174 577 223 577 c 3,30,31
 253 577 253 577 287 614 c 0,32,33
 322 652 322 652 391 652 c 0,34,35
 490 652 490 652 561.5 578.5 c 128,-1,36
 633 505 633 505 633 404 c 0,37,38
 633 352 633 352 602 292 c 128,-1,39
 571 232 571 232 520 190 c 0,40,41
 470 148 470 148 424 148 c 0,42,43
 347 148 347 148 301 170 c 0,44,45
 281 180 281 180 278 180 c 1,46,-1
 278 53 l 1,47,48
 365 52 365 52 436.5 44 c 128,-1,49
 508 36 508 36 514 35 c 128,-1,50
 520 34 520 34 525.5 26.5 c 128,-1,51
 531 19 531 19 531 10 c 128,-1,52
 531 1 531 1 525.5 -7.5 c 128,-1,53
 520 -16 520 -16 508.5 -16 c 128,-1,54
 497 -16 497 -16 406 -6.5 c 128,-1,55
 315 3 315 3 234 3 c 128,-1,56
 153 3 153 3 115.5 -8 c 128,-1,57
 78 -19 78 -19 59.5 -19 c 128,-1,10
 41 -19 41 -19 35 -12.5 c 128,-1,11
EndSplineSet
Validated: 8388609
EndChar

StartChar: period
Encoding: 46 46 24
Width: 256
VWidth: 9
Flags: W
HStem: -20 149<84.0214 159.641>
VStem: 44 164<23.1106 87.168>
LayerCount: 2
Back
Fore
SplineSet
175.5 12.5 m 132,-1,1
 143 -20 143 -20 126.5 -20 c 132,-1,2
 110 -20 110 -20 77 7.5 c 132,-1,3
 44 35 44 35 44 52.5 c 132,-1,4
 44 70 44 70 73 99.5 c 132,-1,5
 102 129 102 129 116 129 c 132,-1,6
 130 129 130 129 169 100.5 c 132,-1,7
 208 72 208 72 208 58.5 c 132,-1,0
 208 45 208 45 175.5 12.5 c 132,-1,1
EndSplineSet
Validated: 1
EndChar

StartChar: comma
Encoding: 44 44 25
Width: 261
VWidth: 13
Flags: W
HStem: -104 64<90.7587 160.145> -18 21G<85.5 99>
VStem: 161 58<-38.0665 9.42664>
LayerCount: 2
Back
Fore
SplineSet
133 150 m 0,0,1
 142 150 142 150 159 123.5 c 128,-1,2
 176 97 176 97 189 70 c 0,3,4
 219 8 219 8 219 -14 c 0,5,6
 219 -52 219 -52 198 -78 c 128,-1,7
 177 -104 177 -104 137 -104 c 0,8,9
 119 -104 119 -104 103.5 -94.5 c 128,-1,10
 88 -85 88 -85 88 -70.5 c 128,-1,11
 88 -56 88 -56 100 -48 c 0,12,13
 110 -40 110 -40 124 -40 c 0,14,15
 160 -39 160 -39 161 -19 c 0,16,17
 161 -4 161 -4 152 10 c 1,18,19
 139 9 139 9 121 -4.5 c 128,-1,20
 103 -18 103 -18 95 -18 c 0,21,22
 76 -18 76 -18 51.5 27 c 128,-1,23
 27 72 27 72 27 93 c 0,24,25
 27 111 27 111 69.5 130.5 c 128,-1,26
 112 150 112 150 133 150 c 0,0,1
EndSplineSet
Validated: 1
EndChar

StartChar: u
Encoding: 117 117 26
Width: 495
VWidth: -4
Flags: W
HStem: -15 77<185.464 282.884>
VStem: 54 90<105.167 336.801> 339 82<118.477 265 267 347.558>
LayerCount: 2
Back
Fore
SplineSet
342 385 m 0,0,1
 397 388 397 388 410 388 c 0,2,3
 428 388 428 388 428 267 c 0,4,5
 428 202 428 202 423 150 c 8,6,7
 421 130 421 130 421 116 c 16,8,9
 421 90 421 90 461 60 c 0,10,11
 475 50 475 50 475 38 c 3,12,13
 475 28 475 28 456 6 c 0,14,15
 438 -16 438 -16 421.5 -16 c 128,-1,16
 405 -16 405 -16 375 -2 c 128,-1,17
 345 12 345 12 330 41 c 1,18,19
 295 11 295 11 264 -2 c 128,-1,20
 233 -15 233 -15 188.5 -15 c 128,-1,21
 144 -15 144 -15 118 3 c 0,22,23
 54 47 54 47 54 185 c 0,24,25
 54 223 54 223 58.5 277.5 c 128,-1,26
 63 332 63 332 63 338 c 1,27,28
 30 347 30 347 30 364 c 0,29,30
 30 378 30 378 75.5 384.5 c 128,-1,31
 121 391 121 391 166 391 c 1,32,33
 144 304 144 304 144 215 c 0,34,35
 144 131 144 131 170 100 c 0,36,37
 201 62 201 62 244 62 c 3,38,39
 296 62 296 62 318 99 c 128,-1,40
 340 136 340 136 341 246 c 0,41,42
 341 308 341 308 330 339 c 1,43,44
 296 347 296 347 296 365 c 0,45,46
 296 382 296 382 342 385 c 0,0,1
EndSplineSet
Validated: 1
EndChar

StartChar: v
Encoding: 118 118 27
Width: 420
VWidth: -3
Flags: W
HStem: 335 55<32.0197 53.4786>
VStem: 335 70<209.579 375.824>
DStem2: 188.5 271.5 63.5 297 0.371869 -0.928285<-118.419 157.996>
LayerCount: 2
Back
Fore
SplineSet
245 -26 m 1,0,1
 196 19 196 19 158 86.5 c 128,-1,2
 120 154 120 154 102 206.5 c 128,-1,3
 84 259 84 259 63.5 297 c 128,-1,4
 43 335 43 335 15 335 c 1,5,6
 15 365 15 365 31.5 377.5 c 128,-1,7
 48 390 48 390 81 390 c 128,-1,8
 114 390 114 390 143 353.5 c 128,-1,9
 172 317 172 317 188.5 271.5 c 128,-1,10
 205 226 205 226 219.5 182.5 c 128,-1,11
 234 139 234 139 254 118 c 1,12,13
 335 212 335 212 335 313 c 0,14,15
 335 317 335 317 325.5 334.5 c 128,-1,16
 316 352 316 352 316 369 c 1,17,18
 352 386 352 386 384 386 c 0,19,20
 405 386 405 386 405 354 c 0,21,22
 405 247 405 247 365 156 c 128,-1,23
 325 65 325 65 245 -26 c 1,0,1
EndSplineSet
Validated: 1
EndChar

StartChar: w
Encoding: 119 119 28
Width: 635
VWidth: -3
Flags: W
DStem2: 422.5 269 329 226 0.453251 -0.891383<-136.787 16.4535 70.2074 159.879>
LayerCount: 2
Back
Fore
SplineSet
237 -26 m 1,0,1
 191 18 191 18 154 86 c 0,2,3
 118 154 118 154 100 206 c 0,4,5
 57 335 57 335 15 335 c 1,6,7
 15 390 15 390 77 390 c 0,8,9
 112 390 112 390 140 354 c 128,-1,10
 168 318 168 318 184 272 c 0,11,12
 230 136 230 136 260 102 c 1,13,14
 311 162 311 162 329 226 c 1,15,16
 316 253 316 253 306.5 266.5 c 128,-1,17
 297 280 297 280 273.5 301 c 128,-1,18
 250 322 250 322 250 342 c 0,19,20
 250 388 250 388 311 388 c 0,21,22
 346 388 346 388 376 351.5 c 128,-1,23
 406 315 406 315 422.5 269 c 128,-1,24
 439 223 439 223 455 183.5 c 128,-1,25
 471 144 471 144 490 123 c 1,26,27
 538 209 538 209 557 313 c 1,28,29
 538 342 538 342 528 372 c 1,30,31
 553 383 553 383 608 383 c 0,32,33
 630 383 630 383 630 350 c 1,34,35
 606 228 606 228 558.5 114 c 128,-1,36
 511 0 511 0 471 -24 c 1,37,38
 442 0 442 0 412 54 c 0,39,40
 390 95 390 95 365 161 c 1,41,42
 351 120 351 120 303 56 c 0,43,44
 279 24 279 24 237 -26 c 1,0,1
EndSplineSet
Validated: 1
EndChar

StartChar: y
Encoding: 121 121 29
Width: 408
VWidth: 8
Flags: W
HStem: 345 53<34.0853 60.0403>
VStem: 331 74<258.928 383.04>
LayerCount: 2
Back
Fore
SplineSet
202 -67 m 1,0,1
 213 -83 213 -83 240 -105 c 1,2,3
 210 -176 210 -176 183 -176 c 0,4,5
 164 -176 164 -176 142 -158 c 0,6,7
 117 -138 117 -138 90 -100 c 1,8,9
 104 -80 104 -80 120 -62 c 0,10,11
 153 -22 153 -22 190 30 c 1,12,13
 120 223 120 223 96 270 c 0,14,15
 57 345 57 345 15 345 c 1,16,17
 15 378 15 378 33.5 388 c 128,-1,18
 52 398 52 398 100 398 c 0,19,20
 186 398 186 398 267 141 c 1,21,22
 331 256 331 256 331 326 c 0,23,24
 331 369 331 369 342 383.5 c 128,-1,25
 353 398 353 398 370.5 398 c 128,-1,26
 388 398 388 398 396.5 387 c 128,-1,27
 405 376 405 376 405 365 c 0,28,29
 405 316 405 316 378.5 246 c 128,-1,30
 352 176 352 176 310 106 c 0,31,32
 250 2 250 2 202 -67 c 1,0,1
EndSplineSet
Validated: 1
EndChar

StartChar: x
Encoding: 120 120 30
Width: 498
VWidth: -4
Flags: W
HStem: -15 70<381.257 433.794> -10 114<52.1201 117.164> 288 103<396.387 457.127>
DStem2: 131 56 178 24 0.568581 0.822627<0 109.942 241.538 366.964> 265 257 204 167 0.578747 -0.815507<-143.994 0 220.897 248.221>
LayerCount: 2
Back
Fore
SplineSet
131 56 m 1,0,-1
 204 167 l 1,1,2
 148 254 148 254 100 292 c 0,3,4
 75 312 75 312 34 328 c 1,5,6
 34 389 34 389 98 389 c 128,-1,7
 162 389 162 389 265 257 c 1,8,9
 313 333 313 333 342.5 362 c 128,-1,10
 372 391 372 391 410 391 c 0,11,12
 431 391 431 391 450.5 375 c 128,-1,13
 470 359 470 359 470 338 c 128,-1,14
 470 317 470 317 454.5 302.5 c 128,-1,15
 439 288 439 288 420 288 c 128,-1,16
 401 288 401 288 393 321 c 1,17,18
 346 269 346 269 300 202 c 1,19,20
 346 114 346 114 386 72 c 0,21,22
 402 55 402 55 409.5 55 c 131,-1,23
 417 55 417 55 432 63 c 0,24,25
 447 70 447 70 453 82 c 1,26,27
 464 79 464 79 472 70 c 128,-1,28
 480 61 480 61 480 52 c 0,29,30
 480 40 480 40 441.5 12.5 c 128,-1,31
 403 -15 403 -15 383 -15 c 0,32,33
 336 -15 336 -15 314 12 c 0,34,35
 266 68 266 68 239 115 c 1,36,37
 236 109 236 109 214 76 c 128,-1,38
 192 43 192 43 178 24 c 0,39,40
 153 -10 153 -10 133 -10 c 0,41,42
 68 -10 68 -10 47 18 c 0,43,44
 31 40 31 40 31 52 c 3,45,46
 31 76 31 76 46 92 c 0,47,48
 56 104 56 104 72 104 c 0,49,50
 100 104 100 104 109 92 c 0,51,52
 123 76 123 76 131 56 c 1,0,-1
EndSplineSet
Validated: 8388609
EndChar

StartChar: z
Encoding: 122 122 31
Width: 481
VWidth: -2
Flags: W
HStem: 4 77<204 413.122> 318 79<81.6147 227.951>
VStem: 417 48<-44.8364 -15>
DStem2: 30 -27 204 81 0.667545 0.744569<196.566 409.924 499.294 553.937>
LayerCount: 2
Back
Fore
SplineSet
381 364.5 m 128,-1,1
 392 382 392 382 404 382 c 3,2,3
 428 382 428 382 428 361 c 0,4,5
 428 349 428 349 372 279 c 128,-1,6
 316 209 316 209 204 81 c 1,7,8
 420 81 420 81 452 64 c 0,9,10
 464 58 464 58 465 44 c 0,11,12
 465 -50 465 -50 428 -50 c 0,13,14
 417 -50 417 -50 417 -34.5 c 128,-1,15
 417 -19 417 -19 418 -15 c 1,16,17
 261 4 261 4 219 4 c 0,18,19
 147 4 147 4 30 -27 c 1,20,21
 193 154 193 154 305 277 c 1,22,23
 265 285 265 285 227 296.5 c 128,-1,24
 189 308 189 308 163.5 313 c 128,-1,25
 138 318 138 318 98 318 c 0,26,27
 77 318 77 318 46 271 c 1,28,29
 46 322 46 322 70 359.5 c 128,-1,30
 94 397 94 397 119 397 c 0,31,32
 170 397 170 397 260.5 372 c 128,-1,33
 351 347 351 347 360.5 347 c 128,-1,0
 370 347 370 347 381 364.5 c 128,-1,1
EndSplineSet
Validated: 1
EndChar

StartChar: quotesingle
Encoding: 39 39 32
Width: 172
VWidth: 41
Flags: W
HStem: 380 314<72.1418 81.1262>
VStem: 33 111<484.871 653.447>
LayerCount: 2
Back
Fore
SplineSet
86 694 m 4,0,1
 144 694 144 694 144 645 c 0,2,3
 144 595 144 595 130 522 c 0,4,5
 103 380 103 380 33 380 c 1,6,7
 33 694 33 694 86 694 c 4,0,1
EndSplineSet
Validated: 1
EndChar

StartChar: A
Encoding: 65 65 34
Width: 670
VWidth: -15
Flags: W
HStem: -9 61<40.7734 81.686 158 168 223 241.047 570.944 607.26 631 647.954> -9 41<398.562 470.191> 287 76<318.88 404> 562 69<260 365> 575 62<75.8383 191.852 464 531.112>
VStem: 82 76<59 188.577>
DStem2: 119 253 191 248 0.216598 0.976261<-178.515 20.7777 112.345 329.276>
LayerCount: 2
Back
Fore
SplineSet
214 347 m 1,0,-1
 404 363 l 1,1,-1
 365 562 l 1,2,-1
 260 559 l 1,3,-1
 214 347 l 1,0,-1
168 -2 m 1,4,-1
 62 -7 l 1,5,6
 40 -7 40 -7 40 24 c 128,-1,7
 40 55 40 55 56 55 c 128,-1,8
 72 55 72 55 82 60 c 1,9,10
 84 105 84 105 119 253 c 0,11,12
 192 566 192 566 194 575 c 1,13,14
 190 576 190 576 138 578.5 c 128,-1,15
 86 581 86 581 75.5 589.5 c 128,-1,16
 65 598 65 598 58.5 616 c 128,-1,17
 52 634 52 634 52 644 c 1,18,19
 114 644 114 644 190 637 c 0,20,21
 265 631 265 631 313 631 c 128,-1,22
 361 631 361 631 397 638 c 0,23,24
 429 644 429 644 476 644 c 0,25,26
 534 644 534 644 534 611 c 0,27,28
 534 573 534 573 464 573 c 1,29,30
 464 539 464 539 517 329.5 c 128,-1,31
 570 120 570 120 570 70 c 0,32,33
 570 52 570 52 625 52 c 0,34,35
 638 52 638 52 644 40 c 128,-1,36
 650 28 650 28 650 16 c 0,37,38
 650 -9 650 -9 631 -9 c 0,39,40
 617 -9 617 -9 593.5 -5 c 128,-1,41
 570 -1 570 -1 519 -1 c 1,42,-1
 420 -9 l 2,43,44
 411 -9 411 -9 404.5 -0.5 c 128,-1,45
 398 8 398 8 398 16 c 0,46,47
 398 32 398 32 414 32 c 0,48,49
 421 32 421 32 477 55 c 1,50,-1
 424 287 l 1,51,52
 343 282 343 282 191 248 c 1,53,54
 160 138 160 138 158 59 c 1,55,-1
 223 56 l 2,56,57
 243 56 243 56 243 28 c 128,-1,58
 243 0 243 0 224 0 c 2,59,-1
 168 -2 l 1,4,-1
EndSplineSet
Validated: 8388609
EndChar

StartChar: B
Encoding: 66 66 35
Width: 636
VWidth: -15
Flags: W
HStem: -36 61<283.94 444.024> -20 50<73.2837 145.774> 558 45<47.6415 132.688> 579 72<282.428 402.493>
VStem: 148 106<54.0055 539.062> 441 110<407.638 539.02> 488 113<65.6028 228.648>
LayerCount: 2
Back
Fore
SplineSet
335 579 m 0,0,1
 302 579 302 579 278 552.5 c 128,-1,2
 254 526 254 526 254 481 c 2,3,-1
 254 126 l 1,4,5
 255 72 255 72 282 48.5 c 128,-1,6
 309 25 309 25 388 25 c 0,7,8
 416 25 416 25 452 52.5 c 128,-1,9
 488 80 488 80 488 125 c 0,10,11
 488 217 488 217 445 254 c 0,12,13
 414 280 414 280 356 305 c 0,14,15
 332 315 332 315 295 338 c 1,16,17
 441 381 441 381 441 469 c 0,18,19
 441 513 441 513 414 546 c 128,-1,20
 387 579 387 579 335 579 c 0,0,1
390 -36 m 0,21,22
 339 -36 339 -36 291.5 -17.5 c 128,-1,23
 244 1 244 1 207 1 c 0,24,25
 204 1 204 1 186 -4 c 0,26,27
 135 -20 135 -20 84 -20 c 0,28,29
 64 -20 64 -20 64 1 c 0,30,31
 64 14 64 14 73 22 c 128,-1,32
 82 30 82 30 101 30 c 0,33,34
 139 30 139 30 146 40 c 0,35,36
 148 43 148 43 148 50 c 2,37,-1
 148 519 l 1,38,39
 146 530 146 530 117.5 544 c 128,-1,40
 89 558 89 558 60 558 c 0,41,42
 52 558 52 558 47.5 564.5 c 128,-1,43
 43 571 43 571 43 579 c 128,-1,44
 43 587 43 587 48.5 595 c 128,-1,45
 54 603 54 603 63 603 c 0,46,47
 104 603 104 603 131 589.5 c 128,-1,48
 158 576 158 576 186 576 c 0,49,50
 227 576 227 576 261 613.5 c 128,-1,51
 295 651 295 651 366 651 c 0,52,53
 446 651 446 651 498.5 602 c 128,-1,54
 551 553 551 553 551 483 c 0,55,56
 551 431 551 431 524.5 389.5 c 128,-1,57
 498 348 498 348 449 331 c 1,58,59
 454 328 454 328 480 316 c 0,60,61
 557 281 557 281 576 249 c 0,62,63
 601 206 601 206 601 156 c 3,64,65
 601 56 601 56 532 13 c 0,66,67
 453 -36 453 -36 390 -36 c 0,21,22
EndSplineSet
Validated: 8388609
EndChar

StartChar: C
Encoding: 67 67 36
Width: 662
VWidth: -12
Flags: W
HStem: -18 54<349.25 482.312> 593 65<240.734 357.444>
VStem: 43 101<233.909 453.71> 588 38<-69 25>
LayerCount: 2
Back
Fore
SplineSet
626 -69 m 1,0,1
 623 -72 623 -72 619 -76 c 4,2,3
 605 -90 605 -90 595 -91 c 1,4,5
 588 -87 588 -87 588 -79 c 0,6,7
 584 3 584 3 582 25 c 1,8,9
 528 -9 528 -9 478 -17.5 c 128,-1,10
 428 -26 428 -26 333 -26 c 128,-1,11
 238 -26 238 -26 170 24 c 0,12,13
 43 118 43 118 43 329 c 7,14,15
 43 498 43 498 168 606 c 0,16,17
 228 658 228 658 299.5 658 c 131,-1,18
 371 658 371 658 413 646 c 128,-1,19
 455 634 455 634 496 590 c 1,20,21
 508 600 508 600 532 622 c 0,22,23
 567 655 567 655 587 655 c 0,24,25
 604 655 604 655 604 626 c 0,26,27
 604 586 604 586 477 484 c 1,28,29
 449 519 449 519 385 556 c 128,-1,30
 321 593 321 593 287 593 c 0,31,32
 253 592 253 592 219 548 c 0,33,34
 144 450 144 450 144 335 c 0,35,36
 144 214 144 214 253 122 c 0,37,38
 354 36 354 36 436 36 c 0,39,40
 456 36 456 36 540 98 c 0,41,42
 606 147 606 147 627 159 c 1,43,-1
 626 -69 l 1,0,1
EndSplineSet
Validated: 1
EndChar

StartChar: D
Encoding: 68 68 37
Width: 633
VWidth: -12
Flags: W
HStem: -21 55<263.645 457.435> 570 44<25.0625 111.727> 583 72<274.934 398.92>
VStem: 130 105<60.1628 550.619> 513 83<134.87 411.747>
LayerCount: 2
Back
Fore
SplineSet
513 236 m 0,0,1
 513 397 513 397 457.5 490 c 128,-1,2
 402 583 402 583 340 583 c 0,3,4
 306 583 306 583 270.5 561.5 c 128,-1,5
 235 540 235 540 235 520 c 2,6,-1
 235 61 l 1,7,8
 345 34 345 34 417 34 c 0,9,10
 444 34 444 34 475 76 c 0,11,12
 513 128 513 128 513 236 c 0,0,1
284.5 -4.5 m 128,-1,14
 228 12 228 12 185 12 c 131,-1,15
 142 12 142 12 121.5 -9 c 128,-1,16
 101 -30 101 -30 82 -82 c 1,17,18
 64 -82 64 -82 59 -63 c 128,-1,19
 54 -44 54 -44 54 -31 c 0,20,21
 54 2 54 2 80.5 33 c 128,-1,22
 107 64 107 64 130 74 c 1,23,-1
 130 530 l 1,24,25
 128 541 128 541 99 555.5 c 128,-1,26
 70 570 70 570 41 570 c 0,27,28
 25 570 25 570 25 590 c 0,29,30
 25 614 25 614 45 614 c 0,31,32
 95 614 95 614 123 596.5 c 128,-1,33
 151 579 151 579 200 579 c 0,34,35
 206 579 206 579 252 617 c 128,-1,36
 298 655 298 655 369 655 c 0,37,38
 459 655 459 655 527.5 562 c 128,-1,39
 596 469 596 469 596 313 c 0,40,41
 596 135 596 135 533 52 c 0,42,43
 478 -21 478 -21 409.5 -21 c 128,-1,13
 341 -21 341 -21 284.5 -4.5 c 128,-1,14
EndSplineSet
Validated: 8388609
EndChar

StartChar: less
Encoding: 60 60 40
Width: 472
VWidth: -3
Flags: W
HStem: -14 21G<395 409> 302 79<328 439.254>
DStem2: 170 198 136.5 121.5 0.929694 -0.368332<0 282.021>
LayerCount: 2
Back
Fore
SplineSet
286 264 m 0,0,1
 226 235 226 235 170 198 c 1,2,3
 191 189 191 189 276.5 159 c 128,-1,4
 362 129 362 129 406 104.5 c 128,-1,5
 450 80 450 80 450 51.5 c 128,-1,6
 450 23 450 23 436.5 4.5 c 128,-1,7
 423 -14 423 -14 395 -14 c 1,8,9
 395 33 395 33 261 73 c 0,10,11
 207 89 207 89 136.5 121.5 c 128,-1,12
 66 154 66 154 19 195 c 1,13,14
 81 246 81 246 212 313 c 128,-1,15
 343 380 343 380 414 381 c 0,16,17
 445 381 445 381 445 359 c 3,18,19
 445 333 445 333 431 302 c 1,20,21
 335 287 335 287 286 264 c 0,0,1
EndSplineSet
Validated: 1
EndChar

StartChar: greater
Encoding: 62 62 41
Width: 472
VWidth: -3
Flags: W
HStem: -14 21G<59.5 74> 302 79<29.156 137.858>
DStem2: 212 165.5 208 72 0.932174 0.362009<-187.381 91.9323>
LayerCount: 2
Back
Fore
SplineSet
38 302 m 1,0,1
 23 335 23 335 23 358 c 128,-1,2
 23 381 23 381 55 381 c 0,3,4
 126 380 126 380 257 313 c 128,-1,5
 388 246 388 246 450 195 c 1,6,7
 403 154 403 154 332.5 121 c 128,-1,8
 262 88 262 88 208 72 c 0,9,10
 74 34 74 34 74 -14 c 1,11,12
 45 -14 45 -14 32 4.5 c 128,-1,13
 19 23 19 23 19 54 c 0,14,15
 20 86 20 86 92 118 c 0,16,17
 148 143 148 143 212 165.5 c 128,-1,18
 276 188 276 188 298 198 c 1,19,20
 240 235 240 235 180 264 c 0,21,22
 132 287 132 287 38 302 c 1,0,1
EndSplineSet
Validated: 1
EndChar

StartChar: F
Encoding: 70 70 42
Width: 512
VWidth: -14
Flags: W
HStem: -18 56<44.0195 142.005> -2 49<273 408.842> 310 74<72 142> 316 76<276 426.529> 566 73<100.819 145 284.277 420.801>
VStem: 142 132<47.1875 310 392 546.916> 432 41<263.722 303.858 392 425.589>
LayerCount: 2
Back
Fore
SplineSet
504 597 m 1,0,1
 491 545 491 545 481 476 c 128,-1,2
 471 407 471 407 471 381 c 0,3,4
 473 367 473 367 473 333 c 0,5,6
 473 226 473 226 432 226 c 1,7,8
 432 300 432 300 427 304 c 0,9,10
 412 316 412 316 388 316 c 0,11,12
 368 316 368 316 276 312 c 1,13,-1
 273 47 l 1,14,15
 356 47 356 47 375 43.5 c 128,-1,16
 394 40 394 40 399 40 c 128,-1,17
 404 40 404 40 409 32.5 c 128,-1,18
 414 25 414 25 414 16 c 128,-1,19
 414 7 414 7 409 0 c 128,-1,20
 404 -7 404 -7 392.5 -7 c 128,-1,21
 381 -7 381 -7 338 -4.5 c 128,-1,22
 295 -2 295 -2 213 -2 c 128,-1,23
 131 -2 131 -2 111.5 -10 c 128,-1,24
 92 -18 92 -18 73 -18 c 0,25,26
 43 -18 43 -18 43 5 c 0,27,28
 43 38 43 38 72 38 c 0,29,30
 119 38 119 38 143 50 c 1,31,-1
 142 310 l 1,32,-1
 72 310 l 1,33,-1
 40 384 l 1,34,-1
 142 384 l 1,35,-1
 142 455 l 2,36,37
 142 473 142 473 128.5 519.5 c 128,-1,38
 115 566 115 566 107 566 c 0,39,40
 102 566 102 566 84.5 556.5 c 128,-1,41
 67 547 67 547 62 547 c 0,42,43
 45 547 45 547 45 573 c 0,44,45
 45 585 45 585 87.5 612 c 128,-1,46
 130 639 130 639 139 639 c 3,47,48
 151 639 151 639 185 600 c 0,49,50
 201 582 201 582 213 570 c 1,51,52
 293 624 293 624 306 629 c 0,53,54
 338 643 338 643 376 643 c 0,55,56
 424 643 424 643 504 597 c 1,0,1
329 572 m 0,57,58
 306 572 306 572 290.5 557 c 128,-1,59
 275 542 275 542 269 529 c 1,60,-1
 274 392 l 1,61,-1
 429 392 l 1,62,-1
 449 529 l 1,63,64
 372 572 372 572 329 572 c 0,57,58
EndSplineSet
Validated: 8388609
EndChar

StartChar: G
Encoding: 71 71 43
Width: 699
VWidth: -15
Flags: W
HStem: -29 93<308.498 485.119> 590 64<237.857 354.846>
VStem: 45 101<226.142 450.788> 607 65<114.129 224.439>
DStem2: 362 274 382 230 0.935084 0.354427<0 131.952> 466 598 476 454 0.747409 -0.664364<-92.2739 125.571> 545 517 566.5 464.5 0.905263 0.424852<-5.81131 94.0512>
LayerCount: 2
Back
Fore
SplineSet
644 365 m 1,0,1
 637 359 637 359 625 350 c 128,-1,2
 613 341 613 341 603 331 c 1,3,4
 632 302 632 302 643 284 c 0,5,6
 672 238 672 238 672 178 c 0,7,8
 672 66 672 66 544 14 c 0,9,10
 436 -29 436 -29 350 -29 c 0,11,12
 186 -29 186 -29 114 78 c 0,13,14
 45 179 45 179 45 326 c 0,15,16
 47 547 47 547 177 624 c 0,17,18
 228 654 228 654 298 654 c 0,19,20
 403 654 403 654 466 598 c 0,21,22
 524 545 524 545 545 517 c 1,23,24
 582 534 582 534 599 544 c 0,25,26
 616 552 616 552 633 552 c 131,-1,27
 650 552 650 552 650 531 c 0,28,29
 650 509 650 509 632.5 497 c 128,-1,30
 615 485 615 485 566.5 464.5 c 128,-1,31
 518 444 518 444 494 432 c 1,32,33
 492 434 492 434 476 454 c 0,34,35
 366 590 366 590 286 590 c 0,36,37
 236 590 236 590 191 502 c 128,-1,38
 146 414 146 414 146 346 c 0,39,40
 146 212 146 212 235 134 c 0,41,42
 317 64 317 64 398 64 c 0,43,44
 490 64 490 64 574 108 c 0,45,46
 604 124 604 124 607 131 c 0,47,48
 607 190 607 190 580.5 231 c 128,-1,49
 554 272 554 272 504 272 c 0,50,51
 500 272 500 272 480 264 c 0,52,53
 417 239 417 239 382 230 c 1,54,55
 372 237 372 237 369 253 c 128,-1,56
 366 269 366 269 362 274 c 1,57,58
 453 300 453 300 512 331 c 128,-1,59
 571 362 571 362 623 414 c 1,60,61
 640 383 640 383 644 365 c 1,0,1
EndSplineSet
Validated: 1
EndChar

StartChar: H
Encoding: 72 72 44
Width: 851
VWidth: -15
Flags: W
HStem: -22 63<92 153.858 574.902 593.143 716.907 800.886> -17 70<268.27 461.051> -17 53<287.538 463.989> 301 79<266 391.251> 320 78<472.749 598> 580 56<51.626 124.641 264.356 291.185> 585 64<771.112 800.553> 586 49<571.031 598.996>
VStem: 156 110<58.5781 301 380 575.379> 598 107<58.5352 320 398 575.129>
LayerCount: 2
Back
Fore
SplineSet
705 558 m 6,0,1
 706 76 l 2,2,3
 706 58 706 58 774 48 c 0,4,5
 843 37 843 37 843 -19 c 1,6,7
 724 -2 724 -2 656 -2 c 0,8,9
 641 -2 641 -2 620 -9.5 c 128,-1,10
 599 -17 599 -17 565 -17 c 1,11,12
 565 40 565 40 580 45 c 128,-1,13
 595 50 595 50 595 80 c 128,-1,14
 595 110 595 110 598 320 c 1,15,-1
 266 301 l 1,16,-1
 266 72 l 2,17,18
 266 58 266 58 324 53 c 128,-1,19
 382 48 382 48 441 36 c 128,-1,20
 500 24 500 24 500 -17 c 1,21,22
 250 -8 250 -8 237 -8 c 0,23,24
 185 -8 185 -8 127 -15 c 0,25,26
 74 -22 74 -22 31 -22 c 1,27,28
 31 36 31 36 92 41 c 0,29,30
 156 46 156 46 156 67 c 2,31,-1
 156 552 l 2,32,33
 156 580 156 580 95 580 c 0,34,35
 71 580 71 580 51 591.5 c 128,-1,36
 31 603 31 603 31 636 c 1,37,-1
 198 625 l 24,38,-1
 301 637 l 1,39,40
 301 583 301 583 282 578 c 0,41,42
 264 573 264 573 264 552 c 2,43,-1
 264 380 l 1,44,-1
 598 398 l 1,45,46
 599 449 599 449 599 563 c 0,47,48
 599 586 599 586 582 586 c 3,49,50
 564 586 564 586 564 635 c 1,51,52
 594 635 594 635 615.5 632 c 128,-1,53
 637 629 637 629 646 629 c 24,54,-1
 841 649 l 1,55,56
 841 595 841 595 772 585 c 0,57,58
 705 575 705 575 705 558 c 6,0,1
EndSplineSet
Validated: 8388609
EndChar

StartChar: J
Encoding: 74 74 45
Width: 331
VWidth: -10
Flags: W
HStem: -152 67<100.281 171.47> 577 52<82.1241 177.834>
VStem: 179 117<-42.9441 576.468>
LayerCount: 2
Back
Fore
SplineSet
85 -38 m 1,0,1
 109 -85 109 -85 136 -85 c 128,-1,2
 163 -85 163 -85 171 -69 c 128,-1,3
 179 -53 179 -53 179 -6 c 2,4,-1
 179 541 l 2,5,6
 179 560 179 560 175 577 c 1,7,8
 108 579 108 579 62.5 593 c 128,-1,9
 17 607 17 607 17 635 c 0,10,11
 17 645 17 645 25 654.5 c 128,-1,12
 33 664 33 664 45.5 664 c 128,-1,13
 58 664 58 664 91 646.5 c 128,-1,14
 124 629 124 629 161.5 629 c 128,-1,15
 199 629 199 629 235 645.5 c 128,-1,16
 271 662 271 662 296 662 c 1,17,-1
 296 56 l 2,18,19
 296 -22 296 -22 246.5 -87 c 128,-1,20
 197 -152 197 -152 138 -152 c 0,21,22
 102 -152 102 -152 71.5 -136 c 128,-1,23
 41 -120 41 -120 41 -90 c 0,24,25
 41 -61 41 -61 68 -44 c 0,26,27
 75 -39 75 -39 85 -38 c 1,0,1
EndSplineSet
Validated: 1
EndChar

StartChar: K
Encoding: 75 75 46
Width: 646
VWidth: -15
Flags: W
HStem: -21 45<213.1 297.994 561.537 623.885> -20 56<28.8912 96> 597 46<24.1406 95.2235 211.632 279.689 555.66 587.749>
VStem: 96 115<39.3895 296.831 369 595.397>
LayerCount: 2
Back
Fore
SplineSet
60 597 m 128,-1,1
 24 597 24 597 24 622 c 0,2,3
 24 643 24 643 51 643 c 0,4,5
 63 643 63 643 98.5 636 c 128,-1,6
 134 629 134 629 154.5 629 c 128,-1,7
 175 629 175 629 209.5 635 c 128,-1,8
 244 641 244 641 254 641 c 0,9,10
 280 641 280 641 280 622.5 c 128,-1,11
 280 604 280 604 245.5 598 c 128,-1,12
 211 592 211 592 211 582 c 2,13,-1
 211 369 l 1,14,15
 240 388 240 388 325 460 c 0,16,17
 546 646 546 646 566 646 c 0,18,19
 580 646 580 646 588 635 c 0,20,21
 597 623 597 623 599 595 c 1,22,23
 542 582 542 582 406 451 c 0,24,25
 350 397 350 397 335 386 c 1,26,27
 371 352 371 352 427 259.5 c 128,-1,28
 483 167 483 167 527 95.5 c 128,-1,29
 571 24 571 24 589 24 c 0,30,31
 600 24 600 24 612 16 c 0,32,33
 624 10 624 10 624 -0 c 0,34,35
 624 -20 624 -20 506 -21 c 0,36,37
 461 -21 461 -21 370 142 c 128,-1,38
 279 305 279 305 245 305 c 0,39,40
 237 305 237 305 224 283 c 128,-1,41
 211 261 211 261 211 241 c 2,42,-1
 211 51 l 2,43,44
 211 43 211 43 232.5 39.5 c 128,-1,45
 254 36 254 36 276 28 c 128,-1,46
 298 20 298 20 298 2 c 128,-1,47
 298 -16 298 -16 272 -16 c 1,48,-1
 155 -8 l 1,49,50
 134 -8 134 -8 95 -14 c 128,-1,51
 56 -20 56 -20 44 -20 c 0,52,53
 16 -20 16 -20 16 -1 c 128,-1,54
 16 18 16 18 28.5 26.5 c 128,-1,55
 41 35 41 35 56 36 c 0,56,57
 96 37 96 37 96 55 c 2,58,-1
 96 577 l 2,59,0
 96 597 96 597 60 597 c 128,-1,1
EndSplineSet
Validated: 8388609
EndChar

StartChar: L
Encoding: 76 76 47
Width: 645
VWidth: -10
Flags: W
HStem: -18 21G<26 46.5> -10 62<45.5945 149.289 358.401 487.581> -2 54<271.77 435.355> 590 59<59.0625 147.129 265.441 363.5> 591 47<265.441 390.547>
VStem: 150 113<60.7653 582.142> 586 41<-126 -10>
LayerCount: 2
Back
Fore
SplineSet
262 557 m 2,0,-1
 263 76 l 2,1,2
 263 69 263 69 271.5 60.5 c 128,-1,3
 280 52 280 52 305 52 c 0,4,5
 472 52 472 52 554 102 c 0,6,7
 592 126 592 126 603 159 c 1,8,9
 615 160 615 160 620 142 c 0,10,11
 627 124 627 124 627 90 c 2,12,-1
 627 -126 l 1,13,-1
 586 -126 l 1,14,-1
 586 -10 l 1,15,16
 521 -2 521 -2 211 -2 c 0,17,18
 174 -2 174 -2 120.5 -10 c 128,-1,19
 67 -18 67 -18 26 -18 c 1,20,21
 26 17 26 17 45 31 c 128,-1,22
 64 45 64 45 86 47 c 0,23,24
 150 54 150 54 150 73 c 2,25,-1
 150 557 l 2,26,27
 150 585 150 585 90 590 c 0,28,29
 26 595 26 595 26 649 c 1,30,31
 81 649 81 649 129 638 c 0,32,33
 168 629 168 629 191 629 c 131,-1,34
 214 629 214 629 290 638 c 0,35,36
 373 648 373 648 404 649 c 1,37,38
 404 597 404 597 332 591 c 0,39,40
 262 586 262 586 262 557 c 2,0,-1
EndSplineSet
Validated: 8388609
EndChar

StartChar: M
Encoding: 77 77 48
Width: 842
VWidth: -15
Flags: W
HStem: -16 52<42.86 103.625 172.139 226.656> 571 50<521.236 587.991> 580 56<694.416 739.749> 583 43<105.819 185.987 694.165 739.749> 584 62<271.256 300.098>
VStem: 104 67<40.2109 190.408> 588 106<484.432 570.079> 611 106<98.8945 400.925> 628 113<38.8372 258.599>
LayerCount: 2
Back
Fore
SplineSet
539.5 406 m 128,-1,1
 588 545 588 545 588 558 c 128,-1,2
 588 571 588 571 553 571 c 128,-1,3
 518 571 518 571 518 611 c 1,4,5
 570 621 570 621 608 621 c 128,-1,6
 646 621 646 621 688 628 c 0,7,8
 730 636 730 636 748 636 c 1,9,10
 748 605 748 605 740 593 c 0,11,12
 732 580 732 580 721 580 c 0,13,14
 694 579 694 579 694 559 c 0,15,16
 694 534 694 534 717 325.5 c 128,-1,17
 740 117 740 117 741 70 c 0,18,19
 741 38 741 38 787 33 c 0,20,21
 804 31 804 31 819 19 c 128,-1,22
 834 7 834 7 834 -27 c 1,23,24
 808 -24 808 -24 784 -19 c 0,25,26
 739 -10 739 -10 699 -10 c 0,27,28
 661 -10 661 -10 628 -18 c 0,29,30
 593 -26 593 -26 568 -26 c 1,31,32
 568 8 568 8 577.5 18.5 c 128,-1,33
 587 29 587 29 599 29 c 0,34,35
 628 29 628 29 628 66 c 128,-1,36
 628 103 628 103 611 220 c 128,-1,37
 594 337 594 337 590 403 c 1,38,39
 496 134 496 134 425 -17 c 1,40,41
 381 151 381 151 242 436 c 1,42,43
 225 349 225 349 198 215 c 128,-1,44
 171 81 171 81 171 64 c 3,45,46
 171 38 171 38 204 36 c 0,47,48
 216 36 216 36 227 24.5 c 128,-1,49
 238 13 238 13 238 -19 c 1,50,51
 218 -19 218 -19 196 -16 c 0,52,53
 158 -11 158 -11 130 -11 c 128,-1,54
 102 -11 102 -11 80.5 -16.5 c 128,-1,55
 59 -22 59 -22 31 -22 c 1,56,57
 31 12 31 12 42.5 24.5 c 128,-1,58
 54 37 54 37 68 38 c 0,59,60
 104 41 104 41 104 62 c 128,-1,61
 104 83 104 83 145 304 c 128,-1,62
 186 525 186 525 186 563 c 0,63,64
 186 581 186 581 133 583 c 0,65,66
 74 585 74 585 74 626 c 1,67,-1
 187 626 l 2,68,69
 203 626 203 626 248 636 c 128,-1,70
 293 646 293 646 312 646 c 1,71,72
 312 609 312 609 283 590 c 0,73,74
 274 584 274 584 271 584 c 1,75,76
 416 274 416 274 453 174 c 1,77,0
 491 267 491 267 539.5 406 c 128,-1,1
EndSplineSet
Validated: 8388609
EndChar

StartChar: O
Encoding: 79 79 49
Width: 740
VWidth: -15
Flags: W
HStem: -17 55<336.115 528.694> 591 57<274.247 452.799>
VStem: 46 124<208.071 455.158> 600 113<152.877 415.446>
LayerCount: 2
Back
Fore
SplineSet
600 264 m 128,-1,1
 600 418 600 418 531.5 504.5 c 128,-1,2
 463 591 463 591 351 591 c 0,3,4
 276 591 276 591 223 520.5 c 128,-1,5
 170 450 170 450 170 341 c 0,6,7
 170 194 170 194 250 116 c 128,-1,8
 330 38 330 38 460 38 c 0,9,10
 500 38 500 38 529 59 c 0,11,0
 600 110 600 110 600 264 c 128,-1,1
436 -17 m 0,12,13
 246 -17 246 -17 146 70.5 c 128,-1,14
 46 158 46 158 46 318.5 c 128,-1,15
 46 479 46 479 141 563.5 c 128,-1,16
 236 648 236 648 403 648 c 0,17,18
 531 648 531 648 622 550 c 128,-1,19
 713 452 713 452 713 322 c 0,20,21
 713 151 713 151 649 67 c 128,-1,22
 585 -17 585 -17 436 -17 c 0,12,13
EndSplineSet
Validated: 1
EndChar

StartChar: N
Encoding: 78 78 50
Width: 721
VWidth: -14
Flags: W
HStem: -15 49<220.512 356.938> -11 57<72.438 146.958 216 342.976> 576 39<50.0349 118.787> 584 54<58.1458 172.679 528.86 591 658 683.75>
VStem: 147 69<49.9648 438> 591 67<3.47559 43 190 587.451>
DStem2: 374 412 216 438 0.683634 -0.729825<-126.99 310.37>
LayerCount: 2
Back
Fore
SplineSet
603 638 m 1,0,-1
 693 645 l 1,1,2
 692 604 692 604 684 595 c 0,3,4
 676 587 676 587 667 587 c 131,-1,5
 658 587 658 587 658 580 c 2,6,-1
 658 -38 l 1,7,8
 624 -13 624 -13 608 11 c 0,9,10
 588 41 588 41 586 42 c 1,11,-1
 586 43 l 1,12,-1
 216 438 l 1,13,-1
 216 64 l 2,14,15
 216 50 216 50 257 47 c 128,-1,16
 298 44 298 44 339 34 c 128,-1,17
 380 24 380 24 380 -15 c 1,18,-1
 202 -7 l 2,19,20
 173 -7 173 -7 138.5 -11 c 128,-1,21
 104 -15 104 -15 58 -15 c 1,22,23
 58 19 58 19 72 31.5 c 128,-1,24
 86 44 86 44 102 46 c 0,25,26
 146 50 146 50 147 69 c 2,27,-1
 147 568 l 2,28,29
 147 578 147 578 142.5 581 c 128,-1,30
 138 584 138 584 126 584 c 128,-1,31
 114 584 114 584 101 580 c 128,-1,32
 88 576 88 576 76 576 c 0,33,34
 37 576 37 576 37 615 c 1,35,36
 55 618 55 618 90 628 c 128,-1,37
 125 638 125 638 163 638 c 3,38,39
 203 638 203 638 216 595 c 24,40,41
 223 572 223 572 374 412 c 128,-1,42
 525 252 525 252 591 190 c 1,43,-1
 591 578 l 2,44,45
 591 588 591 588 554 588 c 0,46,47
 540 588 540 588 528.5 599.5 c 128,-1,48
 517 611 517 611 517 645 c 1,49,-1
 603 638 l 1,0,-1
EndSplineSet
Validated: 8388609
EndChar

StartChar: Q
Encoding: 81 81 51
Width: 763
VWidth: -7
Flags: W
HStem: -176 61<695.235 753.767> -6 54<336.767 527.994> 602 56<275.283 452.533>
VStem: 48 123<214.305 466.597> 582 108<-113.891 -10.3804> 599 116<159.228 427.089>
LayerCount: 2
Back
Fore
SplineSet
599 274 m 3,0,1
 599 428 599 428 531.5 515 c 128,-1,2
 464 602 464 602 352 602 c 0,3,4
 278 602 278 602 224.5 531 c 128,-1,5
 171 460 171 460 171 351 c 0,6,7
 171 204 171 204 250.5 126 c 128,-1,8
 330 48 330 48 459 48 c 0,9,10
 499 48 499 48 528 69 c 0,11,12
 599 119 599 119 599 274 c 3,0,1
436 -6 m 0,13,14
 247 -6 247 -6 147.5 81 c 128,-1,15
 48 168 48 168 48 328.5 c 128,-1,16
 48 489 48 489 142.5 573.5 c 128,-1,17
 237 658 237 658 402 658 c 0,18,19
 529 658 529 658 622 559.5 c 128,-1,20
 715 461 715 461 715 332 c 0,21,22
 715 134 715 134 634 57 c 1,23,24
 666 48 666 48 679 18 c 0,25,26
 690 -11 690 -11 690 -41 c 3,27,28
 690 -115 690 -115 715 -115 c 0,29,30
 738 -115 738 -115 757 -89 c 128,-1,31
 776 -63 776 -63 789 -63 c 0,32,33
 805 -63 805 -63 805 -86 c 128,-1,34
 805 -109 805 -109 771.5 -142.5 c 128,-1,35
 738 -176 738 -176 702 -176 c 128,-1,36
 666 -176 666 -176 640 -162 c 0,37,38
 616 -148 616 -148 604 -128 c 0,39,40
 582 -90 582 -90 582 -56 c 128,-1,41
 582 -22 582 -22 571.5 -10 c 128,-1,42
 561 2 561 2 534.5 2 c 128,-1,43
 508 2 508 2 475.5 -2 c 128,-1,44
 443 -6 443 -6 436 -6 c 0,13,14
EndSplineSet
Validated: 8388609
EndChar

StartChar: R
Encoding: 82 82 52
Width: 704
VWidth: -14
Flags: W
HStem: -18 56<32.373 152.516> -13 72<624.035 677.898> -6 49<265.743 395.842> 3 53<264 378.106> 274 34<310.539 317.938> 557 44<27.0042 119.133> 571 6<210 349>
VStem: 142 122<341.875 534.863> 159 106<56 274 339.654 523.883> 485 105<341.846 525.046>
DStem2: 490 263 482 78 0.560478 -0.828169<2.5761 269.105>
LayerCount: 2
Back
Fore
SplineSet
346.5 49 m 132,-1,1
 373 43 373 43 382 43 c 132,-1,2
 391 43 391 43 396 35.5 c 132,-1,3
 401 28 401 28 401 19 c 132,-1,4
 401 10 401 10 396 2 c 132,-1,5
 391 -6 391 -6 378.5 -6 c 132,-1,6
 366 -6 366 -6 341 -1.5 c 132,-1,7
 316 3 316 3 235 3 c 4,8,9
 154 2 154 2 116 -8 c 132,-1,10
 78 -18 78 -18 60 -18 c 4,11,12
 30 -18 30 -18 30 3 c 4,13,14
 30 15 30 15 38 26.5 c 132,-1,15
 46 38 46 38 60 38 c 4,16,17
 138 38 138 38 153 55 c 5,18,19
 159 74 159 74 159 196 c 4,20,21
 158 318 158 318 154 374 c 4,22,23
 150 424 150 424 142 515 c 4,24,25
 141 526 141 526 106.5 541.5 c 132,-1,26
 72 557 72 557 43 557 c 4,27,28
 27 557 27 557 27 579 c 132,-1,29
 27 601 27 601 44 601 c 4,30,31
 94 601 94 601 127 589 c 132,-1,32
 160 577 160 577 210 577 c 7,33,34
 240 577 240 577 274 614 c 4,35,36
 287 628 287 628 314.5 640 c 132,-1,37
 342 652 342 652 378 652 c 4,38,39
 476 652 476 652 533 593.5 c 132,-1,40
 590 535 590 535 590 434 c 4,41,42
 590 379 590 379 563 333 c 132,-1,43
 536 287 536 287 490 263 c 5,44,45
 503 242 503 242 525 210 c 4,46,47
 562 157 562 157 624 65 c 4,48,49
 625 63 625 63 640 59 c 4,50,51
 682 48 682 48 682 25 c 4,52,53
 682 -13 682 -13 612 -13 c 132,-1,54
 542 -13 542 -13 526 10 c 4,55,56
 510 32 510 32 482 78 c 4,57,58
 370 263 370 263 265 274 c 5,59,-1
 264 56 l 5,60,0
 320 55 320 55 346.5 49 c 132,-1,1
349 571 m 4,61,62
 308 571 308 571 264 527 c 5,63,-1
 265 362 l 5,64,65
 308 308 308 308 383 308 c 4,66,67
 442 308 442 308 463.5 339 c 132,-1,68
 485 370 485 370 485 438.5 c 132,-1,69
 485 507 485 507 452 539 c 132,-1,70
 419 571 419 571 349 571 c 4,61,62
EndSplineSet
Validated: 8388609
EndChar

StartChar: S
Encoding: 83 83 53
Width: 636
VWidth: -12
Flags: W
HStem: -28 83<288.513 431.585> 246 126<197.109 317.754> 587 69<226.983 322.247> 605 20G<544 555.5>
VStem: 34 51<-93.3164 -68> 81 101<348 501.671> 507 103<148.729 294.734>
DStem2: 34 -70 85 -68 0.312751 0.949835<-13.9492 104.181> 499 550 527 512 0.5547 0.83205<0 83.3962>
LayerCount: 2
Back
Fore
SplineSet
134 163 m 1,0,1
 296 55 296 55 379 55 c 0,2,3
 420 55 420 55 463.5 109 c 128,-1,4
 507 163 507 163 507 222 c 0,5,6
 507 257 507 257 491.5 285 c 128,-1,7
 476 313 476 313 454 313 c 128,-1,8
 432 313 432 313 348 279.5 c 128,-1,9
 264 246 264 246 205 246 c 128,-1,10
 146 246 146 246 113.5 283 c 128,-1,11
 81 320 81 320 81 376 c 0,12,13
 81 504 81 504 153 580 c 128,-1,14
 225 656 225 656 318 656 c 0,15,16
 351 656 351 656 403 623.5 c 128,-1,17
 455 591 455 591 499 550 c 1,18,-1
 528 602 l 1,19,20
 537 625 537 625 551 625 c 0,21,22
 560 625 560 625 569 618.5 c 128,-1,23
 578 612 578 612 578 598 c 128,-1,24
 578 584 578 584 571 577 c 1,25,-1
 527 512 l 2,26,27
 509 485 509 485 471 427 c 1,28,29
 489 430 489 430 511.5 430 c 128,-1,30
 534 430 534 430 556 414 c 128,-1,31
 578 398 578 398 589 372 c 0,32,33
 610 322 610 322 610 264 c 0,34,35
 610 140 610 140 522 52 c 0,36,37
 442 -28 442 -28 349 -28 c 0,38,39
 208 -28 208 -28 112 14 c 1,40,-1
 85 -68 l 1,41,42
 85 -77 85 -77 78 -85.5 c 128,-1,43
 71 -94 71 -94 62 -94 c 128,-1,44
 53 -94 53 -94 43.5 -87 c 128,-1,45
 34 -80 34 -80 34 -70 c 1,46,47
 38 -58 38 -58 78 47 c 0,48,49
 110 130 110 130 134 163 c 1,0,1
241 372 m 0,50,51
 272 372 272 372 376 403 c 0,52,53
 432 420 432 420 452 425 c 1,54,55
 340 587 340 587 259 587 c 0,56,57
 236 587 236 587 209 538 c 128,-1,58
 182 489 182 489 182 428 c 0,59,60
 182 403 182 403 199.5 387.5 c 128,-1,61
 217 372 217 372 241 372 c 0,50,51
EndSplineSet
Validated: 8388609
EndChar

StartChar: U
Encoding: 85 85 54
Width: 720
VWidth: -15
Flags: W
HStem: -31 74<277.529 424.997 650.348 686.93>
VStem: 99 113<111.234 602.889> 523 112<111.168 601.194>
LayerCount: 2
Back
Fore
SplineSet
99 216 m 1,0,-1
 103 580 l 2,1,2
 103 594 103 594 74 605.5 c 128,-1,3
 45 617 45 617 45 629 c 0,4,5
 45 652 45 652 227 652 c 1,6,7
 218 602 218 602 215.5 533.5 c 128,-1,8
 213 465 213 465 212 211 c 0,9,10
 212 128 212 128 253 85.5 c 128,-1,11
 294 43 294 43 352 43 c 3,12,13
 426 43 426 43 477 84 c 0,14,15
 523 122 523 122 523 195 c 2,16,-1
 521 556 l 2,17,18
 521 592 521 592 488 612 c 0,19,20
 477 618 477 618 477 626 c 0,21,22
 477 642 477 642 526 648 c 128,-1,23
 575 654 575 654 622 654 c 0,24,25
 639 654 639 654 639 577 c 2,26,-1
 635 123 l 2,27,28
 635 66 635 66 669 50 c 128,-1,29
 703 34 703 34 703 19 c 128,-1,30
 703 4 703 4 683.5 -11.5 c 128,-1,31
 664 -27 664 -27 636.5 -27 c 128,-1,32
 609 -27 609 -27 579 -3 c 128,-1,33
 549 21 549 21 535 54 c 1,34,35
 505 17 505 17 430.5 -7 c 128,-1,36
 356 -31 356 -31 299 -31 c 0,37,38
 222 -31 222 -31 160.5 42 c 128,-1,39
 99 115 99 115 99 216 c 1,0,-1
EndSplineSet
Validated: 1
EndChar

StartChar: T
Encoding: 84 84 55
Width: 683
VWidth: -17
Flags: W
HStem: -13 57<487.059 545.186> 7 37<191.976 284.602> 530 82<111.669 292.736 407.129 504.85> 533 69<407.129 618.734> 542 80<75.822 286.784>
VStem: 18 52<493.346 540.883> 293 110<56 523.813> 624 59<613.218 664.951>
LayerCount: 2
Back
Fore
SplineSet
335 7 m 3,0,1
 310 7 310 7 258 -2 c 0,2,3
 194 -14 194 -14 137 -14 c 1,4,5
 137 18 137 18 161.5 30 c 128,-1,6
 186 42 186 42 215 44 c 0,7,8
 293 51 293 51 293 78 c 2,9,-1
 293 515 l 1,10,11
 285 527 285 527 221 534.5 c 128,-1,12
 157 542 157 542 97 542 c 0,13,14
 70 542 70 542 70 470 c 1,15,16
 36 479 36 479 26 493 c 0,17,18
 18 504 18 504 18 523 c 0,19,20
 18 569 18 569 42 595.5 c 128,-1,21
 66 622 66 622 109 622 c 0,22,23
 194 622 194 622 332 612 c 128,-1,24
 470 602 470 602 506 602 c 0,25,26
 624 602 624 602 624 636 c 0,27,28
 624 651 624 651 589 674 c 1,29,-1
 649 713 l 1,30,31
 683 676 683 676 683 660 c 0,32,33
 683 616 683 616 649 576 c 0,34,35
 613 534 613 534 543 533 c 1,36,-1
 430 530 l 2,37,38
 411 530 411 530 407 524 c 128,-1,39
 403 518 403 518 403 515 c 2,40,-1
 403 78 l 2,41,42
 404 51 404 51 488 44 c 0,43,44
 520 42 520 42 546 30.5 c 128,-1,45
 572 19 572 19 572 -13 c 1,46,-1
 335 7 l 3,0,1
EndSplineSet
Validated: 8388609
EndChar

StartChar: V
Encoding: 86 86 56
Width: 614
VWidth: -15
Flags: W
VStem: 536 79<520.107 640.004>
DStem2: 191 564 106 510 0.415559 -0.909566<-95.9746 175.994 442.887 471.653>
LayerCount: 2
Back
Fore
SplineSet
26 622 m 0,0,1
 26 638 26 638 55.5 646.5 c 128,-1,2
 85 655 85 655 124 655 c 0,3,4
 145 655 145 655 191 564 c 128,-1,5
 237 473 237 473 298.5 330.5 c 128,-1,6
 360 188 360 188 387 135 c 1,7,8
 398 162 398 162 474 350 c 0,9,10
 536 504 536 504 536 528 c 3,11,12
 536 536 536 536 526 568 c 0,13,14
 515 600 515 600 515 630 c 0,15,16
 515 652 515 652 581 652 c 0,17,18
 615 652 615 652 615 622 c 0,19,20
 615 565 615 565 507.5 264 c 128,-1,21
 400 -37 400 -37 368 -37 c 0,22,23
 344 -37 344 -37 274 115 c 0,24,25
 218 239 218 239 168 360 c 0,26,27
 118 482 118 482 106 510 c 0,28,29
 83 565 83 565 53 589 c 0,30,31
 26 611 26 611 26 622 c 0,0,1
EndSplineSet
Validated: 1
EndChar

StartChar: W
Encoding: 87 87 57
Width: 974
VWidth: -14
Flags: W
VStem: 902 72<511.213 636.677>
DStem2: 359 138 423 122 0.342494 0.93952<1.61655 350.845> 658 392 533 448 0.389368 -0.921082<-100.252 281.248>
LayerCount: 2
Back
Fore
SplineSet
902 530 m 0,0,1
 902 532 902 532 892 564 c 128,-1,2
 882 596 882 596 882 626 c 0,3,4
 882 649 882 649 943 649 c 0,5,6
 974 649 974 649 974 620 c 0,7,8
 974 563 974 563 877.5 262 c 128,-1,9
 781 -39 781 -39 752 -39 c 0,10,11
 722 -37 722 -37 621 221 c 0,12,13
 564 370 564 370 533 448 c 1,14,15
 483 281 483 281 423 122 c 128,-1,16
 363 -37 363 -37 341 -37 c 0,17,18
 302 -35 302 -35 107 512 c 0,19,20
 87 567 87 567 46 604 c 0,21,22
 35 614 35 614 35 622 c 0,23,24
 35 638 35 638 62 646.5 c 128,-1,25
 89 655 89 655 125 655 c 0,26,27
 145 655 145 655 185.5 565.5 c 128,-1,28
 226 476 226 476 280.5 333 c 128,-1,29
 335 190 335 190 359 138 c 1,30,31
 428 331 428 331 457.5 409 c 128,-1,32
 487 487 487 487 505 544 c 0,33,34
 521 594 521 594 542 640 c 1,35,36
 572 594 572 594 658 392 c 0,37,38
 742 196 742 196 770 134 c 1,39,40
 902 499 902 499 902 530 c 0,0,1
EndSplineSet
Validated: 1
EndChar

StartChar: X
Encoding: 88 88 58
Width: 614
VWidth: -15
Flags: W
HStem: -18 78<49.8203 127.389> 546 100<72.2852 129.73>
DStem2: 331 415 115 546 0.49885 -0.866688<-228.335 0 54.3523 91.8882 139.199 357.546> 184 147 214.5 60 0.466974 0.884271<-89.6742 135.853 305.63 493.335>
LayerCount: 2
Back
Fore
SplineSet
570 91 m 5,0,1
 597 73 597 73 597 64 c 4,2,3
 597 48 597 48 569.5 15.5 c 132,-1,4
 542 -17 542 -17 509 -17 c 7,5,6
 449 -17 449 -17 412 30 c 4,7,8
 388 60 388 60 306 240 c 5,9,10
 269 138 269 138 214.5 60 c 132,-1,11
 160 -18 160 -18 115 -18 c 4,12,13
 82 -18 82 -18 58 -2 c 132,-1,14
 34 14 34 14 34 30 c 4,15,16
 34 55 34 55 84 60 c 4,17,18
 127 65 127 65 184 147 c 4,19,20
 234 219 234 219 266 294 c 5,21,22
 249 329 249 329 196 421 c 132,-1,23
 143 513 143 513 115 546 c 5,24,25
 34 546 34 546 34 575 c 4,26,27
 34 596 34 596 67.5 621 c 132,-1,28
 101 646 101 646 120 646 c 4,29,30
 196 646 196 646 331 415 c 5,31,32
 436 643 436 643 512 643 c 4,33,34
 526 643 526 643 540 629 c 132,-1,35
 554 615 554 615 554 603 c 4,36,37
 554 576 554 576 508 552 c 4,38,39
 472 533 472 533 426 460.5 c 132,-1,40
 380 388 380 388 361 347 c 5,41,42
 498 73 498 73 515 64 c 5,43,44
 536 68 536 68 570 91 c 5,0,1
EndSplineSet
Validated: 1
EndChar

StartChar: Y
Encoding: 89 89 59
Width: 458
VWidth: -15
Flags: W
HStem: -8 56<106.543 205.35 320 400.318>
VStem: 206 114<48 332.312> 386 72<518.505 633.558>
DStem2: 160.5 576 71 551 0.464007 -0.885832<-80.3125 251.682> 281 355 320 301 0.47016 0.882581<0 266.181>
LayerCount: 2
Back
Fore
SplineSet
206 48 m 1,0,-1
 209 143 l 1,1,2
 209 209 209 209 203 299 c 1,3,4
 165 364 165 364 128 442 c 128,-1,5
 91 520 91 520 71 551 c 128,-1,6
 51 582 51 582 22 595 c 1,7,8
 22 617 22 617 52 631 c 0,9,10
 84 646 84 646 108 646 c 1,11,12
 133 624 133 624 160.5 576 c 128,-1,13
 188 528 188 528 222.5 460.5 c 128,-1,14
 257 393 257 393 281 355 c 1,15,16
 344 459 344 459 366 509 c 0,17,18
 386 553 386 553 386 587 c 3,19,20
 386 620 386 620 394 634 c 128,-1,21
 402 648 402 648 430 648 c 128,-1,22
 458 648 458 648 458 615 c 0,23,24
 458 566 458 566 434 515 c 0,25,26
 398 440 398 440 358 368 c 0,27,28
 332 320 332 320 320 301 c 1,29,-1
 315 147 l 1,30,31
 315 98 315 98 320 48 c 0,32,33
 322 47 322 47 344 45 c 0,34,35
 401 40 401 40 401 22 c 0,36,37
 401 -8 401 -8 378 -8 c 0,38,39
 369 -8 369 -8 340 -1.5 c 128,-1,40
 311 5 311 5 277 5 c 128,-1,41
 243 5 243 5 181.5 -1 c 128,-1,42
 120 -7 120 -7 117.5 -7.5 c 128,-1,43
 115 -8 115 -8 111 -8 c 0,44,45
 98 -8 98 -8 98 10 c 0,46,47
 98 42 98 42 206 48 c 1,0,-1
EndSplineSet
Validated: 1
EndChar

StartChar: Z
Encoding: 90 90 60
Width: 630
VWidth: -10
Flags: W
HStem: -14 21G<34 244> 0 114<219 551.219> 553 105<75.8516 351.927> 561 83<85.116 351.927 354.073 462> 569 82<100.812 459.666>
VStem: 548 66<-120.277 -7> 548 50<-144.155 -8.87036>
LayerCount: 2
Back
Fore
SplineSet
533 651 m 3,0,1
 561 651 561 651 561 621 c 3,2,3
 561 604 561 604 476 478 c 0,4,5
 404 371 404 371 219 114 c 1,6,7
 476 114 476 114 532 108 c 0,8,9
 614 99 614 99 614 73 c 0,10,11
 614 -26 614 -26 598 -100 c 0,12,13
 586 -149 586 -149 562 -149 c 0,14,15
 548 -149 548 -149 548 -108 c 128,-1,16
 548 -67 548 -67 553 -7 c 1,17,18
 266 0 266 0 244 0 c 2,19,-1
 34 -14 l 1,20,21
 34 20 34 20 350 418 c 0,22,23
 456 551 456 551 462 561 c 1,24,25
 387 569 387 569 353 569 c 132,-1,26
 319 569 319 569 243 561 c 128,-1,27
 167 553 167 553 112 553 c 0,28,29
 90 553 90 553 65 518 c 0,30,31
 59 510 59 510 43 481 c 1,32,33
 43 658 43 658 83 658 c 3,34,35
 150 658 150 658 308 651 c 128,-1,36
 466 644 466 644 483.5 644 c 131,-1,37
 501 644 501 644 510 647 c 0,38,39
 519 651 519 651 533 651 c 3,0,1
EndSplineSet
Validated: 8388609
EndChar

StartChar: degree
Encoding: 176 176 70
Width: 426
VWidth: -29
Flags: W
HStem: 363 51<128.825 191.934> 506 50<104.439 170.387>
VStem: 32 70<441.061 504.09> 192 72<414.331 484.603>
LayerCount: 2
Back
Fore
SplineSet
172 482 m 128,-1,1
 152 506 152 506 131.5 506 c 128,-1,2
 111 506 111 506 106.5 503 c 128,-1,3
 102 500 102 500 102 489 c 0,4,5
 102 462 102 462 127 438 c 128,-1,6
 152 414 152 414 172 414 c 128,-1,7
 192 414 192 414 192 436 c 135,-1,0
 192 458 192 458 172 482 c 128,-1,1
237 394.5 m 128,-1,9
 210 363 210 363 160.5 363 c 128,-1,10
 111 363 111 363 71.5 393.5 c 128,-1,11
 32 424 32 424 32 466.5 c 128,-1,12
 32 509 32 509 64 532.5 c 128,-1,13
 96 556 96 556 143 556 c 128,-1,14
 190 556 190 556 227 527.5 c 128,-1,15
 264 499 264 499 264 474 c 0,16,8
 264 426 264 426 237 394.5 c 128,-1,9
EndSplineSet
Validated: 1
EndChar

StartChar: asciicircum
Encoding: 94 94 74
Width: 442
VWidth: -28
Flags: W
HStem: 364 32<366.715 397.349>
DStem2: 102.5 461.5 148.5 427.5 0.872779 0.488115<-15.5651 109.142>
LayerCount: 2
Back
Fore
SplineSet
216 532 m 1,0,1
 254 514 254 514 286 488 c 0,2,3
 318 464 318 464 333 444 c 0,4,5
 370 396 370 396 414 396 c 1,6,7
 414 364 414 364 355 364 c 0,8,9
 318 364 318 364 254 430 c 0,10,11
 225 460 225 460 213 468 c 1,12,13
 176 449 176 449 148.5 427.5 c 128,-1,14
 121 406 121 406 120 398 c 2,15,16
 111 373 l 1,17,18
 62 366 62 366 59 366 c 0,19,20
 40 366 40 366 40 384 c 0,21,22
 41 415 41 415 102.5 461.5 c 128,-1,23
 164 508 164 508 216 532 c 1,0,1
EndSplineSet
Validated: 1
EndChar

StartChar: acute
Encoding: 180 180 86
Width: 208
VWidth: -34
Flags: W
HStem: 401 208
VStem: 15 178
LayerCount: 2
Back
Fore
SplineSet
153 609 m 0,0,1
 193 609 193 609 193 577 c 0,2,3
 193 548 193 548 126.5 474.5 c 128,-1,4
 60 401 60 401 15 401 c 1,5,6
 40 488 40 488 82 548 c 4,7,8
 126 609 126 609 153 609 c 0,0,1
EndSplineSet
Validated: 1
EndChar

StartChar: grave
Encoding: 96 96 87
Width: 208
VWidth: -34
Flags: W
HStem: 401 208
VStem: 15 178
LayerCount: 2
Back
Fore
SplineSet
15 577 m 0,0,1
 15 609 15 609 55 609 c 0,2,3
 84 609 84 609 130.5 543 c 128,-1,4
 177 477 177 477 193 401 c 1,5,6
 149 401 149 401 82 474.5 c 132,-1,7
 15 548 15 548 15 577 c 0,0,1
EndSplineSet
Validated: 1
EndChar

StartChar: dotlessi
Encoding: 305 305 104
Width: 234
VWidth: -4
Flags: W
HStem: -18 21G<59.9353 78.5>
VStem: 60 93<66 321.091>
LayerCount: 2
Back
Fore
SplineSet
224 75 m 0,0,1
 224 58 224 58 160.5 20 c 128,-1,2
 97 -18 97 -18 60 -18 c 1,3,-1
 59 295 l 2,4,5
 59 321 59 321 34.5 326 c 128,-1,6
 10 331 10 331 10 347 c 3,7,8
 10 362 10 362 66 378 c 0,9,10
 120 394 120 394 153 397 c 1,11,-1
 153 66 l 1,12,13
 179 76 179 76 206 103 c 1,14,15
 224 81 224 81 224 75 c 0,0,1
EndSplineSet
Validated: 1
EndChar

StartChar: asciitilde
Encoding: 126 126 112
Width: 471
VWidth: -14
Flags: W
HStem: 236 78<275.98 401.105> 302 77<78.2579 217.861>
LayerCount: 2
Back
Fore
SplineSet
155 379 m 0,0,1
 200 379 200 379 258 346 c 0,2,3
 313 314 313 314 336 314 c 0,4,5
 382 314 382 314 416 334 c 0,6,7
 454 355 454 355 459 369 c 1,8,9
 458 288 458 288 388 250 c 0,10,11
 362 236 362 236 323 236 c 0,12,13
 274 236 274 236 233 269 c 128,-1,14
 192 302 192 302 154 302 c 0,15,16
 125 302 125 302 91 286 c 0,17,18
 56 270 56 270 4 227 c 1,19,20
 8 301 8 301 49 340 c 0,21,22
 89 379 89 379 155 379 c 0,0,1
EndSplineSet
Validated: 8388609
EndChar

StartChar: Ccedilla
Encoding: 199 199 119
Width: 662
VWidth: -12
Flags: W
HStem: -198 54<313.923 392.7> -26 62<349.25 405.995> 593 65<240.734 357.444>
VStem: 43 101<233.909 453.71> 408 86<-129.03 -25.5698> 588 38<-69 25>
LayerCount: 2
Back
Fore
SplineSet
333 -26 m 0,0,1
 238 -26 238 -26 170 24 c 0,2,3
 43 118 43 118 43 329 c 3,4,5
 43 498 43 498 168 606 c 0,6,7
 228 658 228 658 299.5 658 c 131,-1,8
 371 658 371 658 413 646 c 128,-1,9
 455 634 455 634 496 590 c 1,10,11
 508 600 508 600 532 622 c 0,12,13
 567 655 567 655 587 655 c 0,14,15
 604 655 604 655 604 626 c 0,16,17
 604 586 604 586 477 484 c 1,18,19
 449 519 449 519 385 556 c 128,-1,20
 321 593 321 593 287 593 c 0,21,22
 253 592 253 592 219 548 c 0,23,24
 144 450 144 450 144 335 c 0,25,26
 144 214 144 214 253 122 c 0,27,28
 354 36 354 36 436 36 c 0,29,30
 456 36 456 36 540 98 c 0,31,32
 606 147 606 147 627 159 c 1,33,-1
 626 -69 l 1,34,35
 623 -72 623 -72 619 -76 c 0,36,37
 605 -91 605 -91 595 -91 c 1,38,39
 588 -87 588 -87 588 -79 c 0,40,41
 584 3 584 3 582 25 c 1,42,43
 528 -9 528 -9 483 -16 c 1,44,45
 494 -32 494 -32 494 -58 c 0,46,47
 494 -115 494 -115 454.5 -156.5 c 128,-1,48
 415 -198 415 -198 359 -198 c 0,49,50
 326 -198 326 -198 294 -171.5 c 128,-1,51
 262 -145 262 -145 262 -111 c 0,52,53
 262 -95 262 -95 277.5 -95 c 128,-1,54
 293 -95 293 -95 312 -119.5 c 128,-1,55
 331 -144 331 -144 335 -144 c 0,56,57
 408 -144 408 -144 408 -71 c 0,58,59
 408 -55 408 -55 402 -25 c 9,60,61
 396 -26 396 -26 333 -26 c 0,0,1
EndSplineSet
Validated: 1
EndChar

StartChar: ccedilla
Encoding: 231 231 120
Width: 410
VWidth: -3
Flags: W
HStem: -153 54<136.565 220.002> -19 67<195.289 239> 310 73<160.558 274.363>
VStem: 30 102<109.219 278.232> 239 85<-79.9958 -18>
LayerCount: 2
Back
Fore
SplineSet
216 -19 m 16,0,1
 131 -19 131 -19 80.5 41.5 c 128,-1,2
 30 102 30 102 30 192.5 c 128,-1,3
 30 283 30 283 83 333 c 128,-1,4
 136 383 136 383 231 383 c 0,5,6
 295 383 295 383 334.5 362.5 c 128,-1,7
 374 342 374 342 374 317 c 0,8,9
 374 290 374 290 345 271 c 0,10,11
 336 265 336 265 316 253 c 1,12,13
 292 274 292 274 280 284 c 0,14,15
 248 310 248 310 198 310 c 3,16,17
 172 310 172 310 152 275 c 0,18,19
 132 239 132 239 132 183 c 3,20,21
 132 128 132 128 172 88 c 0,22,23
 214 48 214 48 273 48 c 0,24,25
 303 48 303 48 322.5 78.5 c 128,-1,26
 342 109 342 109 355 109 c 0,27,28
 374 109 374 109 384 97 c 1,29,30
 352 34 352 34 320 10 c 1,31,32
 324 -1 324 -1 324 -14 c 0,33,34
 324 -71 324 -71 285 -112 c 128,-1,35
 246 -153 246 -153 186 -153 c 0,36,37
 150 -153 150 -153 119 -127 c 128,-1,38
 88 -101 88 -101 88 -66 c 0,39,40
 88 -50 88 -50 101.5 -50 c 128,-1,41
 115 -50 115 -50 134.5 -74.5 c 128,-1,42
 154 -99 154 -99 159 -99 c 0,43,44
 239 -99 239 -99 239 -18 c 9,45,46
 236 -19 236 -19 216 -19 c 16,0,1
EndSplineSet
Validated: 1
EndChar

StartChar: zero
Encoding: 48 48 121
Width: 454
VWidth: -14
Flags: W
HStem: -6 70<195.679 285.426> 560 74<172.043 260.13>
VStem: 40 112<149.676 476.567> 313 113<133.543 467.654>
LayerCount: 2
Back
Fore
SplineSet
163 511.5 m 128,-1,1
 153 463 153 463 152 383 c 3,2,3
 152 144 152 144 178 107 c 0,4,5
 207 64 207 64 255 64 c 0,6,7
 284 64 284 64 298.5 117 c 128,-1,8
 313 170 313 170 313 244 c 0,9,10
 313 409 313 409 290 484.5 c 128,-1,11
 267 560 267 560 207 560 c 0,12,0
 173 560 173 560 163 511.5 c 128,-1,1
234 -6 m 3,13,14
 176 -6 176 -6 130 40 c 0,15,16
 40 132 40 132 40 294 c 0,17,18
 40 530 40 530 143 606 c 0,19,20
 182 634 182 634 239 634 c 128,-1,21
 296 634 296 634 341 584 c 0,22,23
 426 490 426 490 426 299 c 0,24,25
 426 158 426 158 378.5 76 c 128,-1,26
 331 -6 331 -6 234 -6 c 3,13,14
EndSplineSet
Validated: 1
EndChar

StartChar: one
Encoding: 49 49 122
Width: 392
VWidth: -14
Flags: W
HStem: -7 65<43.4907 163 260 369.112> -7 52<34.2034 154.36 262.549 377.5>
VStem: 163 97<58 534.998>
LayerCount: 2
Back
Fore
SplineSet
191 0 m 1,0,-1
 51 -7 l 2,1,2
 34 -7 34 -7 34 16.5 c 128,-1,3
 34 40 34 40 43 45 c 0,4,5
 58 52 58 52 163 58 c 1,6,-1
 162 525 l 2,7,8
 162 535 162 535 152.5 535 c 128,-1,9
 143 535 143 535 101 521.5 c 128,-1,10
 59 508 59 508 51 508 c 128,-1,11
 43 508 43 508 41 510 c 0,12,13
 36 515 36 515 36 553 c 0,14,15
 36 563 36 563 121.5 597 c 128,-1,16
 207 631 207 631 259 646 c 1,17,-1
 260 56 l 1,18,19
 342 56 342 56 370 43 c 0,20,21
 378 39 378 39 378 23 c 0,22,23
 378 -9 378 -9 349 -9 c 1,24,-1
 191 0 l 1,0,-1
EndSplineSet
Validated: 8388609
EndChar

StartChar: two
Encoding: 50 50 123
Width: 539
VWidth: -14
Flags: W
HStem: -15 21G<75 114 469 485.5> -4 104<219.617 453.273> 542 101<191.539 316.988>
VStem: 64 85<387.129 493.898> 347 100<394.455 513.374> 457 44<107.469 174.296>
DStem2: 177.5 169 218 100 0.594843 0.803842<-31.3739 307.579>
LayerCount: 2
Back
Fore
SplineSet
457 137 m 0,0,1
 457 181 457 181 477 181 c 0,2,3
 486 181 486 181 493.5 174.5 c 128,-1,4
 501 168 501 168 501 156 c 0,5,6
 501 -15 501 -15 470 -15 c 0,7,8
 468 -15 468 -15 381.5 -9.5 c 128,-1,9
 295 -4 295 -4 235.5 -4 c 128,-1,10
 176 -4 176 -4 52 -17 c 1,11,12
 98 63 98 63 177.5 169 c 128,-1,13
 257 275 257 275 302 345 c 128,-1,14
 347 415 347 415 347 456 c 128,-1,15
 347 497 347 497 318 519.5 c 128,-1,16
 289 542 289 542 249.5 542 c 128,-1,17
 210 542 210 542 184.5 513 c 128,-1,18
 159 484 159 484 149 449 c 0,19,20
 122 356 122 356 97 356 c 0,21,22
 80 356 80 356 72 368.5 c 128,-1,23
 64 381 64 381 64 394 c 0,24,25
 64 483 64 483 124 563 c 128,-1,26
 184 643 184 643 259 643 c 128,-1,27
 334 643 334 643 390.5 595 c 128,-1,28
 447 547 447 547 447 470 c 0,29,30
 447 403 447 403 336 253 c 0,31,32
 296 199 296 199 218 100 c 1,33,34
 436 102 436 102 442 107 c 0,35,36
 457 122 457 122 457 137 c 0,0,1
EndSplineSet
Validated: 8388609
EndChar

StartChar: three
Encoding: 51 51 124
Width: 475
VWidth: -13
Flags: W
HStem: -25 71<196.476 309.013> 530 90<112 294>
VStem: 77 35<486.269 530> 334 113<71.9686 234.597>
DStem2: 72 78 81 20 0.302244 0.953231<-100.327 -21.5002> 294 530 269 388 0.577236 0.816577<-130.385 0>
LayerCount: 2
Back
Fore
SplineSet
92 486 m 0,0,1
 82 486 82 486 77 515 c 128,-1,2
 72 544 72 544 72 570 c 2,3,-1
 72 620 l 1,4,-1
 433 620 l 1,5,-1
 269 388 l 1,6,7
 320 374 320 374 373 336 c 0,8,9
 447 283 447 283 447 185 c 128,-1,10
 447 87 447 87 399 31 c 128,-1,11
 351 -25 351 -25 257 -25 c 0,12,13
 199 -25 199 -25 114 34 c 0,14,15
 91 50 91 50 90 50 c 0,16,17
 86 43 86 43 81 20 c 0,18,19
 69 -36 69 -36 57 -36 c 0,20,21
 41 -36 41 -36 41 -18 c 128,-1,22
 41 0 41 0 72 78 c 1,23,-1
 98 160 l 1,24,25
 132 116 132 116 182 78 c 0,26,27
 224 46 224 46 260 46 c 3,28,29
 334 46 334 46 334 171 c 0,30,31
 334 212 334 212 306 242 c 0,32,33
 252 299 252 299 132 312 c 1,34,-1
 294 530 l 1,35,-1
 112 530 l 1,36,37
 112 486 112 486 92 486 c 0,0,1
EndSplineSet
Validated: 1
EndChar

StartChar: four
Encoding: 52 52 125
Width: 513
VWidth: -14
Flags: W
HStem: -8 49<188.051 294.083 394.001 489.357> 198 87<144 294> 209 84<392 427.079> 592 38<392 457.929>
VStem: 294 98<51.6768 204 293 507>
LayerCount: 2
Back
Fore
SplineSet
144 285 m 1,0,-1
 294 289 l 1,1,-1
 294 507 l 1,2,3
 228 390 228 390 144 285 c 1,0,-1
279 -2 m 128,-1,5
 228 -8 228 -8 207 -8 c 128,-1,6
 186 -8 186 -8 186 7 c 128,-1,7
 186 22 186 22 200 41 c 1,8,9
 287 41 287 41 295 54 c 1,10,-1
 294 204 l 1,11,-1
 42 198 l 1,12,-1
 42 273 l 1,13,14
 108 326 108 326 164 414 c 0,15,16
 219 500 219 500 270 630 c 1,17,-1
 385 630 l 2,18,19
 458 630 458 630 458 610 c 0,20,21
 458 600 458 600 433.5 596 c 128,-1,22
 409 592 409 592 392 592 c 1,23,-1
 392 293 l 1,24,25
 416 295 416 295 430.5 320.5 c 128,-1,26
 445 346 445 346 473 346 c 1,27,28
 473 248 473 248 451 230 c 128,-1,29
 429 212 429 212 392 209 c 1,30,-1
 393 59 l 1,31,32
 414 46 414 46 486 46 c 1,33,34
 494 22 494 22 494 14 c 128,-1,35
 494 6 494 6 489.5 -1 c 128,-1,36
 485 -8 485 -8 469 -8 c 128,-1,37
 453 -8 453 -8 407.5 -2 c 128,-1,38
 362 4 362 4 346 4 c 128,-1,4
 330 4 330 4 279 -2 c 128,-1,5
EndSplineSet
Validated: 8388609
EndChar

StartChar: five
Encoding: 53 53 126
Width: 439
VWidth: -14
Flags: W
HStem: -8 63<134.312 263.2> 324 97<144.1 296> 557 67<142.83 305.751>
VStem: 40 103<397 549.125> 310 91<123.014 276.324>
LayerCount: 2
Back
Fore
SplineSet
40 484 m 1,0,-1
 42 599 l 1,1,2
 101 624 101 624 296 624 c 0,3,4
 359 624 359 624 376 586 c 0,5,6
 384 568 384 568 384 543 c 0,7,8
 384 493 384 493 359 493 c 0,9,10
 344 493 344 493 316 525 c 0,11,12
 290 557 290 557 226 557 c 0,13,14
 192 557 192 557 141 543 c 1,15,16
 142 523 142 523 142 490 c 0,17,18
 142 405 142 405 143 397 c 1,19,20
 192 421 192 421 270 421 c 0,21,22
 322 421 322 421 361.5 366.5 c 128,-1,23
 401 312 401 312 401 243 c 0,24,25
 401 136 401 136 343.5 64 c 128,-1,26
 286 -8 286 -8 206 -8 c 0,27,28
 154 -8 154 -8 97 11.5 c 128,-1,29
 40 31 40 31 40 51.5 c 128,-1,30
 40 72 40 72 52 104 c 128,-1,31
 64 136 64 136 77 155 c 1,32,33
 104 110 104 110 113 98 c 0,34,35
 144 56 144 56 213 55 c 0,36,37
 253 55 253 55 281.5 99.5 c 128,-1,38
 310 144 310 144 310 188 c 0,39,40
 310 324 310 324 181 324 c 0,41,42
 112 324 112 324 42 258 c 1,43,44
 40 332 40 332 40 484 c 1,0,-1
EndSplineSet
Validated: 1
EndChar

StartChar: six
Encoding: 54 54 127
Width: 467
VWidth: -13
Flags: W
HStem: -13 69<190.142 307.202> 340 63<189.933 298.904> 569 67<201.107 324.808>
VStem: 50 96<106.883 365.884> 337 102<91.3093 294.817>
LayerCount: 2
Back
Fore
SplineSet
244 636 m 3,0,1
 328 636 328 636 375 609 c 128,-1,2
 422 582 422 582 422 555 c 128,-1,3
 422 528 422 528 411.5 513.5 c 128,-1,4
 401 499 401 499 385 499 c 0,5,6
 360 499 360 499 336 534 c 128,-1,7
 312 569 312 569 253 569 c 0,8,9
 226 568 226 568 214 560 c 0,10,11
 174 533 174 533 160 368 c 1,12,13
 198 403 198 403 278 403 c 0,14,15
 334 403 334 403 372 369 c 0,16,17
 439 309 439 309 439 177 c 0,18,19
 439 111 439 111 389 49 c 128,-1,20
 339 -13 339 -13 255 -13 c 0,21,22
 147 -13 147 -13 96 62 c 0,23,24
 50 131 50 131 50 221 c 0,25,26
 50 416 50 416 98.5 526 c 128,-1,27
 147 636 147 636 244 636 c 3,0,1
175 301.5 m 128,-1,29
 146 263 146 263 146 196.5 c 131,-1,30
 146 130 146 130 175 93 c 128,-1,31
 204 56 204 56 259 56 c 0,32,33
 299 56 299 56 318 94 c 128,-1,34
 337 132 337 132 337 193 c 128,-1,35
 337 254 337 254 314 297 c 128,-1,36
 291 340 291 340 247.5 340 c 128,-1,28
 204 340 204 340 175 301.5 c 128,-1,29
EndSplineSet
Validated: 1
EndChar

StartChar: seven
Encoding: 55 55 128
Width: 495
VWidth: -14
Flags: W
HStem: -15 21G<41 54 358 385> -4 48<58.0167 153.836> 547 81<161.98 339.648>
DStem2: 166 81 260 66 0.369033 0.929416<15.948 477.527>
LayerCount: 2
Back
Fore
SplineSet
74 628 m 1,0,1
 95 621 95 621 264 621 c 3,2,3
 386 621 386 621 467 634 c 1,4,5
 467 581 467 581 449 542 c 0,6,7
 442 526 442 526 354.5 305 c 128,-1,8
 267 84 267 84 260 66 c 1,9,10
 260 54 260 54 322 44 c 0,11,12
 346 40 346 40 365.5 25.5 c 128,-1,13
 385 11 385 11 385 -15 c 1,14,15
 331 -13 331 -13 289 -3.5 c 128,-1,16
 247 6 247 6 225.5 6 c 128,-1,17
 204 6 204 6 135.5 -4 c 128,-1,18
 67 -14 67 -14 41 -15 c 1,19,20
 41 12 41 12 57.5 26.5 c 128,-1,21
 74 41 74 41 95 44 c 0,22,23
 154 52 154 52 166 81 c 0,24,25
 192 140 192 140 266.5 330.5 c 128,-1,26
 341 521 341 521 341 525.5 c 128,-1,27
 341 530 341 530 334.5 538.5 c 128,-1,28
 328 547 328 547 316 547 c 0,29,30
 207 545 207 545 133 514 c 0,31,32
 82 493 82 493 70 459 c 1,33,34
 55 459 55 459 43 531 c 1,35,36
 43 576 43 576 52 602 c 128,-1,37
 61 628 61 628 74 628 c 1,0,1
EndSplineSet
Validated: 8388609
EndChar

StartChar: eight
Encoding: 56 56 129
Width: 492
VWidth: -14
Flags: W
HStem: -22 61<193.878 338.61> 570 63<192.971 304.733>
VStem: 41 111<82.3618 223.075> 79 91<423.647 546.826> 323 86<400.574 551.539> 375 89<77.272 210.082>
DStem2: 340 342 250 287 0.746445 -0.665447<1.03286 146.626>
LayerCount: 2
Back
Fore
SplineSet
170 485 m 0,0,1
 170 416 170 416 263 372 c 1,2,3
 290 377 290 377 310 416 c 0,4,5
 323 442 323 442 323 487 c 0,6,7
 323 570 323 570 247 570 c 0,8,9
 214 570 214 570 192 547.5 c 128,-1,10
 170 525 170 525 170 485 c 0,0,1
375 160 m 3,11,12
 374 188 374 188 346 218 c 0,13,14
 306 260 306 260 250 287 c 1,15,16
 223 278 223 278 187.5 240 c 128,-1,17
 152 202 152 202 152 153.5 c 128,-1,18
 152 105 152 105 182 72 c 128,-1,19
 212 39 212 39 267 39 c 128,-1,20
 322 39 322 39 348.5 71.5 c 128,-1,21
 375 104 375 104 375 160 c 3,11,12
79 489 m 3,22,23
 79 561 79 561 132 597 c 128,-1,24
 185 633 185 633 255.5 633 c 128,-1,25
 326 633 326 633 367.5 590 c 128,-1,26
 409 547 409 547 409 490.5 c 128,-1,27
 409 434 409 434 396 399.5 c 128,-1,28
 383 365 383 365 340 342 c 1,29,30
 400 304 400 304 432 263 c 128,-1,31
 464 222 464 222 464 152.5 c 128,-1,32
 464 83 464 83 403 30.5 c 128,-1,33
 342 -22 342 -22 248.5 -22 c 128,-1,34
 155 -22 155 -22 98 24 c 128,-1,35
 41 70 41 70 41 160 c 0,36,37
 41 211 41 211 77.5 253.5 c 128,-1,38
 114 296 114 296 177 323 c 1,39,40
 121 354 121 354 100 394 c 128,-1,41
 79 434 79 434 79 489 c 3,22,23
EndSplineSet
Validated: 8388609
EndChar

StartChar: nine
Encoding: 57 57 130
Width: 459
VWidth: -13
Flags: W
HStem: -12 59<181.255 297.676> 237 62<179.445 289.797> 566 64<179.498 294.367>
VStem: 50 101<328.189 522.275> 329 102<133.989 499.658>
LayerCount: 2
Back
Fore
SplineSet
222 -12 m 0,0,1
 159 -12 159 -12 106.5 20.5 c 128,-1,2
 54 53 54 53 54 78.5 c 128,-1,3
 54 104 54 104 72.5 125 c 128,-1,4
 91 146 91 146 104 146 c 0,5,6
 122 146 122 146 157 96.5 c 128,-1,7
 192 47 192 47 234 47 c 4,8,9
 293 47 293 47 308 87 c 0,10,11
 332 151 332 151 332 284 c 1,12,13
 274 237 274 237 222 237 c 0,14,15
 137 237 137 237 93.5 286.5 c 128,-1,16
 50 336 50 336 50 417.5 c 128,-1,17
 50 499 50 499 96.5 564.5 c 128,-1,18
 143 630 143 630 225 630 c 0,19,20
 326 630 326 630 378.5 562 c 128,-1,21
 431 494 431 494 431 321 c 128,-1,22
 431 148 431 148 380.5 68 c 128,-1,23
 330 -12 330 -12 222 -12 c 0,0,1
329 432 m 3,24,25
 329 566 329 566 232 566 c 0,26,27
 151 566 151 566 151 436 c 0,28,29
 151 334 151 334 192 310 c 0,30,31
 211 299 211 299 244.5 299 c 128,-1,32
 278 299 278 299 303.5 338.5 c 128,-1,33
 329 378 329 378 329 432 c 3,24,25
EndSplineSet
Validated: 1
EndChar

StartChar: underscore
Encoding: 95 95 131
Width: 541
VWidth: 13
Flags: W
HStem: -31 83<20.3453 477.746> -7 64<18.9648 198.406>
LayerCount: 2
Back
Fore
SplineSet
8 -7 m 1,0,1
 8 4 8 4 16 27 c 128,-1,2
 24 50 24 50 31 57 c 1,3,4
 40 57 40 57 82 56 c 0,5,6
 166 52 166 52 295 52 c 0,7,8
 428 52 428 52 484 55 c 0,9,10
 522 57 522 57 524 57 c 1,11,12
 524 10 524 10 520.5 5 c 128,-1,13
 517 0 517 0 481 -8 c 0,14,15
 377 -31 377 -31 258.5 -31 c 128,-1,16
 140 -31 140 -31 8 -7 c 1,0,1
EndSplineSet
Validated: 8388609
EndChar

StartChar: equal
Encoding: 61 61 132
Width: 569
VWidth: -10
Flags: W
HStem: 140 84<52.6924 509.969> 149 80<38.6836 266.109 307.88 527.759> 284 84<61.75 517.969> 292 82<38.79 273.434 314.88 523.625>
LayerCount: 2
Back
Fore
SplineSet
18 149 m 1,0,1
 22 171 22 171 41 229 c 1,2,3
 56 224 56 224 301 224 c 1,4,-1
 535 229 l 1,5,6
 535 190 535 190 530.5 177.5 c 128,-1,7
 526 165 526 165 510 149 c 1,8,-1
 508 149 l 1,9,10
 397 140 397 140 305 140 c 0,11,12
 123 140 123 140 18 149 c 1,0,1
518 292 m 1,13,-1
 516 292 l 1,14,15
 404 284 404 284 312 284 c 0,16,17
 176 284 176 284 24 292 c 1,18,19
 26 306 26 306 34 338 c 0,20,21
 37 350 37 350 49 374 c 1,22,23
 73 368 73 368 309 368 c 1,24,-1
 542 374 l 1,25,26
 542 316 542 316 518 292 c 1,13,-1
EndSplineSet
Validated: 8388609
EndChar

StartChar: hyphen
Encoding: 45 45 133
Width: 314
VWidth: -10
Flags: W
HStem: 218 83<23.3369 277.573> 227 83<17.6641 165.224 169.503 183.224 187.503 279.217>
VStem: 10 284
LayerCount: 2
Back
Fore
SplineSet
294 309 m 1,0,1
 294 263 294 263 276 226 c 1,2,3
 216 218 216 218 168 218 c 0,4,5
 79 218 79 218 10 227 c 1,6,7
 10 277 10 277 28 310 c 1,8,9
 97 301 97 301 186 301 c 0,10,11
 234 301 234 301 294 309 c 1,0,1
EndSplineSet
Validated: 8388609
EndChar

StartChar: plus
Encoding: 43 43 134
Width: 448
VWidth: -4
Flags: W
HStem: -8 21G<193.875 208> 156 64<30.2861 199 268 413.243>
VStem: 193 70<-0.133545 152 216 372.343>
LayerCount: 2
Back
Fore
SplineSet
262 381 m 1,0,1
 267 348 267 348 268 216 c 1,2,-1
 420 220 l 1,3,4
 420 201 420 201 414.5 182 c 128,-1,5
 409 163 409 163 399 156 c 1,6,7
 336 153 336 153 268 152 c 1,8,-1
 263 13 l 1,9,10
 254 3 254 3 234 -2 c 0,11,12
 223 -5 223 -5 193 -8 c 1,13,-1
 200 152 l 1,14,-1
 21 156 l 1,15,16
 21 170 21 170 29 194 c 0,17,18
 36 214 36 214 40 220 c 1,19,20
 47 220 47 220 199 216 c 1,21,-1
 193 361 l 1,22,23
 195 366 195 366 218.5 373.5 c 128,-1,24
 242 381 242 381 262 381 c 1,0,1
EndSplineSet
Validated: 1
EndChar

StartChar: exclam
Encoding: 33 33 135
Width: 226
VWidth: -14
Flags: W
HStem: -34 148<72.4531 150.258>
VStem: 34 164<9.34961 72.168> 43 122<286.971 621.875>
LayerCount: 2
Back
Fore
SplineSet
43 515 m 0
 43 643 43 643 104 643 c 0
 165 643 165 643 165 521 c 3
 165 400 165 400 152 280 c 0
 138 160 138 160 113 160 c 0
 88 160 88 160 66 286 c 0
 44 412 44 412 43 515 c 0
EndSplineSet
Refer: 24 46 N 1 0 0 1 -10 -17 2
Validated: 8388609
EndChar

StartChar: bar
Encoding: 124 124 136
Width: 144
VWidth: -3
Flags: W
VStem: 40 80<-142.884 211.385 417.027 746.805> 47 81<-78.76 679.754>
LayerCount: 2
Back
Fore
SplineSet
39 742 m 1,0,1
 83 774 83 774 119 774 c 1,2,-1
 128 311 l 1,3,-1
 120 -124 l 1,4,5
 104 -144 104 -144 73 -154 c 0,6,7
 58 -159 58 -159 40 -160 c 1,8,-1
 47 290 l 1,9,-1
 39 742 l 1,0,1
EndSplineSet
Validated: 8388609
EndChar

StartChar: slash
Encoding: 47 47 137
Width: 273
VWidth: -14
Flags: W
VStem: 185 60<590.519 675.498>
DStem2: 29 -32 89 -98 0.202795 0.979221<-29.1041 572.161>
LayerCount: 2
Back
Fore
SplineSet
245 637 m 0,0,1
 245 628 245 628 172 278 c 0,2,3
 99 -74 99 -74 89 -98 c 1,4,5
 65 -86 65 -86 49 -70 c 0,6,7
 41 -62 41 -62 29 -32 c 1,8,9
 40 -7 40 -7 107.5 319 c 128,-1,10
 175 645 175 645 185 705 c 1,11,12
 209 690 209 690 224 674 c 0,13,14
 245 652 245 652 245 637 c 0,0,1
EndSplineSet
Validated: 1
EndChar

StartChar: backslash
Encoding: 92 92 138
Width: 273
VWidth: -14
Flags: W
VStem: 26 61<585.874 667.182>
DStem2: 87 698 100 280 0.21501 -0.976612<164.034 411.019 745.707 766.043>
LayerCount: 2
Back
Fore
SplineSet
87 698 m 1,0,1
 97 638 97 638 165 315.5 c 128,-1,2
 233 -7 233 -7 244 -31 c 1,3,4
 221 -76 221 -76 199 -88 c 0,5,6
 185 -96 185 -96 183 -97 c 1,7,-1
 100 280 l 1,8,9
 26 621 26 621 26 633 c 0,10,11
 26 644 26 644 47 666 c 0,12,13
 65 685 65 685 87 698 c 1,0,1
EndSplineSet
Validated: 1
EndChar

StartChar: numbersign
Encoding: 35 35 139
Width: 569
VWidth: -14
Flags: W
HStem: 215 84<194 291> 221 83<38.332 90 399 524.25> 360 82<38.3125 129 230 331 436 527.988>
DStem2: 35 25 96 -45 0.256317 0.966593<-13.2643 203.55 305.601 347.902 453.051 628.604> 236 28 299 -40 0.262338 0.964976<-22.7301 193.914 304.27 344.329 451.003 621.451>
LayerCount: 2
Back
Fore
SplineSet
90 221 m 1,0,1
 21 224 21 224 18 225 c 1,2,3
 19 246 19 246 41 304 c 1,4,-1
 112 302 l 1,5,-1
 129 360 l 1,6,-1
 24 366 l 1,7,8
 25 379 25 379 34 407 c 128,-1,9
 43 435 43 435 49 444 c 1,10,11
 98 444 98 444 149 442 c 1,12,13
 201 651 l 1,14,15
 237 631 237 631 246 622 c 0,16,17
 263 604 263 604 263 580 c 1,18,19
 250 520 250 520 230 442 c 1,20,-1
 353 442 l 1,21,22
 358 460 358 460 407 657 c 1,23,24
 421 650 421 650 443 626 c 0,25,26
 462 605 462 605 467 584 c 1,27,28
 455 521 455 521 436 441 c 1,29,30
 490 443 490 443 542 445 c 1,31,32
 542 425 542 425 535 402 c 0,33,34
 523 365 523 365 516 365 c 2,35,-1
 416 360 l 1,36,-1
 399 299 l 1,37,-1
 535 304 l 1,38,39
 534 267 534 267 528 253 c 0,40,41
 518 225 518 225 508 224 c 1,42,43
 447 221 447 221 377 219 c 1,44,45
 316 1 316 1 299 -40 c 1,46,47
 272 -28 272 -28 262 -15.5 c 128,-1,48
 252 -3 252 -3 236 28 c 1,49,-1
 291 214 l 1,50,51
 200 214 200 214 170 215 c 1,52,53
 96 -45 l 1,54,55
 44 -10 44 -10 35 25 c 1,56,57
 37 29 37 29 90 221 c 1,0,1
210 360 m 1,58,-1
 194 299 l 1,59,60
 233 298 233 298 315 298 c 1,61,-1
 331 359 l 1,62,-1
 210 360 l 1,58,-1
EndSplineSet
Validated: 8388609
EndChar

StartChar: at
Encoding: 64 64 140
Width: 728
VWidth: -14
Flags: W
HStem: -31 62<312.371 506.564> 152 17<340 420> 369 47<289.002 319.438> 436 70<289.851 418.426> 577 57<251.58 429.799>
VStem: 24 123<201.456 441.05> 189 106<171.203 234.091 405.649 432.441> 432 104<345.396 421.719> 577 113<177.381 405.184>
LayerCount: 2
Back
Fore
SplineSet
413 -31 m 0,0,1
 223 -31 223 -31 123.5 56 c 128,-1,2
 24 143 24 143 24 303.5 c 128,-1,3
 24 464 24 464 119 549 c 128,-1,4
 214 634 214 634 380 634 c 0,5,6
 508 634 508 634 599 535 c 128,-1,7
 690 436 690 436 690 306 c 0,8,9
 690 135 690 135 626 52 c 128,-1,10
 562 -31 562 -31 413 -31 c 0,0,1
547 101 m 1,11,12
 505 101 505 101 445 138 c 0,13,14
 422 152 422 152 420 152 c 128,-1,15
 418 152 418 152 408 143 c 0,16,17
 360 97 360 97 284 97 c 0,18,19
 250 97 250 97 231 105 c 1,20,21
 308 31 308 31 437 31 c 0,22,23
 510 31 510 31 547 101 c 1,11,12
200 508 m 128,-1,25
 147 439 147 439 147 334.5 c 128,-1,26
 147 230 147 230 189 158 c 1,27,-1
 189 173 l 2,28,29
 189 219 189 219 227 253 c 0,30,31
 264 286 264 286 310 302 c 0,32,33
 432 343 432 343 432 372 c 0,34,35
 432 436 432 436 354 436 c 0,36,37
 303 436 303 436 289 418 c 0,38,39
 289 417 289 417 297 416 c 0,40,41
 320 413 320 413 320 396 c 0,42,43
 320 369 320 369 256 369 c 0,44,45
 232 369 232 369 210.5 382.5 c 128,-1,46
 189 396 189 396 189 421.5 c 128,-1,47
 189 447 189 447 222 468 c 0,48,49
 282 506 282 506 366 506 c 0,50,51
 447 506 447 506 503 470 c 0,52,53
 536 448 536 448 536 418 c 2,54,-1
 537 204 l 2,55,56
 537 189 537 189 572 177 c 1,57,58
 577 204 577 204 577 257 c 0,59,60
 577 407 577 407 508.5 492 c 128,-1,61
 440 577 440 577 328 577 c 0,62,24
 253 577 253 577 200 508 c 128,-1,25
340 169 m 0,63,64
 401 169 401 169 429 289 c 1,65,66
 385 276 385 276 340 250 c 128,-1,67
 295 224 295 224 295 194 c 0,68,69
 295 169 295 169 340 169 c 0,63,64
EndSplineSet
Validated: 1
EndChar

StartChar: oe
Encoding: 339 339 141
Width: 666
VWidth: 13
Flags: W
HStem: 0 62<211.787 300.247> 7 64<439.526 558.739> 304 63<138.095 236.259> 321 48<426.342 480.633>
VStem: 44 86<159.176 288.424>
DStem2: 503 262 579 250 0.887534 0.460742<-110.835 0 89.8679 129.348>
LayerCount: 2
Back
Fore
SplineSet
622 113 m 1,0,1
 620 110 620 110 613 96 c 0,2,3
 592 56 592 56 578 44 c 0,4,5
 544 10 544 10 471 7 c 0,6,7
 398 7 398 7 352 58 c 1,8,9
 311 0 311 0 237 0 c 128,-1,10
 163 0 163 0 103.5 57.5 c 128,-1,11
 44 115 44 115 44 195.5 c 128,-1,12
 44 276 44 276 92 321.5 c 128,-1,13
 140 367 140 367 223 367 c 0,14,15
 282 367 282 367 335 314 c 1,16,17
 376 369 376 369 470 369 c 3,18,19
 520 369 520 369 556 338 c 0,20,21
 571 325 571 325 585 311 c 1,22,23
 605 322 605 322 618 322 c 0,24,25
 640 322 640 322 640 292 c 0,26,27
 640 276 640 276 579 250 c 0,28,29
 466 201 466 201 407 162 c 1,30,31
 415 112 415 112 440 91.5 c 128,-1,32
 465 71 465 71 512 71 c 0,33,34
 558 71 558 71 571 97 c 128,-1,35
 584 123 584 123 597 123 c 0,36,37
 603 123 603 123 610.5 118.5 c 128,-1,38
 618 114 618 114 622 113 c 1,0,1
306 120 m 0,39,40
 306 183 306 183 267 243.5 c 128,-1,41
 228 304 228 304 190 304 c 128,-1,42
 152 304 152 304 141 293 c 128,-1,43
 130 282 130 282 130 247 c 0,44,45
 130 181 130 181 177 121.5 c 128,-1,46
 224 62 224 62 257 62 c 128,-1,47
 290 62 290 62 298 72 c 128,-1,48
 306 82 306 82 306 120 c 0,39,40
446 321 m 0,49,50
 435 321 435 321 420 285 c 128,-1,51
 405 249 405 249 402 216 c 1,52,53
 464 238 464 238 503 262 c 1,54,55
 474 321 474 321 446 321 c 0,49,50
EndSplineSet
Validated: 8388609
EndChar

StartChar: question
Encoding: 63 63 142
Width: 294
VWidth: -14
Flags: W
HStem: -34 148<62.1827 139.851> 564 69<51.9066 158.808>
VStem: 23 163<9.1106 73.6715> 70 39<161 255.439> 226 55<391.37 492.56>
LayerCount: 2
Back
Fore
SplineSet
62 304 m 1
 62 331 62 331 144 357 c 0
 174 366 174 366 200 388 c 0
 226 410 226 410 226 441 c 0
 226 472 226 472 184 518 c 0
 142 564 142 564 119 564 c 0
 116 564 116 564 98 554 c 0
 80 544 80 544 65 544 c 0
 48 544 48 544 40 558 c 0
 32 572 32 572 32 590 c 0
 32 609 32 609 49 621 c 0
 66 633 66 633 85 633 c 0
 127 632 127 632 175 606 c 0
 281 548 281 548 281 424 c 0
 281 374 281 374 254 340 c 0
 226 306 226 306 194 292 c 0
 108 255 108 255 108 224 c 2
 109 161 l 1
 70 161 l 1
 62 304 l 1
EndSplineSet
Refer: 24 46 S 1 0 0 1 -24 -15 2
Validated: 8388609
EndChar

StartChar: percent
Encoding: 37 37 143
Width: 696
VWidth: -14
Flags: W
HStem: -23 56<524.533 599.361> 236 54<466.841 551.109> 317 55<143.251 218.6> 574 56<85.7952 169.522>
VStem: 5 75<448.289 566.715> 223 78<388.192 507.342> 383 78<108.43 226.721> 429 53<582.209 602.56> 604 74<45.9072 168.746>
DStem2: 185 41 237 -36 0.40328 0.915077<-20.4627 529.722>
LayerCount: 2
Back
Fore
SplineSet
204 2 m 0,0,1
 185 32 185 32 185 41 c 1,2,3
 200 70 200 70 307 331 c 0,4,5
 386 523 386 523 429 642 c 1,6,7
 461 617 461 617 472 603 c 0,8,9
 480 589 480 589 482 564 c 0,10,11
 482 556 482 556 364 270 c 0,12,13
 253 0 253 0 237 -36 c 1,14,15
 218 -20 218 -20 204 2 c 0,0,1
646 28 m 128,-1,17
 614 -23 614 -23 550 -23 c 128,-1,18
 486 -23 486 -23 434.5 26 c 128,-1,19
 383 75 383 75 383 143.5 c 128,-1,20
 383 212 383 212 425 251 c 128,-1,21
 467 290 467 290 538 290 c 0,22,23
 589 290 589 290 633.5 243 c 128,-1,24
 678 196 678 196 678 158 c 0,25,16
 678 79 678 79 646 28 c 128,-1,17
597.5 40.5 m 128,-1,27
 604 48 604 48 604 90.5 c 128,-1,28
 604 133 604 133 573 184.5 c 128,-1,29
 542 236 542 236 510 236 c 128,-1,30
 478 236 478 236 469.5 227 c 128,-1,31
 461 218 461 218 461 189 c 0,32,33
 461 133 461 133 499.5 83 c 128,-1,34
 538 33 538 33 564.5 33 c 128,-1,26
 591 33 591 33 597.5 40.5 c 128,-1,27
268 368.5 m 128,-1,36
 235 317 235 317 170.5 317 c 128,-1,37
 106 317 106 317 55.5 366 c 128,-1,38
 5 415 5 415 5 483.5 c 128,-1,39
 5 552 5 552 46 591 c 128,-1,40
 87 630 87 630 156 630 c 0,41,42
 209 630 209 630 255 583.5 c 128,-1,43
 301 537 301 537 301 499 c 0,44,35
 301 420 301 420 268 368.5 c 128,-1,36
216.5 379.5 m 128,-1,46
 223 387 223 387 223 429.5 c 128,-1,47
 223 472 223 472 191.5 523 c 128,-1,48
 160 574 160 574 129 574 c 128,-1,49
 98 574 98 574 89 565.5 c 128,-1,50
 80 557 80 557 80 529 c 0,51,52
 80 473 80 473 118.5 422.5 c 128,-1,53
 157 372 157 372 183.5 372 c 128,-1,45
 210 372 210 372 216.5 379.5 c 128,-1,46
EndSplineSet
Validated: 8388609
EndChar

StartChar: ampersand
Encoding: 38 38 144
Width: 644
VWidth: -14
Flags: W
HStem: -30 52<142.674 269.555> 336 48<446.189 481.265 555.672 579.843> 586 51<158.104 248.288>
VStem: 15 87<66.2852 243.075> 79 69<466.957 576.022> 274 57<438.182 559.345> 489 61<278.019 332.905>
DStem2: 216 416 137 362 0.721216 -0.69271<-111.626 -19.5698 61.6626 292.076 356.152 561.013>
LayerCount: 2
Back
Fore
SplineSet
91 424 m 128,-1,1
 79 459 79 459 79 508.5 c 128,-1,2
 79 558 79 558 112 597.5 c 128,-1,3
 145 637 145 637 197 637 c 128,-1,4
 249 637 249 637 290 596.5 c 128,-1,5
 331 556 331 556 331 497 c 0,6,7
 331 456 331 456 318 428 c 128,-1,8
 305 400 305 400 265 378 c 1,9,10
 300 344 300 344 426 213 c 1,11,12
 489 311 489 311 489 320.5 c 128,-1,13
 489 330 489 330 481.5 333 c 128,-1,14
 474 336 474 336 463 336 c 128,-1,15
 452 336 452 336 446 341 c 128,-1,16
 440 346 440 346 440 361 c 0,17,18
 440 384 440 384 512.5 384 c 128,-1,19
 585 384 585 384 585 364 c 0,20,21
 585 349 585 349 580 343.5 c 128,-1,22
 575 338 575 338 568 337.5 c 128,-1,23
 561 337 561 337 555.5 333.5 c 128,-1,24
 550 330 550 330 550 320 c 128,-1,25
 550 310 550 310 525.5 264 c 128,-1,26
 501 218 501 218 469 173 c 1,27,28
 505 136 505 136 576 44 c 0,29,30
 588 30 588 30 602 28 c 0,31,32
 627 24 627 24 627 4 c 0,33,34
 627 -34 627 -34 563 -34 c 0,35,36
 520 -34 520 -34 501 -10 c 0,37,38
 444 59 444 59 406 99 c 1,39,40
 277 -30 277 -30 194 -30 c 128,-1,41
 111 -30 111 -30 63 20 c 128,-1,42
 15 70 15 70 15 159 c 0,43,44
 15 211 15 211 50.5 272 c 128,-1,45
 86 333 86 333 137 362 c 1,46,0
 103 389 103 389 91 424 c 128,-1,1
102 159 m 0,47,48
 102 97 102 97 128.5 59.5 c 128,-1,49
 155 22 155 22 202 22 c 0,50,51
 281 22 281 22 368 134 c 1,52,53
 355 148 355 148 187 316 c 1,54,55
 102 247 102 247 102 159 c 0,47,48
148 522 m 0,56,57
 148 479 148 479 216 416 c 1,58,59
 274 441 274 441 274 484.5 c 128,-1,60
 274 528 274 528 254 557 c 128,-1,61
 234 586 234 586 206 586 c 0,62,63
 148 586 148 586 148 522 c 0,56,57
EndSplineSet
Validated: 8388609
EndChar

StartChar: dollar
Encoding: 36 36 145
Width: 487
VWidth: -15
Flags: W
HStem: -18 60<217 255> 592 50<217 254>
VStem: 10 87<436.648 526.569> 165 50<-66.7871 -28 69 280 407 568 642 689.966> 255 55<-59.7324 -18 86 240 375.49 571 647 693.813> 362 98<118.95 272>
LayerCount: 2
Back
Fore
SplineSet
97 482 m 0,0,1
 97 438 97 438 168 407 c 1,2,3
 165 560 165 560 165 568 c 1,4,5
 97 519 97 519 97 482 c 0,0,1
253 668 m 2,6,7
 253 679 253 679 271.5 690.5 c 128,-1,8
 290 702 290 702 308 702 c 1,9,-1
 310 647 l 1,10,11
 354 642 354 642 404 605.5 c 128,-1,12
 454 569 454 569 454 534.5 c 128,-1,13
 454 500 454 500 444.5 486 c 128,-1,14
 435 472 435 472 418 472 c 0,15,16
 399 472 399 472 352 532 c 0,17,18
 332 558 332 558 313 571 c 1,19,20
 317 457 317 457 317 367 c 1,21,22
 460 327 460 327 460 217 c 0,23,24
 460 74 460 74 310 6 c 1,25,-1
 310 -38 l 2,26,27
 310 -51 310 -51 289.5 -59 c 128,-1,28
 269 -67 269 -67 254 -67 c 1,29,30
 254 -42 254 -42 255 -18 c 1,31,-1
 215 -22 l 1,32,-1
 215 -43 l 2,33,34
 215 -55 215 -55 196 -65 c 128,-1,35
 177 -75 177 -75 164 -75 c 1,36,37
 164 -51 164 -51 165 -28 c 1,38,39
 9 -23 9 -23 9 75 c 0,40,41
 9 112 9 112 19.5 125.5 c 128,-1,42
 30 139 30 139 65 154 c 1,43,44
 100 104 100 104 166 69 c 1,45,46
 168 149 168 149 168 292 c 1,47,48
 99 309 99 309 54.5 347 c 128,-1,49
 10 385 10 385 10 462 c 0,50,51
 10 580 10 580 164 626 c 1,52,53
 163 649 163 649 163 667 c 0,54,55
 163 673 163 673 179.5 685 c 128,-1,56
 196 697 196 697 214 697 c 1,57,-1
 216 642 l 1,58,-1
 254 646 l 1,59,-1
 253 668 l 2,6,7
255 43 m 1,60,-1
 259 272 l 1,61,62
 233 278 233 278 222 280 c 1,63,64
 220 158 220 158 217 44 c 1,65,66
 237 42 237 42 244 42 c 131,-1,67
 251 42 251 42 255 43 c 1,60,-1
258 375 m 1,68,-1
 255 592 l 1,69,-1
 235 592 l 25,70,-1
 217 589 l 1,71,72
 219 532 219 532 221 382 c 1,73,74
 233 380 233 380 258 375 c 1,68,-1
362 156 m 0,75,76
 362 196 362 196 315 240 c 1,77,78
 315 134 315 134 313 86 c 1,79,80
 362 135 362 135 362 156 c 0,75,76
EndSplineSet
Validated: 1
EndChar

StartChar: parenleft
Encoding: 40 40 146
Width: 232
VWidth: -14
Flags: W
VStem: 13 95<147.563 465.148>
LayerCount: 2
Back
Fore
SplineSet
206 -30 m 7,0,1
 206 -50 206 -50 179 -50 c 4,2,3
 145 -50 145 -50 82 48 c 4,4,5
 13 155 13 155 13 296 c 4,6,7
 13 459 13 459 80 567 c 4,8,9
 140 664 140 664 184 664 c 4,10,11
 206 664 206 664 206 645 c 4,12,13
 206 634 206 634 157 553.5 c 132,-1,14
 108 473 108 473 108 294 c 4,15,16
 108 132 108 132 157 59 c 132,-1,17
 206 -14 206 -14 206 -30 c 7,0,1
EndSplineSet
Validated: 1
EndChar

StartChar: parenright
Encoding: 41 41 147
Width: 232
VWidth: -14
Flags: W
VStem: 111 95<147.809 465.148>
LayerCount: 2
Back
Fore
SplineSet
13 -30 m 7,0,1
 13 -14 13 -14 62 59 c 132,-1,2
 111 132 111 132 111 294 c 4,3,4
 111 473 111 473 62 553.5 c 132,-1,5
 13 634 13 634 13 645 c 4,6,7
 13 664 13 664 35 664 c 4,8,9
 79 664 79 664 139 567 c 4,10,11
 206 459 206 459 206 296 c 4,12,13
 206 156 206 156 137 48 c 4,14,15
 74 -50 74 -50 40 -50 c 4,16,17
 13 -50 13 -50 13 -30 c 7,0,1
EndSplineSet
Validated: 1
EndChar

StartChar: asterisk
Encoding: 42 42 148
Width: 338
VWidth: -32
Flags: W
HStem: 463 73<36.1299 101 233 298.344>
VStem: 22 289<488.314 528.647>
LayerCount: 2
Back
Fore
SplineSet
169 612 m 3,0,1
 211 612 211 612 211 529 c 1,2,3
 256 536 256 536 271 536 c 3,4,5
 311 536 311 536 311 514 c 0,6,7
 311 498 311 498 301 488 c 0,8,9
 288 473 288 473 254 467 c 0,10,11
 234 463 234 463 233 463 c 1,12,13
 235 460 235 460 249 442 c 0,14,15
 276 407 276 407 276 382 c 128,-1,16
 276 357 276 357 251 357 c 0,17,18
 228 357 228 357 189 404 c 0,19,20
 170 427 170 427 169 429 c 1,21,22
 165 424 165 424 155 409 c 0,23,24
 134 377 134 377 119 366 c 0,25,26
 107 357 107 357 95 357 c 128,-1,27
 83 357 83 357 75 365.5 c 128,-1,28
 67 374 67 374 67 389.5 c 128,-1,29
 67 405 67 405 101 462 c 1,30,31
 88 462 88 462 64 470 c 0,32,33
 40 480 40 480 36 484 c 0,34,35
 22 497 22 497 22 514 c 0,36,37
 22 536 22 536 60 536 c 0,38,-1
 124 529 l 1,39,40
 140 612 140 612 169 612 c 3,0,1
EndSplineSet
Validated: 1
EndChar

StartChar: germandbls
Encoding: 223 223 149
Width: 496
VWidth: -14
Flags: W
HStem: -27 52<214.875 316.656> 570 64<214.142 327.955>
VStem: 78 105<49.3762 530.541> 361 93<411.549 535.611> 376 92<74.3086 218.249>
LayerCount: 2
Back
Fore
SplineSet
212 8 m 131,-1,1
 212 19 212 19 216 25 c 1,2,3
 283 25 283 25 329.5 53 c 128,-1,4
 376 81 376 81 376 147 c 0,5,6
 376 205 376 205 328 247 c 0,7,8
 270 298 270 298 214 324 c 1,9,10
 361 410 361 410 361 449 c 0,11,12
 361 570 361 570 262 570 c 0,13,14
 225 570 225 570 205 536 c 128,-1,15
 185 502 185 502 185 444 c 2,16,-1
 183 -34 l 1,17,18
 152 -15 152 -15 110 -10 c 128,-1,19
 68 -5 68 -5 38.5 -0.5 c 128,-1,20
 9 4 9 4 9 15 c 0,21,22
 9 30 9 30 57 50 c 0,23,24
 77 58 77 58 78 60 c 1,25,-1
 78 418 l 2,26,27
 78 524 78 524 135.5 579 c 128,-1,28
 193 634 193 634 290 634 c 0,29,30
 361 634 361 634 407.5 580 c 128,-1,31
 454 526 454 526 454 456 c 0,32,33
 454 413 454 413 430 383 c 128,-1,34
 406 353 406 353 355 324 c 1,35,36
 392 295 392 295 412 276 c 0,37,38
 468 222 468 222 468 138 c 0,39,40
 468 89 468 89 427 48 c 0,41,42
 352 -27 352 -27 226 -27 c 1,43,0
 212 -3 212 -3 212 8 c 131,-1,1
EndSplineSet
Validated: 8388609
EndChar

StartChar: braceleft
Encoding: 123 123 150
Width: 351
VWidth: -14
Flags: W
VStem: 140 89<99.1797 243.036 390.239 531.396>
LayerCount: 2
Back
Fore
SplineSet
296 -50 m 3,0,1
 271 -50 271 -50 208 23 c 0,2,3
 140 104 140 104 140 186 c 0,4,5
 140 244 140 244 74 272 c 0,6,7
 7 298 7 298 7 310 c 3,8,9
 7 325 7 325 72 354 c 0,10,11
 96 365 96 365 117 388.5 c 128,-1,12
 138 412 138 412 138 447 c 128,-1,13
 138 482 138 482 158 523.5 c 128,-1,14
 178 565 178 565 205 595 c 0,15,16
 267 664 267 664 298 664 c 0,17,18
 324 664 324 664 324 645 c 0,19,20
 324 624 324 624 276 572 c 0,21,22
 229 520 229 520 229 443 c 128,-1,23
 229 366 229 366 142 309 c 1,24,25
 197 274 197 274 215 246 c 0,26,27
 229 224 229 224 229 184 c 0,28,29
 229 110 229 110 309 4 c 0,30,31
 324 -16 324 -16 324 -27 c 0,32,33
 324 -50 324 -50 296 -50 c 3,0,1
EndSplineSet
Validated: 1
EndChar

StartChar: braceright
Encoding: 125 125 151
Width: 350
VWidth: -14
Flags: W
VStem: 116 88<96.9863 242.209 391.523 532.845>
LayerCount: 2
Back
Fore
SplineSet
48 -50 m 131,-1,1
 21 -50 21 -50 21 -30 c 0,2,3
 21 -11 21 -11 68.5 44.5 c 128,-1,4
 116 100 116 100 116 176 c 0,5,6
 116 250 116 250 167 286 c 0,7,8
 184 299 184 299 203 309 c 1,9,10
 116 364 116 364 116 443 c 0,11,12
 116 519 116 519 68 572 c 128,-1,13
 20 625 20 625 20 644.5 c 131,-1,14
 20 664 20 664 48 664 c 0,15,16
 78 664 78 664 140 595 c 0,17,18
 167 565 167 565 187 523.5 c 128,-1,19
 207 482 207 482 207 447 c 128,-1,20
 207 412 207 412 227.5 388.5 c 128,-1,21
 248 365 248 365 272 354 c 0,22,23
 338 325 338 325 338 310 c 0,24,25
 338 298 338 298 271 272 c 0,26,27
 246 262 246 262 225 242 c 128,-1,28
 204 222 204 222 204 185.5 c 128,-1,29
 204 149 204 149 184 102 c 128,-1,30
 164 55 164 55 137 23 c 0,31,0
 75 -50 75 -50 48 -50 c 131,-1,1
EndSplineSet
Validated: 1
EndChar

StartChar: bracketleft
Encoding: 91 91 152
Width: 211
VWidth: -14
Flags: W
HStem: -68 65<118 181.291> -59 59<129.709 180.109> 600 59<117.36 186.674> 602 65<114 187.393>
VStem: 25 82<101.509 543.747> 36 82<-3 171.556 413.321 602>
LayerCount: 2
Back
Fore
SplineSet
107 297 m 1,0,-1
 118 -3 l 1,1,-1
 175 0 l 1,2,3
 189 -15 189 -15 199 -59 c 1,4,-1
 112 -68 l 1,5,6
 101 -68 101 -68 73 -62 c 0,7,8
 50 -57 50 -57 36 -50 c 1,9,-1
 25 290 l 1,10,-1
 35 644 l 1,11,12
 92 667 92 667 108 667 c 1,13,-1
 198 659 l 1,14,15
 197 657 197 657 195 648 c 0,16,17
 181 600 181 600 175 600 c 2,18,-1
 114 602 l 1,19,20
 107 364 107 364 107 297 c 1,0,-1
EndSplineSet
Validated: 8388609
EndChar

StartChar: bracketright
Encoding: 93 93 153
Width: 214
VWidth: -14
Flags: W
HStem: -65 65<34.1164 99> -56 59<25.2958 86.8836> 600 59<26.6523 97.536> 602 65<25.835 101>
VStem: 99 80<0 212.827 371.066 602> 105 82<0 571.941>
LayerCount: 2
Back
Fore
SplineSet
107 667 m 1,0,1
 119 667 119 667 148.5 658 c 128,-1,2
 178 649 178 649 178 644 c 2,3,-1
 187 290 l 1,4,-1
 179 -47 l 5,5,6
 169 -54 169 -54 142 -59.5 c 128,-1,7
 115 -65 115 -65 105 -65 c 1,8,-1
 16 -56 l 1,9,10
 16 -44 16 -44 24.5 -21 c 128,-1,11
 33 2 33 2 41 3 c 1,12,-1
 99 0 l 1,13,14
 105 234 105 234 105 354 c 128,-1,15
 105 474 105 474 101 602 c 1,16,-1
 39 600 l 1,17,18
 34 603 34 603 25 626 c 128,-1,19
 16 649 16 649 16 659 c 1,20,-1
 107 667 l 1,0,1
EndSplineSet
Validated: 8388609
EndChar

StartChar: uni2010
Encoding: 8208 8208 161
Width: 314
VWidth: -10
Flags: W
HStem: 218 85<16.5127 283.312> 227 81<16.3633 165.224 169.503 281.062>
VStem: 10 284
LayerCount: 2
Back
Fore
SplineSet
294 309 m 1025
EndSplineSet
Refer: 133 45 N 1 0 0 1 0 0 2
Validated: 8388609
EndChar

StartChar: aogonek
Encoding: 261 261 175
Width: 459
VWidth: -3
Flags: W
HStem: -151 40<350.535 435.868> -9 74<383.57 446.977> 40 11<181 263> 244 46<128.002 158.622> 311 69<128.19 261.891>
VStem: 30 104<54.0059 114.922 279.649 304.991> 263 63<-95.7998 -4.03741> 275 107<223.083 296.219>
LayerCount: 2
Back
Fore
SplineSet
181 51 m 0,0,1
 246 51 246 51 274 171 c 1,2,3
 228 158 228 158 181 132 c 128,-1,4
 134 106 134 106 134 76 c 0,5,6
 134 51 134 51 181 51 c 0,0,1
263 40 m 0,7,8
 260 40 260 40 246 27 c 0,9,10
 205 -13 205 -13 123 -13 c 0,11,12
 30 -13 30 -13 30 59 c 0,13,14
 30 145 30 145 152 182 c 0,15,16
 274 221 274 221 275 248 c 0,17,18
 275 311 275 311 195 311 c 0,19,20
 173 311 173 311 152.5 304 c 128,-1,21
 132 297 132 297 128 292 c 0,22,23
 128 291 128 291 136 290 c 0,24,25
 159 287 159 287 159 270 c 0,26,27
 159 244 159 244 97 244 c 0,28,29
 74 244 74 244 52 257 c 128,-1,30
 30 270 30 270 30 295 c 128,-1,31
 30 320 30 320 62 341 c 0,32,33
 122 380 122 380 207 380 c 0,34,35
 256 380 256 380 300 366 c 0,36,37
 382 340 382 340 382 297 c 2,38,-1
 383 90 l 2,39,40
 383 75 383 75 421 65 c 128,-1,41
 459 55 459 55 459 37.5 c 128,-1,42
 459 20 459 20 437.5 5.5 c 128,-1,43
 416 -9 416 -9 393 -9 c 0,44,45
 373 -9 373 -9 352 -1 c 1,46,47
 326 -21 326 -21 326 -39 c 0,48,49
 326 -81 326 -81 350 -97 c 0,50,51
 367 -109 367 -109 399.5 -110.5 c 128,-1,52
 432 -112 432 -112 436 -115 c 128,-1,53
 440 -118 440 -118 440 -125 c 0,54,55
 440 -138 440 -138 423 -144.5 c 128,-1,56
 406 -151 406 -151 389 -151 c 0,57,58
 338 -151 338 -151 299 -114 c 0,59,60
 280 -95 280 -95 271.5 -78.5 c 128,-1,61
 263 -62 263 -62 263 -31.5 c 128,-1,62
 263 -1 263 -1 287 29 c 9,63,64
 267 40 267 40 263 40 c 0,7,8
EndSplineSet
Validated: 8388609
EndChar

StartChar: Aogonek
Encoding: 260 260 176
Width: 670
VWidth: -15
Flags: W
HStem: -155 40<554.544 644.868> -9 61<569.948 647.954> -9 41<398.562 470.191> -2 61<40.9077 81.686 158 242.409 569.534 630.591> 287 76<318.88 404> 562 69<260 365> 575 62<75.8383 191.852 464 531.112>
VStem: 82 76<59 188.577> 472 63<-98.3762 -8.00549>
DStem2: 119 253 191 248 0.216598 0.976261<-178.515 20.7777 112.345 329.276>
LayerCount: 2
Back
Fore
SplineSet
214 347 m 1,0,-1
 404 363 l 1,1,-1
 365 562 l 1,2,-1
 260 559 l 1,3,-1
 214 347 l 1,0,-1
565 -2 m 17,4,5
 535 -24 535 -24 535 -43 c 0,6,7
 535 -111 535 -111 609 -115 c 0,8,9
 641 -117 641 -117 645 -119.5 c 128,-1,10
 649 -122 649 -122 649 -132 c 128,-1,11
 649 -142 649 -142 632.5 -148.5 c 128,-1,12
 616 -155 616 -155 599 -155 c 0,13,14
 547 -155 547 -155 508 -118 c 0,15,16
 489 -99 489 -99 480.5 -82.5 c 128,-1,17
 472 -66 472 -66 472 -42.5 c 128,-1,18
 472 -19 472 -19 478 -4 c 1,19,-1
 420 -9 l 24,20,21
 411 -9 411 -9 404.5 -0.5 c 128,-1,22
 398 8 398 8 398 16 c 0,23,24
 398 32 398 32 414 32 c 0,25,26
 421 32 421 32 477 55 c 1,27,-1
 424 287 l 1,28,29
 343 282 343 282 191 248 c 1,30,31
 160 138 160 138 158 59 c 1,32,-1
 223 56 l 2,33,34
 243 56 243 56 243 28 c 128,-1,35
 243 0 243 0 224 0 c 2,36,-1
 168 -2 l 1,37,-1
 62 -7 l 1,38,39
 40 -7 40 -7 40 24 c 128,-1,40
 40 55 40 55 56 55 c 128,-1,41
 72 55 72 55 82 60 c 1,42,43
 84 105 84 105 119 253 c 0,44,45
 192 566 192 566 194 575 c 1,46,47
 190 576 190 576 138 578.5 c 128,-1,48
 86 581 86 581 75.5 589.5 c 128,-1,49
 65 598 65 598 58.5 616 c 128,-1,50
 52 634 52 634 52 644 c 1,51,52
 114 644 114 644 191.5 637.5 c 128,-1,53
 269 631 269 631 313.5 631 c 128,-1,54
 358 631 358 631 397 637.5 c 128,-1,55
 436 644 436 644 476 644 c 0,56,57
 534 644 534 644 534 611 c 0,58,59
 534 573 534 573 464 573 c 1,60,61
 464 539 464 539 517 329.5 c 128,-1,62
 570 120 570 120 570 70 c 0,63,64
 570 52 570 52 625 52 c 0,65,66
 638 52 638 52 644 40 c 128,-1,67
 650 28 650 28 650 16 c 0,68,69
 650 -9 650 -9 631 -9 c 0,70,71
 618 -9 618 -9 594 -5 c 8,72,73
 565 -2 l 17,4,5
EndSplineSet
Validated: 8388609
EndChar

StartChar: Eogonek
Encoding: 280 280 177
Width: 641
VWidth: -12
Flags: W
HStem: -132 42<611.533 679.87> -26 108<289.973 463.963> 261 104<171 278.946> 285 105<419.207 523 558 572> 566 90<211.872 358.34>
VStem: 44 117<365 460.071> 524 62<-74.5459 12.4677> 573 59<107.374 285>
LayerCount: 2
Back
Fore
SplineSet
418 82 m 0,0,1
 516 82 516 82 573 119 c 1,2,-1
 572 285 l 1,3,4
 189 262 189 262 171 261 c 1,5,6
 178 195 178 195 232 142 c 0,7,8
 292 82 292 82 418 82 c 0,0,1
184 500 m 0,9,10
 165 447 165 447 161 365 c 1,11,-1
 523 387 l 1,12,13
 474 455 474 455 408 510.5 c 128,-1,14
 342 566 342 566 275 566 c 128,-1,15
 208 566 208 566 184 500 c 0,9,10
620 -76 m 1024,16,17
632 33 m 17,18,19
 586 -3 586 -3 586 -19 c 0,20,21
 586 -60 586 -60 611 -77 c 0,22,23
 628 -88 628 -88 652 -90 c 128,-1,24
 676 -92 676 -92 680 -95 c 128,-1,25
 684 -98 684 -98 684 -108 c 128,-1,26
 684 -118 684 -118 667.5 -125 c 128,-1,27
 651 -132 651 -132 635 -132 c 0,28,29
 600 -132 600 -132 560 -94 c 0,30,31
 524 -58 524 -58 524 -14 c 0,32,33
 524 14 524 14 536 33 c 1,34,35
 520 24 520 24 504 15 c 0,36,37
 430 -26 430 -26 339 -26 c 0,38,39
 239 -26 239 -26 171 24 c 0,40,41
 44 118 44 118 44 329 c 0,42,43
 44 497 44 497 170 605 c 0,44,45
 230 656 230 656 295 656 c 128,-1,46
 360 656 360 656 426.5 628 c 128,-1,47
 493 600 493 600 539 552 c 1,48,49
 544 566 544 566 551.5 598 c 128,-1,50
 559 630 559 630 566.5 642.5 c 128,-1,51
 574 655 574 655 588 655 c 0,52,53
 605 655 605 655 605 629 c 128,-1,54
 605 603 605 603 584.5 516.5 c 128,-1,55
 564 430 564 430 558 390 c 1,56,-1
 638 398 l 9,57,-1
 632 33 l 17,18,19
EndSplineSet
Validated: 8388609
EndChar

StartChar: eogonek
Encoding: 281 281 178
Width: 425
VWidth: -3
Flags: W
HStem: -140 40<278.535 363.868> -5 67<181.233 192 254.004 322.888> 336 53<165.962 226.924>
VStem: 30 106<221 287.901> 192 62<-62.5874 -5.25171>
DStem2: 136 221 141 161 0.895274 0.445516<0 69.3265 226.816 274.571>
LayerCount: 2
Back
Fore
SplineSet
80 52 m 20,0,1
 30 113 30 113 30 194 c 131,-1,2
 30 275 30 275 84 332 c 0,3,4
 137 389 137 389 216 389 c 0,5,6
 260 389 260 389 307 361 c 0,7,8
 311 358 311 358 347 326 c 1,9,10
 368 338 368 338 385 338 c 0,11,12
 409 338 409 338 409 305 c 0,13,14
 409 289 409 289 341 258 c 0,15,16
 175 181 175 181 141 161 c 1,17,18
 150 106 150 106 180 84 c 128,-1,19
 210 62 210 62 265 62 c 0,20,21
 292 62 292 62 309 71 c 128,-1,22
 326 80 326 80 332 90 c 0,23,24
 347 119 347 119 359 119 c 0,25,26
 366 119 366 119 375.5 113.5 c 128,-1,27
 385 108 385 108 389 107 c 1,28,29
 384 85 384 85 356 49 c 0,30,31
 318 0 318 0 258 -5 c 1,32,33
 254 -13 254 -13 254 -28 c 0,34,35
 254 -70 254 -70 278 -86 c 0,36,37
 295 -98 295 -98 327.5 -100 c 128,-1,38
 360 -102 360 -102 364 -104.5 c 128,-1,39
 368 -107 368 -107 368 -114 c 0,40,41
 368 -127 368 -127 351 -133.5 c 128,-1,42
 334 -140 334 -140 317 -140 c 0,43,44
 264 -140 264 -140 227 -103 c 0,45,46
 208 -84 208 -84 200 -63.5 c 128,-1,47
 192 -43 192 -43 192 -7 c 9,48,49
 122 6 122 6 80 52 c 20,0,1
187 336 m 0,50,51
 174 336 174 336 156.5 296.5 c 128,-1,52
 139 257 139 257 136 221 c 1,53,54
 186 242 186 242 200 248 c 0,55,56
 246 266 246 266 255 272 c 1,57,58
 222 336 222 336 187 336 c 0,50,51
EndSplineSet
Validated: 1
EndChar

StartChar: zdotaccent
Encoding: 380 380 179
Width: 481
VWidth: -2
Flags: W
HStem: 4 77<205.705 413.122> 318 79<81.3049 227.951> 447 149<206.021 281.641>
VStem: 166 164<490.111 554.168> 417 48<-44.8364 -15>
DStem2: 305 277 204 81 0.667545 0.744569<-213.358 0 89.3702 144.013>
LayerCount: 2
Back
Fore
SplineSet
297.5 479.5 m 128,-1,1
 265 447 265 447 248.5 447 c 132,-1,2
 232 447 232 447 199 474.5 c 128,-1,3
 166 502 166 502 166 519.5 c 128,-1,4
 166 537 166 537 195 566.5 c 128,-1,5
 224 596 224 596 238 596 c 128,-1,6
 252 596 252 596 291 567.5 c 128,-1,7
 330 539 330 539 330 525.5 c 128,-1,0
 330 512 330 512 297.5 479.5 c 128,-1,1
381 364.5 m 128,-1,9
 392 382 392 382 404 382 c 3,10,11
 428 382 428 382 428 361 c 0,12,13
 428 349 428 349 372 279 c 128,-1,14
 316 209 316 209 260 145 c 2,15,-1
 204 81 l 1,16,17
 420 81 420 81 452 64 c 0,18,19
 466 57 466 57 465 44 c 0,20,21
 465 -50 465 -50 428 -50 c 0,22,23
 417 -50 417 -50 417 -34.5 c 128,-1,24
 417 -19 417 -19 418 -15 c 1,25,26
 261 4 261 4 219 4 c 0,27,28
 148 4 148 4 79 -14 c 2,29,-1
 30 -27 l 1,30,-1
 48 -7 l 2,31,32
 161 119 161 119 305 277 c 1,33,34
 265 285 265 285 227 296.5 c 128,-1,35
 189 308 189 308 163.5 313 c 128,-1,36
 138 318 138 318 98 318 c 0,37,38
 82 318 82 318 59 291 c 1,39,-1
 46 271 l 1,40,-1
 46 296 l 2,41,42
 46 322 46 322 70 359.5 c 128,-1,43
 94 397 94 397 119 397 c 0,44,45
 170 397 170 397 260.5 372 c 128,-1,46
 351 347 351 347 360.5 347 c 128,-1,8
 370 347 370 347 381 364.5 c 128,-1,9
EndSplineSet
Validated: 1
EndChar

StartChar: lslash
Encoding: 322 322 181
Width: 248
VWidth: -14
Flags: W
VStem: 66 93<56 268 396 561.368>
LayerCount: 2
Back
Fore
SplineSet
159 304 m 1,0,-1
 159 56 l 1,1,2
 180 61 180 61 213 94 c 1,3,4
 231 72 231 72 231 64 c 0,5,6
 231 47 231 47 166.5 9 c 128,-1,7
 102 -29 102 -29 66 -29 c 1,8,-1
 66 268 l 1,9,-1
 12 251 l 1,10,-1
 9 334 l 1,11,12
 21 338 21 338 66 356 c 1,13,-1
 66 521 l 2,14,15
 66 538 66 538 45 560 c 128,-1,16
 24 582 24 582 24 596.5 c 131,-1,17
 24 611 24 611 74 626 c 128,-1,18
 124 641 124 641 159 644 c 1,19,-1
 159 396 l 1,20,-1
 223 425 l 1,21,22
 224 359 224 359 225 348 c 0,23,24
 225 339 225 339 224 338 c 0,25,26
 213 320 213 320 159 304 c 1,0,-1
EndSplineSet
Validated: 1
EndChar

StartChar: Lslash
Encoding: 321 321 182
Width: 645
VWidth: -10
Flags: W
HStem: -18 21G<26 46.5> -10 62<45.5945 146.219 358.401 487.581> -2 54<271.77 435.355> 590 59<46.626 149.672> 591 47<265.441 381.25>
VStem: 147 116<60.7653 258 394 582.142> 586 41<-126 -10>
LayerCount: 2
Back
Fore
SplineSet
271.5 60.5 m 128,-1,1
 280 52 280 52 305 52 c 0,2,3
 472 52 472 52 554 102 c 0,4,5
 592 126 592 126 603 159 c 1,6,7
 615 158 615 158 620 142 c 0,8,9
 627 124 627 124 627 90 c 2,10,-1
 627 -126 l 1,11,-1
 586 -126 l 1,12,-1
 586 -10 l 1,13,14
 521 -2 521 -2 211 -2 c 0,15,16
 174 -2 174 -2 120.5 -10 c 128,-1,17
 67 -18 67 -18 26 -18 c 1,18,19
 26 17 26 17 45 31 c 128,-1,20
 64 45 64 45 86 47 c 0,21,22
 146 52 146 52 147 73 c 0,23,24
 147 142 147 142 149 258 c 1,25,-1
 109 246 l 1,26,27
 107 329 l 1,28,29
 118 332 118 332 151 346 c 1,30,31
 153 478 153 478 153 557 c 3,32,33
 153 585 153 585 90 590 c 0,34,35
 66 592 66 592 46 604.5 c 128,-1,36
 26 617 26 617 26 649 c 1,37,38
 81 649 81 649 129 638 c 0,39,40
 168 629 168 629 191 629 c 131,-1,41
 214 629 214 629 290 638 c 0,42,43
 373 648 373 648 404 649 c 1,44,45
 404 617 404 617 382 605 c 0,46,47
 358 593 358 593 332 591 c 0,48,49
 262 586 262 586 262 557 c 2,50,-1
 262 394 l 1,51,-1
 320 420 l 1,52,53
 324 384 324 384 324 348 c 0,54,55
 324 336 324 336 321 333 c 0,56,57
 316 328 316 328 263 301 c 1,58,-1
 263 76 l 2,59,0
 263 69 263 69 271.5 60.5 c 128,-1,1
EndSplineSet
Validated: 8388609
EndChar

StartChar: uni0419
Encoding: 1049 1049 187
Width: 720
VWidth: -15
Flags: W
HStem: -31 74<277.529 424.997 650.348 686.93> 786 32<507.031 537.631>
VStem: 99 113<111.234 602.889> 180 72<786.6 812.045> 523 112<111.168 601.194>
DStem2: 289 755 243 721 0.818482 -0.574532<-60.6551 81.7563> 354 714 426 694 0.77121 0.636581<-8.55997 174.785>
LayerCount: 2
Back
Fore
SplineSet
356 650 m 1
 304 675 304 675 243 721 c 0
 180 767 180 767 180 798 c 0
 180 816 180 816 200 816 c 0
 204 816 204 816 252 809 c 1
 260 784 l 2
 261 777 261 777 289 755 c 0
 318 733 318 733 354 714 c 1
 366 722 366 722 394 752 c 0
 458 818 458 818 496 818 c 0
 554 818 554 818 554 786 c 1
 510 786 510 786 474 738 c 0
 458 718 458 718 426 694 c 0
 394 668 394 668 356 650 c 1
EndSplineSet
Refer: 186 1048 N 1 0 0 1 0 0 2
Validated: 8388609
EndChar

StartChar: uni042F
Encoding: 1071 1071 196
Width: 704
VWidth: -14
Flags: W
HStem: -18 56<556.484 676.627> -13 72<31.1016 84.9653> -6 49<313.158 443.257> 3 53<330.894 445> 274 34<391.062 398.461> 557 44<589.867 681.996> 571 81<270.269 415.113>
VStem: 119 105<341.846 525.046> 444 106<56 274 339.654 523.883> 445 122<341.875 534.863>
DStem2: 85 65 183 10 0.560478 0.828169<-28.932 236.505>
LayerCount: 2
Back
Fore
SplineSet
362.5 49 m 128,-1,1
 389 55 389 55 445 56 c 1,2,-1
 444 274 l 1,3,4
 339 263 339 263 227 78 c 0,5,6
 199 32 199 32 183 10 c 0,7,8
 167 -13 167 -13 97 -13 c 128,-1,9
 27 -13 27 -13 27 25 c 0,10,11
 27 48 27 48 69 59 c 0,12,13
 84 63 84 63 85 65 c 0,14,15
 147 157 147 157 184 210 c 0,16,17
 206 242 206 242 219 263 c 1,18,19
 173 287 173 287 146 333 c 128,-1,20
 119 379 119 379 119 434 c 0,21,22
 119 535 119 535 176 593.5 c 128,-1,23
 233 652 233 652 331 652 c 0,24,25
 367 652 367 652 394.5 640 c 128,-1,26
 422 628 422 628 435 614 c 0,27,28
 469 577 469 577 499 577 c 3,29,30
 549 577 549 577 582 589 c 128,-1,31
 615 601 615 601 665 601 c 0,32,33
 682 601 682 601 682 579 c 128,-1,34
 682 557 682 557 666 557 c 0,35,36
 637 557 637 557 602.5 541.5 c 128,-1,37
 568 526 568 526 567 515 c 0,38,39
 559 424 559 424 555 374 c 0,40,41
 551 318 551 318 550 196 c 0,42,43
 550 74 550 74 556 55 c 1,44,45
 571 38 571 38 649 38 c 0,46,47
 663 38 663 38 671 26.5 c 128,-1,48
 679 15 679 15 679 3 c 0,49,50
 679 -18 679 -18 649 -18 c 0,51,52
 631 -18 631 -18 593 -8 c 128,-1,53
 555 2 555 2 474 3 c 0,54,55
 393 3 393 3 368 -1.5 c 128,-1,56
 343 -6 343 -6 330.5 -6 c 128,-1,57
 318 -6 318 -6 313 2 c 128,-1,58
 308 10 308 10 308 19 c 128,-1,59
 308 28 308 28 313 35.5 c 128,-1,60
 318 43 318 43 327 43 c 128,-1,0
 336 43 336 43 362.5 49 c 128,-1,1
360 571 m 0,61,62
 290 571 290 571 257 539 c 128,-1,63
 224 507 224 507 224 438.5 c 128,-1,64
 224 370 224 370 245.5 339 c 128,-1,65
 267 308 267 308 326 308 c 0,66,67
 401 308 401 308 444 362 c 1,68,-1
 445 527 l 1,69,70
 401 571 401 571 360 571 c 0,61,62
EndSplineSet
Validated: 8388609
EndChar

StartChar: uni0442
Encoding: 1090 1090 204
Width: 713
VWidth: -3
Flags: W
HStem: -18 27G<116 142 345 372.5 566 567.5> 304 77<243.056 363.031 483.517 592.872> 314 67<58.2012 87.0641>
VStem: 116 95<10.1008 282.984> 345 97<10.1543 268.734> 574 111<127.803 298.269> 575 100<-9.44385 192.371>
LayerCount: 2
Back
Fore
SplineSet
27 327.5 m 128,-1,1
 27 341 27 341 62.5 361 c 128,-1,2
 98 381 98 381 114.5 381 c 128,-1,3
 131 381 131 381 160 367.5 c 128,-1,4
 189 354 189 354 203 326 c 1,5,6
 232 355 232 355 260 368 c 128,-1,7
 288 381 288 381 326 381 c 0,8,9
 412 381 412 381 435 324 c 1,10,11
 497 381 497 381 575 381 c 0,12,13
 630 381 630 381 657 336 c 0,14,15
 685 290 685 290 685 194 c 0,16,17
 685 142 685 142 675.5 75 c 128,-1,18
 666 8 666 8 660 -11 c 1,19,20
 578 -12 578 -12 557 -12 c 1,21,22
 575 70 575 70 575 126 c 3,23,24
 575 184 575 184 574 202 c 0,25,26
 572 276 572 276 556 299 c 0,27,28
 548 310 548 310 515 310 c 0,29,30
 500 310 500 310 442 266 c 1,31,-1
 442 108 l 2,32,33
 442 43 442 43 421 12 c 0,34,35
 400 -18 400 -18 345 -18 c 1,36,-1
 345 151 l 2,37,38
 345 236 345 236 320 274 c 0,39,40
 301 304 301 304 269 304 c 0,41,42
 246 304 246 304 228 288 c 0,43,44
 218 280 218 280 211 273 c 1,45,-1
 211 104 l 2,46,47
 211 40 211 40 189.5 11 c 128,-1,48
 168 -18 168 -18 116 -18 c 1,49,-1
 116 153 l 2,50,51
 116 252 116 252 93 284 c 0,52,53
 72 314 72 314 49.5 314 c 128,-1,0
 27 314 27 314 27 327.5 c 128,-1,1
EndSplineSet
Validated: 8388609
EndChar

StartChar: uni043F
Encoding: 1087 1087 207
Width: 488
VWidth: -3
Flags: W
HStem: -14 21G<108 138 349 369> 304 78<241.946 358.25> 314 69<54.8467 80.3354>
VStem: 108 99<27.6191 283.993> 371 89<26.9214 260.762>
LayerCount: 2
Back
Fore
SplineSet
22 327.5 m 128,-1,1
 22 341 22 341 57 362 c 128,-1,2
 92 383 92 383 108.5 383 c 128,-1,3
 125 383 125 383 155.5 368.5 c 128,-1,4
 186 354 186 354 200 326 c 1,5,6
 231 356 231 356 259 369 c 128,-1,7
 287 382 287 382 334.5 382 c 128,-1,8
 382 382 382 382 411.5 350 c 128,-1,9
 441 318 441 318 450.5 276.5 c 128,-1,10
 460 235 460 235 460 183 c 0,11,12
 460 56 460 56 436 24 c 0,13,14
 406 -14 406 -14 349 -14 c 1,15,16
 371 70 371 70 371 150 c 128,-1,17
 371 230 371 230 345 267 c 128,-1,18
 319 304 319 304 266 304 c 0,19,20
 248 304 248 304 207 273 c 1,21,-1
 207 103 l 2,22,23
 207 67 207 67 183.5 25 c 128,-1,24
 160 -17 160 -17 108 -17 c 1,25,-1
 108 153 l 2,26,27
 108 251 108 251 86 284 c 0,28,29
 66 314 66 314 44 314 c 128,-1,0
 22 314 22 314 22 327.5 c 128,-1,1
EndSplineSet
Validated: 8388609
EndChar

StartChar: uni0411
Encoding: 1041 1041 208
Width: 661
VWidth: -14
Flags: W
HStem: -31 65<288.316 467.041> -27 44<26.0547 116.069> 363 66<316.888 456.467> 537 55<34.705 149.39> 562 60<287.505 559.401>
VStem: 141 135<51.0376 281.207> 158 120<51.0376 328.688 397 533.444> 531 102<91.7283 265.85> 567 59<485.361 546.652>
LayerCount: 2
Back
Fore
SplineSet
368 34 m 0,0,1
 441 34 441 34 486 68 c 128,-1,2
 531 102 531 102 531 170 c 131,-1,3
 531 238 531 238 492 301 c 0,4,5
 451 363 451 363 396 363 c 3,6,7
 350 363 350 363 333 351 c 0,8,9
 305 337 305 337 278 307 c 1,10,-1
 276 66 l 1,11,12
 287 55 287 55 312 44.5 c 128,-1,13
 337 34 337 34 368 34 c 0,0,1
354 622 m 3,14,15
 438 622 438 622 532 607.5 c 128,-1,16
 626 593 626 593 626 576 c 0,17,18
 626 496 626 496 618.5 485 c 128,-1,19
 611 474 611 474 597 474 c 128,-1,20
 583 474 583 474 575 492 c 128,-1,21
 567 510 567 510 567 528 c 0,22,23
 567 562 567 562 360 562 c 0,24,25
 293 562 293 562 279 526 c 1,26,-1
 278 397 l 1,27,28
 281 398 281 398 301 408 c 0,29,30
 346 429 346 429 418 429 c 1,31,32
 500 427 500 427 572 332 c 0,33,34
 633 252 633 252 633 173 c 0,35,36
 633 77 633 77 559 23 c 128,-1,37
 485 -31 485 -31 380 -31 c 0,38,39
 319 -31 319 -31 281 -15.5 c 128,-1,40
 243 0 243 0 223 0 c 0,41,42
 174 0 174 0 134 -13.5 c 128,-1,43
 94 -27 94 -27 45 -27 c 0,44,45
 26 -27 26 -27 26 -3 c 0,46,47
 26 17 26 17 40 17 c 0,48,49
 69 17 69 17 104.5 33 c 128,-1,50
 140 49 140 49 141 59 c 0,51,52
 158 195 158 195 158 284 c 0,53,54
 158 502 158 502 151 525 c 0,55,56
 149 533 149 533 129.5 535 c 128,-1,57
 110 537 110 537 55 537 c 0,58,59
 41 537 41 537 34.5 547 c 128,-1,60
 28 557 28 557 28 568 c 128,-1,61
 28 579 28 579 34 585.5 c 128,-1,62
 40 592 40 592 47 592 c 128,-1,63
 54 592 54 592 95 599 c 0,64,65
 230 622 230 622 354 622 c 3,14,15
EndSplineSet
Validated: 8388609
EndChar

StartChar: uni0413
Encoding: 1043 1043 209
Width: 508
VWidth: -17
Flags: W
HStem: -8 21G<385.5 405> -5 48<47.4067 113.438 232.097 394.369> 520 82<38.7322 116> 534 80<226 443.195>
VStem: 116 110<56.3643 519.237> 451 52<472.321 532.741>
LayerCount: 2
Back
Fore
SplineSet
116 78 m 1048,0,-1
184 7 m 1,1,-1
 34 -5 l 1,2,3
 34 18 34 18 47 29.5 c 128,-1,4
 60 41 60 41 75 43 c 0,5,6
 116 50 116 50 116 78 c 2,7,-1
 116 515 l 2,8,9
 116 520 116 520 58 520 c 1,10,11
 37 541 37 541 31 556.5 c 128,-1,12
 25 572 25 572 23 602 c 1,13,14
 50 602 50 602 188.5 608 c 128,-1,15
 327 614 327 614 412 614 c 0,16,17
 458 614 458 614 480.5 592 c 128,-1,18
 503 570 503 570 503 526 c 128,-1,19
 503 482 503 482 489 472 c 128,-1,20
 475 462 475 462 451 462 c 1,21,22
 448 534 448 534 424 534 c 3,23,24
 359 534 359 534 293 529 c 128,-1,25
 227 524 227 524 226 515 c 1,26,-1
 226 78 l 2,27,28
 226 61 226 61 256 54 c 128,-1,29
 286 47 286 47 330.5 42 c 128,-1,30
 375 37 375 37 395 26 c 0,31,32
 405 21 405 21 405 -8 c 1,33,34
 366 -8 366 -8 288.5 -0.5 c 128,-1,35
 211 7 211 7 184 7 c 1,1,-1
EndSplineSet
Validated: 8388609
EndChar

StartChar: uni041F
Encoding: 1055 1055 210
Width: 812
VWidth: -15
Flags: W
HStem: -19 53<290.977 438.567> -15 56<49.5945 150.871 534.902 554.019 674.172 780.827> -8 60<264 431.311> 549 88<666.664 760.648> 549 77<264 555 666 760.648> 556 70<77.2944 151.378> 568 79<667.683 767.54>
VStem: 152 112<57.5 549> 555 111<56.2812 548>
LayerCount: 2
Back
Fore
SplineSet
197 626 m 1,0,-1
 616 626 l 2,1,2
 642 626 642 626 714 636 c 128,-1,3
 786 646 786 646 801 647 c 1,4,5
 801 586 801 586 754 568 c 0,6,7
 720 555 720 555 666 549 c 1,8,9
 666 156 666 156 666 74 c 0,10,11
 666 56 666 56 734 46 c 0,12,13
 760 42 760 42 781.5 27.5 c 128,-1,14
 803 13 803 13 803 -21 c 1,15,16
 684 -4 684 -4 616 -4 c 0,17,18
 601 -4 601 -4 580 -11.5 c 128,-1,19
 559 -19 559 -19 525 -19 c 1,20,21
 525 38 525 38 540 43 c 128,-1,22
 555 48 555 48 555 72 c 0,23,24
 555 310 555 310 555 548 c 1,25,-1
 264 549 l 1,26,-1
 264 72 l 2,27,28
 264 58 264 58 315.5 52 c 128,-1,29
 367 46 367 46 418.5 34 c 128,-1,30
 470 22 470 22 470 -19 c 1,31,32
 286 -8 286 -8 232.5 -8 c 128,-1,33
 179 -8 179 -8 126 -15 c 128,-1,34
 73 -22 73 -22 30 -22 c 1,35,36
 30 12 30 12 49 25.5 c 128,-1,37
 68 39 68 39 90 41 c 0,38,39
 152 46 152 46 152 67 c 2,40,-1
 152 549 l 1,41,42
 132 556 132 556 125 556 c 0,43,44
 83 562 83 562 60 573 c 0,45,46
 30 587 30 587 30 636 c 1,47,-1
 197 626 l 1,0,-1
EndSplineSet
Validated: 1
EndChar

StartChar: uni0423
Encoding: 1059 1059 211
Width: 546
VWidth: 8
Flags: W
VStem: 442 105<581.856 632.03>
DStem2: 180 540.5 40 612 0.416277 -0.909238<-43.2393 273.443>
LayerCount: 2
Back
Fore
SplineSet
16 -1 m 1,0,-1
 16 35 l 1,1,2
 152 118 152 118 218 229 c 1,3,4
 76 514 76 514 40 612 c 2,5,-1
 28 644 l 1,6,-1
 190 645 l 1,7,8
 190 628 190 628 178.5 611.5 c 128,-1,9
 167 595 167 595 167 582.5 c 128,-1,10
 167 570 167 570 180 540.5 c 128,-1,11
 193 511 193 511 231.5 436.5 c 128,-1,12
 270 362 270 362 302 293 c 1,13,14
 384 388 384 388 417 448 c 128,-1,15
 450 508 450 508 466 580 c 1,16,17
 442 610 442 610 442 621 c 1,18,19
 461 633 461 633 499 644 c 1,20,-1
 547 652 l 1,21,22
 547 546 547 546 484 419 c 128,-1,23
 421 292 421 292 309 167 c 0,24,25
 159 0 159 0 123 0 c 2,26,-1
 16 -1 l 1,0,-1
EndSplineSet
Validated: 1
EndChar

StartChar: uni0414
Encoding: 1044 1044 212
Width: 603
VWidth: 0
Flags: W
HStem: 18 66<145 414 499 530> 534 128<240.997 335.746> 556 46<510.314 575.793>
VStem: 61 84<84.5615 338.203> 414 85<84 507.951> 530 73<-58.6439 18>
LayerCount: 2
Back
Fore
SplineSet
145 84 m 1,0,-1
 414 82 l 1,1,-1
 411 484 l 2,2,3
 411 503 411 503 368.5 518.5 c 128,-1,4
 326 534 326 534 289 534 c 0,5,6
 231 534 231 534 188.5 420 c 128,-1,7
 146 306 146 306 145 84 c 1,0,-1
498 511 m 2,8,-1
 499 84 l 1,9,10
 578 82 578 82 590.5 72.5 c 128,-1,11
 603 63 603 63 603 49 c 0,12,13
 603 -26 603 -26 599 -43 c 128,-1,14
 595 -60 595 -60 568.5 -60 c 128,-1,15
 542 -60 542 -60 537 -49.5 c 128,-1,16
 532 -39 532 -39 530 18 c 1,17,-1
 128 18 l 1,18,19
 119 -12 119 -12 88 -35 c 128,-1,20
 57 -58 57 -58 39.5 -58 c 128,-1,21
 22 -58 22 -58 19 -53.5 c 128,-1,22
 16 -49 16 -49 16 -30 c 0,23,24
 16 31 16 31 38 80 c 0,25,26
 60 128 60 128 61 204 c 0,27,28
 61 370 61 370 106 508 c 0,29,30
 129 578 129 578 171 620 c 128,-1,31
 213 662 213 662 270 662 c 3,32,33
 296 662 296 662 357 629 c 0,34,35
 415 597 415 597 426 596 c 2,36,37
 523 602 l 1,38,39
 576 602 576 602 576 577 c 0,40,41
 576 556 576 556 537 556 c 3,42,43
 520 556 520 556 510 548 c 0,44,45
 498 538 498 538 498 511 c 2,8,-1
EndSplineSet
Validated: 8388609
EndChar

StartChar: uni0416
Encoding: 1046 1046 213
Width: 861
VWidth: -15
Flags: W
HStem: -20 55<336.829 393.512 490 562.061> -20 44<46.0879 97.9858 326.094 391.875 786.014 837.912> 596 50<77.3125 105.165 333.202 393.675 490.793 547.547 776.734 811.938>
VStem: 394 96<39.1748 302.084 370 596.438>
DStem2: 166.5 589.5 229 452 0.694493 -0.719499<-72.4342 231.891> 673 259.5 624 143 0.445793 -0.895136<-109.831 272.447>
LayerCount: 2
Back
Fore
SplineSet
360 35 m 0,0,1
 394 35 394 35 394 54 c 2,2,-1
 394 242 l 2,3,4
 394 262 394 262 383 284 c 128,-1,5
 372 306 372 306 365 306 c 0,6,7
 345 306 345 306 303 224.5 c 128,-1,8
 261 143 261 143 216.5 61.5 c 128,-1,9
 172 -20 172 -20 146 -20 c 0,10,11
 117 -20 117 -20 81.5 -14.5 c 128,-1,12
 46 -9 46 -9 46 0.5 c 128,-1,13
 46 10 46 10 56 17 c 128,-1,14
 66 24 66 24 75 24 c 0,15,16
 90 24 90 24 127 95.5 c 128,-1,17
 164 167 164 167 211 259.5 c 128,-1,18
 258 352 258 352 289 386 c 1,19,20
 276 398 276 398 229 452 c 0,21,22
 114 583 114 583 67 596 c 1,23,24
 67 626 67 626 77 636 c 132,-1,25
 87 646 87 646 97 646 c 128,-1,26
 107 646 107 646 166.5 589.5 c 128,-1,27
 226 533 226 533 297.5 461.5 c 128,-1,28
 369 390 369 390 394 370 c 1,29,-1
 394 577 l 2,30,31
 394 597 394 597 363.5 597 c 128,-1,32
 333 597 333 597 333 622 c 0,33,34
 333 643 333 643 356 643 c 0,35,36
 366 643 366 643 395.5 636 c 128,-1,37
 425 629 425 629 442.5 629 c 128,-1,38
 460 629 460 629 489 635 c 128,-1,39
 518 641 518 641 527 641 c 0,40,41
 548 641 548 641 548 622.5 c 128,-1,42
 548 604 548 604 519 598 c 128,-1,43
 490 592 490 592 490 582 c 2,44,-1
 490 370 l 1,45,46
 514 390 514 390 586 462 c 0,47,48
 770 646 770 646 790 646 c 0,49,50
 802 646 802 646 808 634 c 0,51,52
 815 617 815 617 817 596 c 1,53,54
 770 584 770 584 655 452 c 0,55,56
 608 398 608 398 595 386 c 1,57,58
 626 352 626 352 673 259.5 c 128,-1,59
 720 167 720 167 757 95.5 c 128,-1,60
 794 24 794 24 809 24 c 0,61,62
 818 24 818 24 828 17 c 128,-1,63
 838 10 838 10 838 0.5 c 128,-1,64
 838 -9 838 -9 803 -14.5 c 128,-1,65
 768 -20 768 -20 739 -20 c 0,66,67
 718 -20 718 -20 686 31 c 0,68,69
 652 82 652 82 624 143 c 0,70,71
 548 306 548 306 519 306 c 0,72,73
 512 306 512 306 501 284 c 128,-1,74
 490 262 490 262 490 242 c 2,75,-1
 490 54 l 2,76,77
 490 42 490 42 527 36 c 0,78,79
 541 34 541 34 552.5 25 c 128,-1,80
 564 16 564 16 564 2 c 0,81,82
 564 -16 564 -16 542 -16 c 1,83,-1
 443 -8 l 1,84,85
 425 -8 425 -8 392.5 -14 c 128,-1,86
 360 -20 360 -20 350 -20 c 0,87,88
 326 -20 326 -20 326 -1 c 128,-1,89
 326 18 326 18 336.5 26.5 c 128,-1,90
 347 35 347 35 360 35 c 0,0,1
EndSplineSet
Validated: 8388609
EndChar

StartChar: uni0417
Encoding: 1047 1047 214
Width: 569
VWidth: -13
Flags: W
HStem: -28 64<221.934 376.333> 563 78<196.213 330.303>
VStem: 28 52<-34.2407 44.9648> 72 53<393.933 471> 370 144<423.813 526.386> 414 127<84.3645 273.389>
DStem2: 134.5 110 91 51 0.880128 -0.474736<-9.75933 180.62>
LayerCount: 2
Back
Fore
SplineSet
125 471 m 1,0,1
 125 393 125 393 97 393 c 0,2,3
 84 393 84 393 78 423.5 c 128,-1,4
 72 454 72 454 72 481 c 2,5,-1
 72 553 l 1,6,7
 84 563 84 563 105.5 577.5 c 128,-1,8
 127 592 127 592 185.5 616.5 c 128,-1,9
 244 641 244 641 294 641 c 0,10,11
 378 641 378 641 446 596 c 128,-1,12
 514 551 514 551 514 492 c 0,13,14
 514 444 514 444 482 413 c 0,15,16
 458 392 458 392 421 371 c 1,17,18
 466 362 466 362 503.5 312 c 128,-1,19
 541 262 541 262 541 192 c 0,20,21
 541 89 541 89 480 30.5 c 128,-1,22
 419 -28 419 -28 301 -28 c 0,23,24
 271 -28 271 -28 234.5 -17 c 128,-1,25
 198 -6 198 -6 173.5 6.5 c 128,-1,26
 149 19 149 19 121.5 34.5 c 128,-1,27
 94 50 94 50 91 51 c 0,28,29
 86 44 86 44 80 20 c 0,30,31
 64 -39 64 -39 49 -39 c 0,32,33
 40 -39 40 -39 34 -33 c 128,-1,34
 28 -27 28 -27 28 -20 c 0,35,36
 28 4 28 4 68 80 c 1,37,-1
 100 138 l 1,38,39
 113 127 113 127 134.5 110 c 128,-1,40
 156 93 156 93 209.5 64.5 c 128,-1,41
 263 36 263 36 301 36 c 0,42,43
 364 36 364 36 389 71 c 128,-1,44
 414 106 414 106 414 199 c 0,45,46
 414 228 414 228 401 256 c 128,-1,47
 388 284 388 284 370 302 c 0,48,49
 338 334 338 334 288 361 c 1,50,51
 297 368 297 368 310.5 379 c 128,-1,52
 324 390 324 390 347 421.5 c 128,-1,53
 370 453 370 453 370 482.5 c 128,-1,54
 370 512 370 512 335 537.5 c 128,-1,55
 300 563 300 563 264 563 c 128,-1,56
 228 563 228 563 195 540 c 0,57,58
 164 519 164 519 125 471 c 1,0,1
EndSplineSet
Validated: 8388609
EndChar

StartChar: uni041B
Encoding: 1051 1051 215
Width: 689
VWidth: 0
Flags: W
HStem: -72 72<60.579 122.94> 0 63<406.246 496 574 674.449> 545 117<333.197 421.561> 554 48<588.438 661.67>
VStem: 147 94<26.4258 344.76> 496 78<63 520.722>
LayerCount: 2
Back
Fore
SplineSet
608 602 m 1,0,1
 662 602 662 602 662 576 c 0,2,3
 662 554 662 554 618 554 c 3,4,5
 602 554 602 554 588 546 c 0,6,7
 574 536 574 536 574 509 c 2,8,-1
 574 63 l 1,9,10
 683 60 683 60 683 28 c 0,11,12
 683 18 683 18 675 12 c 0,13,14
 658 0 658 0 558.5 0 c 128,-1,15
 459 0 459 0 431.5 5.5 c 128,-1,16
 404 11 404 11 404 34 c 0,17,18
 404 52 404 52 427 57.5 c 128,-1,19
 450 63 450 63 496 63 c 1,20,-1
 496 484 l 2,21,22
 496 514 496 514 457.5 529.5 c 128,-1,23
 419 545 419 545 378 545 c 0,24,25
 321 545 321 545 281 425 c 128,-1,26
 241 305 241 305 241 83 c 3,27,28
 241 12 241 12 199 -30 c 128,-1,29
 157 -72 157 -72 108 -72 c 128,-1,30
 59 -72 59 -72 38.5 -47 c 128,-1,31
 18 -22 18 -22 18 -3 c 128,-1,32
 18 16 18 16 24.5 33 c 128,-1,33
 31 50 31 50 44 50 c 0,34,35
 49 50 49 50 53 37.5 c 128,-1,36
 57 25 57 25 67.5 12.5 c 128,-1,37
 78 0 78 0 99 0 c 0,38,39
 123 0 123 0 135 64 c 128,-1,40
 147 128 147 128 147 204 c 0,41,42
 147 370 147 370 192 508 c 0,43,44
 215 578 215 578 257 620 c 128,-1,45
 299 662 299 662 356 662 c 0,46,47
 382 662 382 662 442.5 629 c 128,-1,48
 503 596 503 596 512 596 c 2,49,-1
 608 602 l 1,0,1
EndSplineSet
Validated: 8388609
EndChar

StartChar: uni0424
Encoding: 1060 1060 216
Width: 743
VWidth: -14
Flags: W
HStem: -17 50<210.643 322.066 441.55 554.357> 148 56<147.57 264.915 499.363 615.493> 571 81<181.812 296.763 463.873 581.306>
VStem: 29 84<300.889 498.063> 323 117<53 180 250.266 548.838> 651 83<300.889 496.438>
LayerCount: 2
Back
Fore
SplineSet
253 571 m 0,0,1
 195 571 195 571 154 524.5 c 128,-1,2
 113 478 113 478 113 409 c 0,3,4
 113 204 113 204 189 204 c 0,5,6
 229 204 229 204 267.5 227.5 c 128,-1,7
 306 251 306 251 323 270 c 1,8,-1
 323 527 l 1,9,10
 313 540 313 540 292 555.5 c 128,-1,11
 271 571 271 571 253 571 c 0,0,1
483 -7.5 m 128,-1,13
 441 3 441 3 382.5 3 c 131,-1,14
 324 3 324 3 282.5 -7 c 128,-1,15
 241 -17 241 -17 228 -17 c 128,-1,16
 215 -17 215 -17 210.5 -8.5 c 128,-1,17
 206 0 206 0 206 9 c 128,-1,18
 206 18 206 18 210.5 25.5 c 128,-1,19
 215 33 215 33 224.5 33 c 128,-1,20
 234 33 234 33 264.5 43 c 128,-1,21
 295 53 295 53 323 53 c 1,22,-1
 323 180 l 1,23,24
 321 180 321 180 304 170 c 0,25,26
 266 148 266 148 204.5 148 c 128,-1,27
 143 148 143 148 86 235 c 128,-1,28
 29 322 29 322 29 413.5 c 128,-1,29
 29 505 29 505 88 578.5 c 128,-1,30
 147 652 147 652 229 652 c 0,31,32
 282 652 282 652 317 614 c 0,33,34
 351 576 351 576 379 576 c 3,35,36
 414 576 414 576 446 614 c 0,37,38
 477 652 477 652 534 652 c 0,39,40
 616 652 616 652 675 578.5 c 128,-1,41
 734 505 734 505 734 413.5 c 128,-1,42
 734 322 734 322 677 235 c 128,-1,43
 620 148 620 148 557 148 c 0,44,45
 497 148 497 148 459 170 c 0,46,47
 442 180 442 180 440 180 c 1,48,-1
 440 53 l 1,49,50
 469 53 469 53 500 42.5 c 128,-1,51
 531 32 531 32 540.5 32 c 128,-1,52
 550 32 550 32 554.5 24.5 c 128,-1,53
 559 17 559 17 559 8 c 128,-1,54
 559 -1 559 -1 554.5 -9.5 c 128,-1,55
 550 -18 550 -18 537.5 -18 c 128,-1,12
 525 -18 525 -18 483 -7.5 c 128,-1,13
510 571 m 0,56,57
 492 571 492 571 471 555.5 c 128,-1,58
 450 540 450 540 440 527 c 1,59,-1
 440 270 l 1,60,61
 465 242 465 242 505.5 223 c 128,-1,62
 546 204 546 204 574 204 c 0,63,64
 651 204 651 204 651 409 c 0,65,66
 651 477 651 477 609.5 524 c 128,-1,67
 568 571 568 571 510 571 c 0,56,57
EndSplineSet
Validated: 1
EndChar

StartChar: uni0426
Encoding: 1062 1062 217
Width: 683
VWidth: 0
Flags: W
HStem: -18 80<237.505 440.48> 0 60<578 599>
VStem: 96 112<91.8105 603.643> 463 115<83.5723 598.194> 599 75<-76.291 0>
LayerCount: 2
Back
Fore
SplineSet
463 192 m 2,0,-1
 462 553 l 2,1,2
 462 589 462 589 439.5 600.5 c 128,-1,3
 417 612 417 612 417 623 c 0,4,5
 417 639 417 639 466 645 c 128,-1,6
 515 651 515 651 562 651 c 0,7,8
 578 651 578 651 578 574 c 2,9,-1
 578 60 l 1,10,11
 658 60 658 60 670 48 c 0,12,13
 674 43 674 43 674 32 c 0,14,15
 674 -43 674 -43 669 -60.5 c 128,-1,16
 664 -78 664 -78 637.5 -78 c 128,-1,17
 611 -78 611 -78 606 -67.5 c 128,-1,18
 601 -57 601 -57 599 0 c 1,19,20
 360 -18 360 -18 294 -18 c 3,21,22
 156 -18 156 -18 126 18 c 128,-1,23
 96 54 96 54 96 216 c 1,24,-1
 100 580 l 2,25,26
 100 594 100 594 71 605.5 c 128,-1,27
 42 617 42 617 42 629.5 c 128,-1,28
 42 642 42 642 109.5 647 c 128,-1,29
 177 652 177 652 223 652 c 1,30,31
 213 601 213 601 210.5 530.5 c 128,-1,32
 208 460 208 460 208 211 c 0,33,34
 208 110 208 110 234.5 86 c 128,-1,35
 261 62 261 62 350.5 62 c 128,-1,36
 440 62 440 62 454 102 c 0,37,38
 463 128 463 128 463 192 c 2,0,-1
EndSplineSet
Validated: 8388609
EndChar

StartChar: uni0427
Encoding: 1063 1063 218
Width: 665
VWidth: 8
Flags: W
HStem: -10 62<395.8 483> -10 49<381.354 482.184> 219 74<237.676 399.26>
VStem: 59 112<361.234 603.807> 473 115<359.835 627.81> 483 105<52 304>
LayerCount: 2
Back
Fore
SplineSet
473 445 m 2,0,-1
 471 556 l 2,1,2
 471 587 471 587 463.5 604.5 c 128,-1,3
 456 622 456 622 456 628 c 0,4,5
 456 654 456 654 571 654 c 0,6,7
 588 654 588 654 588 577 c 2,8,-1
 588 72 l 2,9,10
 588 58 588 58 612 44 c 128,-1,11
 636 30 636 30 637 -11 c 1,12,13
 474 -10 474 -10 405 -10 c 0,14,15
 380 -10 380 -10 380 11 c 0,16,17
 380 27 380 27 418.5 39 c 128,-1,18
 457 51 457 51 483 52 c 1,19,20
 484 256 484 256 484 304 c 1,21,22
 481 283 481 283 455 265.5 c 128,-1,23
 429 248 429 248 373 234 c 128,-1,24
 317 220 317 220 259 219 c 0,25,26
 182 219 182 219 120.5 292 c 128,-1,27
 59 365 59 365 59 466 c 2,28,-1
 59 548 l 2,29,30
 59 572 59 572 42.5 595 c 128,-1,31
 26 618 26 618 26 628 c 0,32,33
 26 643 26 643 89 648 c 0,34,35
 152 652 152 652 176 652 c 1,36,37
 171 535 171 535 171 456.5 c 128,-1,38
 171 378 171 378 212.5 335.5 c 128,-1,39
 254 293 254 293 319 293 c 131,-1,40
 384 293 384 293 430 334 c 0,41,42
 473 372 473 372 473 445 c 2,0,-1
EndSplineSet
Validated: 8388609
EndChar

StartChar: uni0429
Encoding: 1065 1065 219
Width: 910
VWidth: 0
Flags: W
HStem: -85 137<833.161 895.323> -18 70<263.8 395.377> -7 59<599.049 648.355 806 826>
VStem: 102 112<98.2345 603.643> 398 108<52 323.047> 690 116<92.4775 592.481> 826 75<-83.062 -7>
LayerCount: 2
Back
Fore
SplineSet
398 52 m 1,0,-1
 396 578 l 2,1,2
 396 592 396 592 367 603.5 c 128,-1,3
 338 615 338 615 338 627 c 0,4,5
 338 650 338 650 520 650 c 1,6,7
 506 575 506 575 506 52 c 1,8,9
 641 58 641 58 663 86 c 0,10,11
 690 119 690 119 690 185 c 2,12,-1
 688 546 l 2,13,14
 688 583 688 583 666 594 c 0,15,16
 644 606 644 606 643 616 c 0,17,18
 643 632 643 632 692 638 c 128,-1,19
 741 644 741 644 788 644 c 0,20,21
 796 644 796 644 801 619.5 c 128,-1,22
 806 595 806 595 806 567 c 2,23,-1
 806 53 l 1,24,25
 884 51 884 51 891 46 c 0,26,27
 900 40 900 40 901 25 c 0,28,29
 901 -49 901 -49 895.5 -67 c 128,-1,30
 890 -85 890 -85 864 -85 c 128,-1,31
 838 -85 838 -85 833 -75 c 128,-1,32
 828 -65 828 -65 826 -7 c 1,33,34
 366 -18 366 -18 308 -18 c 0,35,36
 162 -18 162 -18 132 18 c 0,37,38
 102 54 102 54 102 216 c 2,39,-1
 105 580 l 2,40,41
 105 594 105 594 76 605.5 c 128,-1,42
 47 617 47 617 47 629 c 0,43,44
 47 652 47 652 229 652 c 1,45,46
 219 601 219 601 216.5 530.5 c 128,-1,47
 214 460 214 460 214 318 c 0,48,49
 214 114 214 114 249 84 c 0,50,51
 275 62 275 62 398 52 c 1,0,-1
EndSplineSet
Validated: 8388609
EndChar

StartChar: uni0428
Encoding: 1064 1064 220
Width: 904
VWidth: 0
Flags: W
HStem: -18 70<264.495 397 505 645.48>
VStem: 101 112<98.5513 603.643> 397 108<52 323.047> 689 117<92.6475 591.194>
LayerCount: 2
Back
Fore
SplineSet
689 185 m 2,0,-1
 687 546 l 2,1,2
 687 582 687 582 653 602 c 0,3,4
 642 608 642 608 642 616 c 0,5,6
 642 632 642 632 691 638 c 128,-1,7
 740 644 740 644 788 644 c 0,8,9
 805 644 805 644 805 567 c 2,10,-1
 806 222 l 2,11,12
 806 170 806 170 814 134 c 0,13,14
 824 98 824 98 834 82 c 0,15,16
 863 39 863 39 866 -15 c 1,17,18
 365 -18 365 -18 307 -18 c 0,19,20
 162 -18 162 -18 132 18 c 128,-1,21
 102 54 102 54 101 216 c 1,22,-1
 105 580 l 2,23,24
 105 594 105 594 76 605.5 c 128,-1,25
 47 617 47 617 47 629 c 0,26,27
 47 652 47 652 228 652 c 1,28,29
 218 601 218 601 215.5 530.5 c 128,-1,30
 213 460 213 460 213 318 c 0,31,32
 214 176 214 176 216 152 c 0,33,34
 221 109 221 109 248 84 c 0,35,36
 271 61 271 61 397 52 c 1,37,-1
 395 578 l 2,38,39
 395 592 395 592 366 603.5 c 128,-1,40
 337 615 337 615 337 627 c 0,41,42
 337 650 337 650 519 650 c 1,43,44
 505 575 505 575 505 52 c 1,45,46
 640 58 640 58 662 86 c 0,47,48
 689 120 689 120 689 185 c 2,0,-1
EndSplineSet
Validated: 1
EndChar

StartChar: uni042E
Encoding: 1070 1070 221
Width: 904
VWidth: -15
Flags: W
HStem: -28 54<566.635 725.195> -5 55<84.9851 148.957> 302 78<235 329> 562 55<517.26 665.788>
VStem: 150 85<53.3125 302 380 529.388> 329 102<177.039 300 380 438.56> 784 92<121.434 407.673>
LayerCount: 2
Back
Fore
SplineSet
308 -7 m 1,0,1
 289 -7 289 -7 255.5 0.5 c 128,-1,2
 222 8 222 8 198 8 c 128,-1,3
 174 8 174 8 138 1.5 c 128,-1,4
 102 -5 102 -5 78 -5 c 1,5,6
 78 20 78 20 89 34 c 128,-1,7
 100 48 100 48 114 50 c 0,8,9
 150 56 150 56 150 76 c 2,10,-1
 150 501 l 2,11,12
 150 527 150 527 96 541 c 0,13,14
 76 546 76 546 59 561.5 c 128,-1,15
 42 577 42 577 42 602 c 1,16,17
 154 609 154 609 188.5 609 c 128,-1,18
 223 609 223 609 229 597.5 c 128,-1,19
 235 586 235 586 235 542 c 2,20,-1
 235 380 l 1,21,-1
 336 380 l 1,22,23
 357 498 357 498 431.5 557.5 c 128,-1,24
 506 617 506 617 616 617 c 128,-1,25
 726 617 726 617 801 522 c 128,-1,26
 876 427 876 427 876 301 c 0,27,28
 876 135 876 135 823.5 53.5 c 128,-1,29
 771 -28 771 -28 649 -28 c 0,30,31
 493 -28 493 -28 411 57 c 128,-1,32
 329 142 329 142 329 300 c 1,33,-1
 235 302 l 1,34,-1
 235 76 l 2,35,36
 236 54 236 54 272 48 c 0,37,38
 286 46 286 46 297 32.5 c 128,-1,39
 308 19 308 19 308 -7 c 1,0,1
784 245 m 0,40,41
 784 395 784 395 728.5 478.5 c 128,-1,42
 673 562 673 562 580 562 c 0,43,44
 519 562 519 562 475 493.5 c 128,-1,45
 431 425 431 425 431 319 c 0,46,47
 431 177 431 177 496 101.5 c 128,-1,48
 561 26 561 26 668 26 c 0,49,50
 711 26 711 26 738.5 62.5 c 128,-1,51
 766 99 766 99 775 145 c 128,-1,52
 784 191 784 191 784 245 c 0,40,41
EndSplineSet
Validated: 8388609
EndChar

StartChar: uni042C
Encoding: 1068 1068 222
Width: 604
VWidth: -15
Flags: W
HStem: -14 62<261.086 447.254> -10 50<38.2836 110.935> 334 58<256.856 379.894>
VStem: 113 106<85.4329 295.178 370 549> 492 75<86.7521 206.994>
LayerCount: 2
Back
Fore
SplineSet
219 617 m 1,0,-1
 219 370 l 1,1,2
 242 392 242 392 338.5 392 c 128,-1,3
 435 392 435 392 501 328 c 128,-1,4
 567 264 567 264 567 165 c 0,5,6
 567 116 567 116 547.5 79 c 128,-1,7
 528 42 528 42 498 23 c 0,8,9
 439 -14 439 -14 371 -14 c 128,-1,10
 303 -14 303 -14 256.5 -1.5 c 128,-1,11
 210 11 210 11 190 11 c 128,-1,12
 170 11 170 11 152 6 c 0,13,14
 94 -10 94 -10 50 -10 c 0,15,16
 41 -10 41 -10 35 -4 c 128,-1,17
 29 2 29 2 29 13 c 128,-1,18
 29 24 29 24 38 32 c 128,-1,19
 47 40 47 40 65.5 40 c 128,-1,20
 84 40 84 40 96.5 43.5 c 128,-1,21
 109 47 109 47 111 50 c 128,-1,22
 113 53 113 53 113 60 c 2,23,-1
 113 549 l 1,24,-1
 92 560 l 2,25,26
 42 584 42 584 42 597.5 c 128,-1,27
 42 611 42 611 78.5 614 c 128,-1,28
 115 617 115 617 219 617 c 1,0,-1
450.5 72 m 128,-1,30
 492 96 492 96 492 141.5 c 131,-1,31
 492 187 492 187 432.5 260.5 c 128,-1,32
 373 334 373 334 323 334 c 0,33,34
 243 334 243 334 219 248 c 1,35,-1
 219 136 l 2,36,37
 219 98 219 98 256.5 73 c 128,-1,38
 294 48 294 48 351.5 48 c 128,-1,29
 409 48 409 48 450.5 72 c 128,-1,30
EndSplineSet
Validated: 8388609
EndChar

StartChar: uni042A
Encoding: 1066 1066 223
Width: 628
VWidth: -15
Flags: W
HStem: -14 64<280.881 477.352> -10 50<61.799 133.42> 334 58<279.856 402.894>
VStem: 20 45<448.062 511> 137 105<85.1699 295.178 370 519> 515 75<83.5014 206.803>
LayerCount: 2
Back
Fore
SplineSet
242 617 m 1,0,-1
 242 370 l 1,1,2
 265 392 265 392 361.5 392 c 128,-1,3
 458 392 458 392 524 328 c 128,-1,4
 590 264 590 264 590 165 c 0,5,6
 590 116 590 116 570 79 c 128,-1,7
 550 42 550 42 520 23 c 0,8,9
 461 -14 461 -14 393.5 -14 c 128,-1,10
 326 -14 326 -14 279.5 -1.5 c 128,-1,11
 233 11 233 11 213 11 c 128,-1,12
 193 11 193 11 175 6 c 0,13,14
 117 -10 117 -10 73 -10 c 0,15,16
 64 -10 64 -10 58 -4 c 128,-1,17
 52 2 52 2 52 12.5 c 128,-1,18
 52 23 52 23 61.5 31.5 c 128,-1,19
 71 40 71 40 89 40 c 128,-1,20
 107 40 107 40 119 43 c 128,-1,21
 131 46 131 46 133.5 50 c 128,-1,22
 136 54 136 54 136 60 c 2,23,-1
 137 519 l 1,24,-1
 65 511 l 1,25,26
 65 448 65 448 44 448 c 0,27,28
 29 448 29 448 24.5 464 c 128,-1,29
 20 480 20 480 20 511 c 2,30,-1
 20 606 l 1,31,32
 139 616 139 616 242 617 c 1,0,-1
474.5 70.5 m 128,-1,34
 515 91 515 91 515 139 c 131,-1,35
 515 187 515 187 455.5 260.5 c 128,-1,36
 396 334 396 334 346 334 c 0,37,38
 266 334 266 334 242 248 c 1,39,-1
 242 136 l 2,40,41
 242 98 242 98 278.5 74 c 128,-1,42
 315 50 315 50 374.5 50 c 128,-1,33
 434 50 434 50 474.5 70.5 c 128,-1,34
EndSplineSet
Validated: 8388609
EndChar

StartChar: uni042D
Encoding: 1069 1069 225
Width: 679
VWidth: -12
Flags: W
HStem: -26 108<223.903 391.396> 261 104<398.918 514> 282 103<232 300.082> 566 90<314.955 470.411>
VStem: 58 37<-86.9087 -81.5 -69 64> 182 50<189.863 282> 524 118<365 450.471>
LayerCount: 2
Back
Fore
SplineSet
514 261 m 1,0,1
 442 263 442 263 232 282 c 1,2,3
 228 210 228 210 221 173 c 1,4,5
 201 178 201 178 192 189.5 c 128,-1,6
 183 201 183 201 182 226 c 0,7,8
 180 321 180 321 175 385 c 1,9,-1
 524 365 l 1,10,11
 516 508 516 508 466 548 c 0,12,13
 444 566 444 566 411 566 c 0,14,15
 340 566 340 566 257.5 513 c 128,-1,16
 175 460 175 460 135 404 c 1,17,18
 80 581 80 581 80 618 c 128,-1,19
 80 655 80 655 97 655 c 0,20,21
 111 655 111 655 118.5 642.5 c 128,-1,22
 126 630 126 630 134 598 c 128,-1,23
 142 566 142 566 147 552 c 1,24,25
 193 600 193 600 259 628 c 128,-1,26
 325 656 325 656 390.5 656 c 128,-1,27
 456 656 456 656 516 605 c 128,-1,28
 576 554 576 554 609 479 c 128,-1,29
 642 404 642 404 642 317.5 c 128,-1,30
 642 231 642 231 612.5 153 c 128,-1,31
 583 75 583 75 514.5 24.5 c 128,-1,32
 446 -26 446 -26 346 -26 c 0,33,34
 296 -26 296 -26 252 -13 c 128,-1,35
 208 0 208 0 181 15 c 128,-1,36
 154 30 154 30 102 64 c 1,37,-1
 95 -91 l 1,38,39
 79 -91 79 -91 70.5 -81.5 c 128,-1,40
 62 -72 62 -72 58 -69 c 1,41,42
 58 -2 58 -2 56 142 c 1,43,44
 75 130 75 130 143.5 106 c 128,-1,45
 212 82 212 82 267.5 82 c 128,-1,46
 323 82 323 82 373.5 98 c 128,-1,47
 424 114 424 114 452 142 c 0,48,49
 506 195 506 195 514 261 c 1,0,1
EndSplineSet
Validated: 8388609
EndChar

StartChar: uni0431
Encoding: 1073 1073 226
Width: 466
VWidth: -15
Flags: W
HStem: -36 64<198.67 313.35> 319 73<189.142 281.469> 521 81<181.027 317.551>
VStem: 40 103<76.6912 284.393 337 486.317> 338 100<76.2334 248.435> 344 59<627.78 659.688>
LayerCount: 2
Back
Fore
SplineSet
192 602 m 3,0,1
 273 602 273 602 305 617 c 0,2,3
 320 624 320 624 332 638 c 128,-1,4
 344 652 344 652 344 672 c 1,5,6
 378 672 378 672 396 642 c 0,7,8
 402 632 402 632 403 618 c 0,9,10
 403 589 403 589 366 555 c 128,-1,11
 329 521 329 521 270.5 521 c 128,-1,12
 212 521 212 521 176.5 495.5 c 128,-1,13
 141 470 141 470 141 431 c 2,14,-1
 143 337 l 1,15,16
 204 392 204 392 271 392 c 0,17,18
 355 392 355 392 396.5 322.5 c 128,-1,19
 438 253 438 253 438 144 c 0,20,21
 438 92 438 92 379 28 c 128,-1,22
 320 -36 320 -36 250 -36 c 0,23,24
 153 -36 153 -36 96.5 17.5 c 128,-1,25
 40 71 40 71 40 174 c 2,26,-1
 40 425 l 2,27,28
 40 504 40 504 86 553 c 128,-1,29
 132 602 132 602 192 602 c 3,0,1
272 28 m 131,-1,31
 338 28 338 28 338 165 c 0,32,33
 338 216 338 216 305 267.5 c 128,-1,34
 272 319 272 319 233 319 c 0,35,36
 175 319 175 319 143 249 c 1,37,-1
 143 99 l 1,38,30
 206 28 206 28 272 28 c 131,-1,31
EndSplineSet
Validated: 8388609
EndChar

StartChar: uni0432
Encoding: 1074 1074 227
Width: 410
VWidth: -15
Flags: W
HStem: -9 50<82 271.402> 180 41<143 240.403> 341 48<151.283 252.692>
VStem: 39 103<52.3131 176 224 332.608> 260 98<239.534 333.493> 285 97<56.9333 162.996>
LayerCount: 2
Back
Fore
SplineSet
125 -9 m 0,0,1
 39 -9 39 -9 39 21 c 2,2,-1
 39 289 l 2,3,4
 39 339 39 339 89.5 364 c 128,-1,5
 140 389 140 389 207.5 389 c 128,-1,6
 275 389 275 389 316.5 359 c 128,-1,7
 358 329 358 329 358 286 c 0,8,9
 358 256 358 256 343.5 239 c 128,-1,10
 329 222 329 222 287 201 c 1,11,12
 340 184 340 184 356 170 c 0,13,14
 382 147 382 147 382 115 c 0,15,16
 382 60 382 60 319 25.5 c 128,-1,17
 256 -9 256 -9 125 -9 c 0,0,1
199 341 m 3,18,19
 143 341 143 341 143 286 c 2,20,-1
 143 224 l 1,21,22
 161 221 161 221 191.5 221 c 128,-1,23
 222 221 222 221 241 236 c 0,24,25
 260 252 260 252 260 272 c 0,26,27
 260 307 260 307 252 320 c 0,28,29
 242 340 242 340 199 341 c 3,18,19
142 176 m 1,30,-1
 142 111 l 2,31,32
 142 65 142 65 158 52 c 0,33,34
 168 42 168 42 206 41 c 0,35,36
 284 41 284 41 285 101 c 0,37,38
 285 143 285 143 266.5 161.5 c 128,-1,39
 248 180 248 180 208.5 180 c 128,-1,40
 169 180 169 180 142 176 c 1,30,-1
EndSplineSet
Validated: 8388609
EndChar

StartChar: uni0433
Encoding: 1075 1075 228
Width: 371
VWidth: -4
Flags: W
HStem: -12 63<136.872 242.901> 340 45<94 236.662>
VStem: 38 88<69.0045 164> 243 97<234.5 314.148>
LayerCount: 2
Back
Fore
SplineSet
290 135 m 1,0,1
 343 116 343 116 343 68 c 128,-1,2
 343 20 343 20 321 4 c 128,-1,3
 299 -12 299 -12 227.5 -12 c 128,-1,4
 156 -12 156 -12 97 31 c 128,-1,5
 38 74 38 74 38 149 c 0,6,7
 38 179 38 179 70 204 c 0,8,9
 102 230 102 230 140 242 c 0,10,11
 242 275 242 275 243 298 c 0,12,13
 243 316 243 316 227 328 c 128,-1,14
 211 340 211 340 194 340 c 0,15,16
 169 340 169 340 155 310 c 0,17,18
 142 282 142 282 107 281 c 0,19,20
 85 281 85 281 69.5 297 c 128,-1,21
 54 313 54 313 54 335 c 0,22,23
 54 385 54 385 134 385 c 0,24,25
 243 385 243 385 304 329 c 0,26,27
 340 296 340 296 340 247 c 0,28,29
 340 222 340 222 286.5 201.5 c 128,-1,30
 233 181 233 181 179.5 158.5 c 128,-1,31
 126 136 126 136 126 107 c 0,32,33
 126 85 126 85 141 68 c 128,-1,34
 156 51 156 51 176 51 c 0,35,36
 210 51 210 51 236 62 c 0,37,38
 249 68 249 68 266 92 c 0,39,40
 280 119 280 119 290 135 c 1,0,1
EndSplineSet
Validated: 1
EndChar

StartChar: uni0434
Encoding: 1076 1076 229
Width: 456
VWidth: -3
Flags: W
HStem: -19 69<232.157 329.022> 316 69<143.763 255.729> 556 67<170.671 265.36>
VStem: 38 95<166.085 293.159> 76 91<506.287 555.523> 326 95<319.02 498.2> 336 94<86.0215 227.5>
LayerCount: 2
Back
Fore
SplineSet
388 47 m 0,0,1
 346 -19 346 -19 259.5 -19 c 128,-1,2
 173 -19 173 -19 105.5 44.5 c 128,-1,3
 38 108 38 108 38 188 c 0,4,5
 38 285 38 285 92 335 c 128,-1,6
 146 385 146 385 242 385 c 0,7,8
 288 385 288 385 326 365 c 1,9,10
 326 422 l 2,11,12
 326 483 326 483 285 519.5 c 128,-1,13
 244 556 244 556 190 556 c 0,14,15
 178 556 178 556 167 526 c 0,16,17
 163 515 163 515 151.5 505.5 c 128,-1,18
 140 496 140 496 124.5 496 c 128,-1,19
 109 496 109 496 92.5 511 c 128,-1,20
 76 526 76 526 76 547 c 0,21,22
 76 582 76 582 111.5 602.5 c 128,-1,23
 147 623 147 623 213 623 c 3,24,25
 310 623 310 623 366 576 c 0,26,27
 426 526 426 526 426 440 c 2,28,-1
 426 216 l 2,29,30
 426 107 426 107 388 47 c 0,0,1
336 114 m 0,31,32
 336 183 336 183 292.5 249.5 c 128,-1,33
 249 316 249 316 204.5 316 c 128,-1,34
 160 316 160 316 146.5 304 c 128,-1,35
 133 292 133 292 133 254 c 0,36,37
 133 182 133 182 188 116 c 128,-1,38
 243 50 243 50 281 50 c 128,-1,39
 319 50 319 50 327.5 61 c 128,-1,40
 336 72 336 72 336 114 c 0,31,32
EndSplineSet
Validated: 8388609
EndChar

StartChar: uni0436
Encoding: 1078 1078 230
Width: 575
VWidth: -15
Flags: W
HStem: -12 45<50.0054 83.6431 508.59 541.936> 352 45<511.262 523.739>
VStem: 250 89<-0.207642 169.997 226 390.721>
DStem2: 122 361.5 144 262 0.67467 -0.738119<-38.8717 145.187> 396 282 402 218 0.68672 0.726923<-45.1024 153.689>
LayerCount: 2
Back
Fore
SplineSet
251 -27 m 1,0,-1
 249 131 l 2,1,2
 249 144 249 144 242.5 157 c 128,-1,3
 236 170 236 170 232 170 c 0,4,5
 220 170 220 170 198 124 c 0,6,7
 132 -12 132 -12 114 -12 c 0,8,9
 94 -12 94 -12 72 -7 c 128,-1,10
 50 -2 50 -2 50 10 c 0,11,12
 50 33 50 33 64 33 c 0,13,14
 73 34 73 34 92 70 c 0,15,16
 162 205 162 205 180 224 c 1,17,18
 175 230 175 230 144 262 c 0,19,20
 74 336 74 336 44 344 c 1,21,22
 65 397 65 397 82 397 c 0,23,24
 89 397 89 397 122 361.5 c 128,-1,25
 155 326 155 326 194.5 282.5 c 128,-1,26
 234 239 234 239 250 226 c 1,27,-1
 250 360 l 2,28,29
 250 377 250 377 288 402 c 0,30,31
 310 416 310 416 338 418 c 1,32,-1
 339 226 l 1,33,34
 356 238 356 238 396 282 c 0,35,36
 418 303 418 303 470 362 c 0,37,38
 500 397 500 397 510 397 c 3,39,40
 527 397 527 397 547 352 c 1,41,42
 516 343 516 343 440 259 c 0,43,44
 408 224 408 224 402 218 c 1,45,46
 421 198 421 198 449 150 c 0,47,48
 518 32 518 32 530 32 c 0,49,50
 540 32 540 32 542 29 c 128,-1,51
 544 26 544 26 544 12 c 0,52,53
 544 -12 544 -12 478 -12 c 0,54,55
 460 -12 460 -12 391 124 c 0,56,57
 368 170 368 170 356 170 c 0,58,59
 352 170 352 170 345.5 156.5 c 128,-1,60
 339 143 339 143 339 130 c 2,61,-1
 339 31 l 2,62,63
 339 23 339 23 326.5 9.5 c 128,-1,64
 314 -4 314 -4 302 -12 c 0,65,66
 280 -26 280 -26 251 -27 c 1,0,-1
EndSplineSet
Validated: 1
EndChar

StartChar: uni0437
Encoding: 1079 1079 231
Width: 403
VWidth: -13
Flags: W
HStem: -12 50<140.234 258.612> 12 106<54.0851 97.871> 335 58<126.035 230.818>
VStem: 236 121<259.733 327.891> 271 105<51.4414 172.501>
LayerCount: 2
Back
Fore
SplineSet
106 294 m 0,0,1
 96 281 96 281 84 281 c 131,-1,2
 72 281 72 281 56.5 301.5 c 128,-1,3
 41 322 41 322 41 341 c 0,4,5
 41 346 41 346 63 358 c 128,-1,6
 85 370 85 370 124 381.5 c 128,-1,7
 163 393 163 393 211 393 c 128,-1,8
 259 393 259 393 308 366 c 128,-1,9
 357 339 357 339 357 303 c 0,10,11
 357 280 357 280 338.5 262 c 128,-1,12
 320 244 320 244 284 230 c 1,13,14
 317 224 317 224 346.5 193.5 c 128,-1,15
 376 163 376 163 376 122 c 0,16,17
 376 59 376 59 333 23.5 c 128,-1,18
 290 -12 290 -12 205 -12 c 0,19,20
 159 -12 159 -12 98.5 12.5 c 128,-1,21
 38 37 38 37 38 54 c 0,22,23
 38 75 38 75 49 96.5 c 128,-1,24
 60 118 60 118 71 118 c 0,25,26
 76 118 76 118 96 98 c 0,27,28
 156 38 156 38 199.5 38 c 128,-1,29
 243 38 243 38 257 54 c 128,-1,30
 271 70 271 70 271 126 c 0,31,32
 271 154 271 154 241.5 180 c 128,-1,33
 212 206 212 206 152 230 c 1,34,35
 206 248 206 248 227 272 c 0,36,37
 236 282 236 282 236 293 c 0,38,39
 236 335 236 335 174 335 c 3,40,41
 140 335 140 335 106 294 c 0,0,1
EndSplineSet
Validated: 8388609
EndChar

StartChar: uni043A
Encoding: 1082 1082 232
Width: 418
VWidth: -15
Flags: W
HStem: -22 38<366.005 399.133> 354 50<326.726 348.938>
VStem: 39 93<4.75769 181.997 222 384.558>
DStem2: 195.5 281.5 233 238 0.71236 0.701814<-5.20517 170.054> 288.5 160 195.5 131 0.518232 -0.85524<-88.7092 161.828>
LayerCount: 2
Back
Fore
SplineSet
364 354 m 1,0,1
 334 346 334 346 269 276 c 0,2,3
 243 248 243 248 233 238 c 1,4,5
 254 217 254 217 288.5 160 c 128,-1,6
 323 103 323 103 349.5 59.5 c 128,-1,7
 376 16 376 16 388 16 c 128,-1,8
 400 16 400 16 400 0 c 0,9,10
 400 -11 400 -11 364.5 -16.5 c 128,-1,11
 329 -22 329 -22 301 -22 c 0,12,13
 283 -22 283 -22 253.5 29 c 128,-1,14
 224 80 224 80 195.5 131 c 128,-1,15
 167 182 167 182 153 182 c 0,16,17
 148 182 148 182 140 168 c 128,-1,18
 132 154 132 154 132 141 c 2,19,-1
 132 36 l 2,20,21
 132 19 132 19 99.5 -2.5 c 128,-1,22
 67 -24 67 -24 39 -24 c 1,23,-1
 39 358 l 2,24,25
 39 373 39 373 71.5 390.5 c 128,-1,26
 104 408 104 408 130 408 c 1,27,-1
 132 222 l 1,28,29
 151 235 151 235 195.5 281.5 c 128,-1,30
 240 328 240 328 277.5 366 c 128,-1,31
 315 404 315 404 323.5 404 c 128,-1,32
 332 404 332 404 342 392 c 0,33,34
 352 378 352 378 364 354 c 1,0,1
EndSplineSet
Validated: 1
EndChar

StartChar: uni043B
Encoding: 1083 1083 233
Width: 484
VWidth: -3
Flags: W
HStem: -20 68<44.1569 146.1> 302 80<243.486 342.616>
VStem: 139 89<68.5994 286.727> 358 98<3.71118 285.497>
LayerCount: 2
Back
Fore
SplineSet
127 -20 m 3,0,1
 92 -20 92 -20 67 -10 c 128,-1,2
 42 0 42 0 32 15 c 0,3,4
 12 43 12 43 12 66 c 0,5,6
 12 72 12 72 18 72 c 128,-1,7
 24 72 24 72 45.5 60 c 128,-1,8
 67 48 67 48 80 48 c 0,9,10
 139 48 139 48 139 183 c 0,11,12
 139 235 139 235 148.5 276.5 c 128,-1,13
 158 318 158 318 187.5 350 c 128,-1,14
 217 382 217 382 265 382 c 0,15,16
 355 382 355 382 453 368 c 1,17,-1
 456 -19 l 1,18,19
 398 -19 398 -19 378 6 c 128,-1,20
 358 31 358 31 358 101 c 2,21,-1
 358 240 l 2,22,23
 358 270 358 270 340.5 286 c 128,-1,24
 323 302 323 302 299 302 c 0,25,26
 251 302 251 302 239.5 271.5 c 128,-1,27
 228 241 228 241 228 145 c 0,28,29
 228 88 228 88 201 34 c 128,-1,30
 174 -20 174 -20 127 -20 c 3,0,1
EndSplineSet
Validated: 1
EndChar

StartChar: uni043C
Encoding: 1084 1084 234
Width: 517
VWidth: -15
Flags: W
HStem: -22 36<143 176.632 352.157 375.812>
VStem: 52 91<12.1995 251> 382 85<15.1584 248>
DStem2: 266 183 143 251 0.481025 -0.876707<-113.53 35.3553> 283 152 267 25 0.438336 0.898811<0 129.681>
LayerCount: 2
Back
Fore
SplineSet
470 388 m 1,0,-1
 467 347 l 1,1,-1
 467 36 l 2,2,3
 467 28 467 28 477.5 14 c 128,-1,4
 488 0 488 0 489 -22 c 1,5,-1
 347 -22 l 1,6,7
 347 -2 347 -2 352 4.5 c 128,-1,8
 357 11 357 11 364 11 c 3,9,10
 370 11 370 11 376 15 c 0,11,12
 382 20 382 20 382 34 c 2,13,-1
 382 248 l 1,14,15
 379 241 379 241 267 25 c 1,16,17
 266 29 266 29 242 70 c 0,18,19
 164 204 164 204 143 251 c 1,20,-1
 143 24 l 2,21,22
 143 14 143 14 154 14 c 0,23,24
 190 11 190 11 190 -22 c 1,25,-1
 42 -22 l 1,26,27
 43 0 43 0 47.5 10 c 128,-1,28
 52 20 52 20 52 31 c 2,29,-1
 52 344 l 2,30,31
 52 346 52 346 50 356 c 128,-1,32
 48 366 48 366 48 387 c 1,33,-1
 132 387 l 2,34,35
 153 387 153 387 266 183 c 0,36,37
 277 162 277 162 283 152 c 1,38,39
 288 162 288 162 302 192 c 0,40,41
 360 318 360 318 382 355 c 0,42,43
 400 386 400 386 409 386 c 2,44,-1
 470 388 l 1,0,-1
EndSplineSet
Validated: 1
EndChar

StartChar: uni043D
Encoding: 1085 1085 235
Width: 450
VWidth: -3
Flags: W
HStem: 121 78<177 331>
VStem: 78 99<22.2402 121 199 328.562> 331 91<0.0038004 121 199 350.333>
LayerCount: 2
Back
Fore
SplineSet
30 364 m 3,0,1
 30 392 30 392 73.5 392 c 131,-1,2
 117 392 117 392 153 372 c 0,3,4
 177 358 177 358 177 335 c 2,5,-1
 177 199 l 1,6,-1
 331 199 l 1,7,8
 331 296 l 2,9,10
 331 369 331 369 308 390 c 1,11,12
 336 390 336 390 366 379 c 128,-1,13
 396 368 396 368 408 351 c 0,14,15
 422 330 422 330 422 265 c 2,16,-1
 422 29 l 2,17,18
 422 14 422 14 390 -6 c 0,19,20
 361 -25 361 -25 333 -29 c 1,21,22
 331 83 331 83 331 121 c 1,23,-1
 177 121 l 1,24,25
 177 35 l 2,26,27
 177 10 177 10 142 -10 c 0,28,29
 111 -29 111 -29 78 -29 c 1,30,-1
 78 163 l 2,31,32
 78 315 78 315 57 328 c 0,33,34
 30 346 30 346 30 364 c 3,0,1
EndSplineSet
Validated: 1
EndChar

StartChar: uni0444
Encoding: 1092 1092 236
Width: 594
VWidth: 8
Flags: W
HStem: -172 68<189.151 272 338 431.877> -11 67<134.794 250.569 359.505 475.206> 313 82<166.027 236.87 373.867 443.563>
VStem: 34 91<79.2125 260.754> 272 66<-104 19 77.9089 294.976 329 370> 485 91<79.2125 260.754>
CounterMasks: 1 1c
LayerCount: 2
Back
Fore
SplineSet
338 370 m 1,0,-1
 338 329 l 1,1,2
 348 340 348 340 354 350 c 0,3,4
 386 394 386 394 421 395 c 3,5,6
 481 395 481 395 528.5 334.5 c 128,-1,7
 576 274 576 274 576 225 c 0,8,9
 576 120 576 120 543.5 54.5 c 128,-1,10
 511 -11 511 -11 439 -11 c 0,11,12
 398 -11 398 -11 378.5 -4 c 128,-1,13
 359 3 359 3 338 19 c 1,14,-1
 338 -104 l 1,15,16
 413 -104 413 -104 432.5 -119.5 c 128,-1,17
 452 -135 452 -135 452 -174 c 1,18,19
 335 -172 335 -172 305 -172 c 2,20,-1
 168 -174 l 1,21,22
 168 -138 168 -138 188.5 -121 c 128,-1,23
 209 -104 209 -104 272 -104 c 1,24,-1
 272 19 l 1,25,26
 258 8 258 8 248 2 c 0,27,28
 225 -11 225 -11 171 -11 c 0,29,30
 99 -11 99 -11 66.5 54.5 c 128,-1,31
 34 120 34 120 34 225 c 0,32,33
 34 274 34 274 82 334.5 c 128,-1,34
 130 395 130 395 190 395 c 3,35,36
 226 394 226 394 256 350 c 0,37,38
 266 334 266 334 272 329 c 1,39,-1
 272 370 l 1,40,-1
 338 370 l 1,0,-1
208 313 m 0,41,42
 173 313 173 313 149 264.5 c 128,-1,43
 125 216 125 216 125 159.5 c 128,-1,44
 125 103 125 103 133.5 79.5 c 128,-1,45
 142 56 142 56 170 56 c 0,46,47
 259 56 259 56 272 115 c 1,48,-1
 272 260 l 1,49,50
 259 286 259 286 245.5 299.5 c 128,-1,51
 232 313 232 313 208 313 c 0,41,42
402 313 m 0,52,53
 378 313 378 313 364.5 299.5 c 128,-1,54
 351 286 351 286 338 260 c 1,55,-1
 338 115 l 1,56,57
 351 56 351 56 440 56 c 0,58,59
 468 56 468 56 476.5 79.5 c 128,-1,60
 485 103 485 103 485 159.5 c 128,-1,61
 485 216 485 216 461 264.5 c 128,-1,62
 437 313 437 313 402 313 c 0,52,53
EndSplineSet
Validated: 1
EndChar

StartChar: uni0446
Encoding: 1094 1094 237
Width: 468
VWidth: -4
Flags: W
HStem: -15 78<175.314 273.973>
VStem: 44 93<104.703 378.978> 319 102<247.908 372.667> 330 82<118.806 309.192> 375 65<-82.6644 23.8899>
LayerCount: 2
Back
Fore
SplineSet
44 185 m 2,0,-1
 45 335 l 1,1,2
 41 350 41 350 41 367 c 0,3,4
 41 393 41 393 141 393 c 1,5,6
 137 264 137 264 137 221 c 0,7,8
 137 134 137 134 162.5 98.5 c 128,-1,9
 188 63 188 63 247 63 c 0,10,11
 283 63 283 63 306.5 115.5 c 128,-1,12
 330 168 330 168 330 245.5 c 128,-1,13
 330 323 330 323 324.5 345.5 c 128,-1,14
 319 368 319 368 319 374 c 0,15,16
 319 395 319 395 405 395 c 0,17,18
 421 395 421 395 421 311 c 0,19,20
 421 253 421 253 418.5 214.5 c 128,-1,21
 416 176 416 176 416 165 c 128,-1,22
 416 154 416 154 414 146 c 2,23,-1
 412 130 l 1,24,25
 412 93 412 93 426 70.5 c 128,-1,26
 440 48 440 48 440 39 c 0,27,28
 440 -32 440 -32 433.5 -58.5 c 128,-1,29
 427 -85 427 -85 407 -85 c 0,30,31
 392 -85 392 -85 383.5 -65.5 c 128,-1,32
 375 -46 375 -46 375 -24 c 0,33,34
 375 9 375 9 362 18 c 0,35,36
 356 23 356 23 321 41 c 1,37,38
 286 11 286 11 255 -2 c 128,-1,39
 224 -15 224 -15 179.5 -15 c 128,-1,40
 135 -15 135 -15 109 3 c 0,41,42
 84 21 84 21 70 51 c 0,43,44
 44 108 44 108 44 185 c 2,0,-1
EndSplineSet
Validated: 8388609
EndChar

StartChar: uni0447
Encoding: 1095 1095 238
Width: 438
VWidth: -4
Flags: W
HStem: 105 78<159.457 296.176>
VStem: 30 104<236.63 368.487> 41 93<207.513 356.502> 317 78<-20.1353 141 207.237 299.482> 320 90<208.219 345.004>
LayerCount: 2
Back
Fore
SplineSet
395 0 m 1,0,1
 384 -17 384 -17 357 -28 c 1,2,-1
 317 -39 l 1,3,4
 316 101 316 101 313 141 c 1,5,6
 291 119 291 119 259 112 c 128,-1,7
 227 105 227 105 172.5 105 c 128,-1,8
 118 105 118 105 79.5 147.5 c 128,-1,9
 41 190 41 190 41 233 c 128,-1,10
 41 276 41 276 43.5 301.5 c 128,-1,11
 46 327 46 327 46 333 c 1,12,13
 30 341 30 341 30 357 c 128,-1,14
 30 373 30 373 79 379.5 c 128,-1,15
 128 386 128 386 164 386 c 1,16,17
 143 339 143 339 138.5 322.5 c 128,-1,18
 134 306 134 306 134 266 c 128,-1,19
 134 226 134 226 159 204.5 c 128,-1,20
 184 183 184 183 243 183 c 0,21,22
 277 183 277 183 298.5 206.5 c 128,-1,23
 320 230 320 230 320 264 c 128,-1,24
 320 298 320 298 315.5 317 c 128,-1,25
 311 336 311 336 305 340 c 0,26,27
 290 349 290 349 290 362 c 0,28,29
 290 384 290 384 394 384 c 0,30,31
 410 384 410 384 410 322 c 0,32,33
 410 223 410 223 398 52 c 2,34,-1
 395 0 l 1,0,1
EndSplineSet
Validated: 8388609
EndChar

StartChar: uni0449
Encoding: 1097 1097 239
Width: 750
VWidth: -4
Flags: W
HStem: -15 78<160 296.541 421.75 555.391>
VStem: 52 93<101.139 376.978> 327 92<103.139 378.978> 612 90<125.407 368.407> 657 65<-82.6644 23.8899>
LayerCount: 2
Back
Fore
SplineSet
326 185 m 2,0,-1
 327 335 l 1,1,2
 322 350 322 350 322 367 c 0,3,4
 322 393 322 393 423 393 c 1,5,6
 419 264 419 264 419 221 c 0,7,8
 419 134 419 134 444 98.5 c 128,-1,9
 469 63 469 63 528 63 c 0,10,11
 564 63 564 63 588 115.5 c 128,-1,12
 612 168 612 168 612 245.5 c 128,-1,13
 612 323 612 323 606.5 345.5 c 128,-1,14
 601 368 601 368 601 374 c 0,15,16
 601 395 601 395 687 395 c 0,17,18
 702 395 702 395 702 294.5 c 128,-1,19
 702 194 702 194 694 130 c 1,20,21
 694 93 694 93 708 70.5 c 128,-1,22
 722 48 722 48 722 39 c 0,23,24
 722 -32 722 -32 715.5 -58.5 c 128,-1,25
 709 -85 709 -85 689 -85 c 0,26,27
 674 -85 674 -85 665.5 -65.5 c 128,-1,28
 657 -46 657 -46 657 -24.5 c 128,-1,29
 657 -3 657 -3 652.5 6 c 128,-1,30
 648 15 648 15 644 18 c 0,31,32
 638 23 638 23 603 41 c 1,33,34
 568 11 568 11 536.5 -2 c 128,-1,35
 505 -15 505 -15 449.5 -15 c 128,-1,36
 394 -15 394 -15 361 34 c 1,37,38
 316 -17 316 -17 178 -17 c 0,39,40
 142 -17 142 -17 116 1 c 0,41,42
 90 20 90 20 77 50 c 0,43,44
 52 109 52 109 52 183 c 2,45,-1
 52 333 l 1,46,47
 48 348 48 348 48 365 c 0,48,49
 48 391 48 391 148 391 c 1,50,51
 145 262 145 262 145 219 c 0,52,53
 145 132 145 132 170 96.5 c 128,-1,54
 195 61 195 61 254 61 c 0,55,56
 278 61 278 61 298 85 c 0,57,58
 326 120 326 120 326 185 c 2,0,-1
EndSplineSet
Validated: 8388609
EndChar

StartChar: uni0448
Encoding: 1096 1096 240
Width: 750
VWidth: -4
Flags: W
HStem: -17 78<162.282 295.932 426.312 551.042>
VStem: 52 93<101.139 376.978> 327 92<103.139 378.978> 612 90<125.407 368.407>
LayerCount: 2
Back
Fore
SplineSet
687 395 m 0,0,1
 702 395 702 395 702 294.5 c 128,-1,2
 702 194 702 194 694 130 c 1,3,4
 694 112 694 112 707 74.5 c 128,-1,5
 720 37 720 37 720 16 c 128,-1,6
 720 -5 720 -5 714 -12.5 c 128,-1,7
 708 -20 708 -20 690 -20 c 0,8,9
 657 -20 657 -20 602 41 c 1,10,11
 567 11 567 11 536 -2 c 128,-1,12
 505 -15 505 -15 449.5 -15 c 128,-1,13
 394 -15 394 -15 361 34 c 1,14,15
 316 -17 316 -17 178 -17 c 0,16,17
 142 -17 142 -17 116 1 c 0,18,19
 90 20 90 20 77 50 c 0,20,21
 52 109 52 109 52 183 c 2,22,-1
 52 333 l 1,23,24
 48 348 48 348 48 365 c 0,25,26
 48 391 48 391 148 391 c 1,27,28
 145 262 145 262 145 219 c 0,29,30
 145 132 145 132 170 96.5 c 128,-1,31
 195 61 195 61 254 61 c 0,32,33
 278 61 278 61 298 85 c 0,34,35
 326 120 326 120 326 185 c 2,36,-1
 327 335 l 1,37,38
 322 350 322 350 322 367 c 0,39,40
 322 393 322 393 423 393 c 1,41,42
 419 264 419 264 419 221 c 0,43,44
 419 134 419 134 444 98.5 c 128,-1,45
 469 63 469 63 528 63 c 0,46,47
 564 63 564 63 588 115.5 c 128,-1,48
 612 168 612 168 612 245.5 c 128,-1,49
 612 323 612 323 606.5 345.5 c 128,-1,50
 601 368 601 368 601 374 c 0,51,52
 601 395 601 395 687 395 c 0,0,1
EndSplineSet
Validated: 1
EndChar

StartChar: uni044A
Encoding: 1098 1098 241
Width: 463
VWidth: -15
Flags: W
HStem: -36 62<200.632 339.932> 170 68<210.357 322.067>
VStem: 106 88<40.6876 163.353 206 300> 350 85<37.3792 142.412>
LayerCount: 2
Back
Fore
SplineSet
75.5 285.5 m 128,-1,1
 55 279 55 279 43 279 c 128,-1,2
 31 279 31 279 31 298 c 0,3,4
 32 336 32 336 72 369 c 0,5,6
 116 405 116 405 194 405 c 1,7,-1
 194 206 l 1,8,9
 241 238 241 238 304.5 238 c 128,-1,10
 368 238 368 238 401.5 193.5 c 128,-1,11
 435 149 435 149 435 79 c 0,12,13
 435 45 435 45 386.5 4.5 c 128,-1,14
 338 -36 338 -36 280 -36 c 0,15,16
 198 -36 198 -36 151.5 -2.5 c 128,-1,17
 105 31 105 31 105 97 c 2,18,-1
 106 300 l 1,19,0
 96 292 96 292 75.5 285.5 c 128,-1,1
194 53 m 1,20,21
 226 26 226 26 296 26 c 0,22,23
 326 26 326 26 338 41.5 c 128,-1,24
 350 57 350 57 350 89.5 c 128,-1,25
 350 122 350 122 324 146 c 128,-1,26
 298 170 298 170 265 170 c 0,27,28
 205 170 205 170 194 145 c 1,29,-1
 194 53 l 1,20,21
EndSplineSet
Validated: 1
EndChar

StartChar: uni044B
Encoding: 1099 1099 242
Width: 543
VWidth: -15
Flags: W
HStem: -36 62<133.483 273.431> 170 68<143.207 256.317>
VStem: 39 88<40 163.353 206 389.105> 284 85<38.2324 142.413> 421 93<-4.91174 385.208>
LayerCount: 2
Back
Fore
SplineSet
514 413 m 1
 515 28 l 2
 514 20 514 20 502 6 c 0
 490 -8 490 -8 476 -16 c 0
 449 -32 449 -32 422 -32 c 1
 421 353 l 2
 422 362 422 362 434 376 c 0
 446 390 446 390 460 397 c 0
 487 413 487 413 514 413 c 1
EndSplineSet
Refer: 243 1100 N 1 0 0 1 0 0 2
Validated: 1
EndChar

StartChar: uni044C
Encoding: 1100 1100 243
Width: 397
VWidth: -15
Flags: W
HStem: -36 62<133.483 273.431> 170 68<143.207 256.317>
VStem: 39 88<40 163.353 206 389.105> 284 85<38.2324 142.413>
LayerCount: 2
Back
Fore
SplineSet
127 405 m 1,0,-1
 127 206 l 1,1,2
 173 238 173 238 237 238 c 128,-1,3
 301 238 301 238 335 193.5 c 128,-1,4
 369 149 369 149 369 79 c 0,5,6
 369 45 369 45 321 4.5 c 128,-1,7
 273 -36 273 -36 214 -36 c 0,8,9
 133 -36 133 -36 86 -2 c 128,-1,10
 39 32 39 32 39 98 c 2,11,-1
 39 345 l 2,12,13
 39 381 39 381 59 390 c 0,14,15
 89 404 89 404 127 405 c 1,0,-1
127 53 m 1,16,17
 159 26 159 26 229 26 c 0,18,19
 260 26 260 26 272 42 c 128,-1,20
 284 58 284 58 284 90 c 128,-1,21
 284 122 284 122 258 146 c 128,-1,22
 232 170 232 170 198 170 c 0,23,24
 138 170 138 170 127 145 c 1,25,-1
 127 53 l 1,16,17
EndSplineSet
Validated: 1
EndChar

StartChar: uni044D
Encoding: 1101 1101 244
Width: 377
VWidth: -12
Flags: W
HStem: -26 66<102.131 219.61> 132 85<166.333 241> 144 83<114.48 190.667> 324 71<139.023 226.663>
VStem: 249 100<217 295.552>
LayerCount: 2
Back
Fore
SplineSet
241 132 m 1,0,-1
 116 144 l 1,1,2
 106 187 106 187 103 227 c 1,3,-1
 249 217 l 1,4,5
 245 324 245 324 181 324 c 0,6,7
 139 324 139 324 82 239 c 1,8,9
 61 247 61 247 61 284 c 0,10,11
 61 299 61 299 89 331 c 0,12,13
 147 395 147 395 215 395 c 0,14,15
 269 395 269 395 309 330 c 128,-1,16
 349 265 349 265 349 182 c 128,-1,17
 349 99 349 99 310 36.5 c 128,-1,18
 271 -26 271 -26 193 -26 c 0,19,20
 141 -26 141 -26 89.5 2.5 c 128,-1,21
 38 31 38 31 38 74 c 0,22,23
 38 86 38 86 41 94 c 1,24,25
 70 72 70 72 104 56 c 128,-1,26
 138 40 138 40 161 40 c 128,-1,27
 184 40 184 40 203 49 c 0,28,29
 239 66 239 66 241 132 c 1,0,-1
EndSplineSet
Validated: 8388609
EndChar

StartChar: uni044E
Encoding: 1102 1102 245
Width: 605
VWidth: -15
Flags: W
HStem: -9 69<379.086 475.904> 134 61<132 186> 326 69<291.429 402.324>
VStem: 45 87<9.5625 134 195 369.901> 186 95<195.658 302.992> 483 94<94.8322 251>
LayerCount: 2
Back
Fore
SplineSet
132 37 m 2,0,1
 132 30 132 30 120 18 c 0,2,3
 106 6 106 6 94 -2 c 0,4,5
 73 -14 73 -14 45 -16 c 1,6,-1
 44 340 l 2,7,8
 44 347 44 347 56 360 c 0,9,10
 70 373 70 373 82 380 c 0,11,12
 103 392 103 392 131 394 c 1,13,-1
 132 195 l 1,14,-1
 186 195 l 1,15,16
 186 295 186 295 240 345 c 128,-1,17
 294 395 294 395 389 395 c 0,18,19
 459 395 459 395 518 335.5 c 128,-1,20
 577 276 577 276 577 226 c 0,21,22
 577 123 577 123 535.5 57 c 128,-1,23
 494 -9 494 -9 417 -9 c 128,-1,24
 340 -9 340 -9 281 32 c 128,-1,25
 222 73 222 73 198 134 c 1,26,-1
 132 134 l 1,27,-1
 132 37 l 2,0,1
483 124 m 0,28,29
 483 193 483 193 439.5 259.5 c 128,-1,30
 396 326 396 326 351.5 326 c 128,-1,31
 307 326 307 326 294 314 c 128,-1,32
 281 302 281 302 281 264 c 0,33,34
 281 192 281 192 335.5 126 c 128,-1,35
 390 60 390 60 428 60 c 128,-1,36
 466 60 466 60 474.5 71 c 128,-1,37
 483 82 483 82 483 124 c 0,28,29
EndSplineSet
Validated: 1
EndChar

StartChar: uni044F
Encoding: 1103 1103 246
Width: 411
VWidth: -15
Flags: W
HStem: -10 22G<65 122 360 383> 180 41<207.748 284> 341 48<170.274 269.296>
VStem: 63 99<235.193 325.988> 284 99<8.77417 176 224 326.559>
LayerCount: 2
Back
Fore
SplineSet
266 327 m 128,-1,1
 248 341 248 341 224 341 c 3,2,3
 182 341 182 341 170 320 c 0,4,5
 162 304 162 304 162 277.5 c 131,-1,6
 162 251 162 251 180 236 c 0,7,8
 199 221 199 221 232.5 221 c 128,-1,9
 266 221 266 221 284 224 c 1,10,-1
 284 286 l 2,11,0
 284 313 284 313 266 327 c 128,-1,1
147 196 m 1,12,13
 63 224 63 224 63 286 c 0,14,15
 63 329 63 329 104.5 359 c 128,-1,16
 146 389 146 389 213.5 389 c 128,-1,17
 281 389 281 389 332 364 c 128,-1,18
 383 339 383 339 383 289 c 2,19,-1
 383 -9 l 1,20,21
 337 -9 337 -9 322 -1 c 0,22,23
 288 17 288 17 284 38 c 1,24,-1
 284 176 l 1,25,26
 257 180 257 180 220 180 c 0,27,28
 213 180 213 180 198 132 c 0,29,30
 153 -10 153 -10 91 -10 c 0,31,32
 39 -10 39 -10 39 23 c 0,33,34
 40 38 40 38 74 64 c 0,35,36
 88 75 88 75 108.5 110 c 128,-1,37
 129 145 129 145 147 196 c 1,12,13
EndSplineSet
Validated: 1
EndChar

StartChar: rcaron
Encoding: 345 345 247
Width: 391
VWidth: 0
HStem: -17 21G<74 88.5> 300 87<238.428 299.252> 355 20G<161.5 179.333> 549 32<335.031 365.631>
VStem: 8 72<549.6 575.045> 74 99<13.1725 272.216>
DStem2: 117 518 71 484 0.818482 -0.574532<-60.6551 81.7563> 182 477 254 457 0.77121 0.636581<-8.55997 174.785>
LayerCount: 2
Back
Fore
SplineSet
184 413 m 1
 132 438 132 438 71 484 c 0
 8 530 8 530 8 561 c 0
 8 579 8 579 28 579 c 0
 32 579 32 579 80 572 c 1
 88 547 l 2
 89 540 89 540 117 518 c 0
 146 496 146 496 182 477 c 1
 194 485 194 485 222 515 c 0
 286 581 286 581 324 581 c 0
 382 581 382 581 382 549 c 1
 338 549 338 549 302 501 c 0
 286 481 286 481 254 457 c 0
 222 431 222 431 184 413 c 1
EndSplineSet
Refer: 18 114 N 1 0 0 1 0 0 3
Validated: 8388609
EndChar

StartChar: Rcaron
Encoding: 344 344 248
Width: 704
VWidth: 0
Flags: W
HStem: -18 56<32.373 152.516> -13 72<624.035 677.898> -6 49<265.743 395.842> 3 53<264 378.106> 274 34<310.539 317.938> 557 44<27.0042 119.133> 571 6<210 349> 808 32<517.715 548.349>
VStem: 142 122<341.875 534.863> 159 106<56 274 339.654 523.883> 485 105<341.846 525.046>
DStem2: 300 776 254 742 0.822449 -0.568839<-40.7409 80.6989> 490 263 482 78 0.560478 -0.828169<2.5761 269.105>
LayerCount: 2
Back
Fore
SplineSet
367 672 m 1
 316 696 316 696 254 742 c 0
 192 788 192 788 191 820 c 0
 191 838 191 838 210 838 c 0
 213 838 213 838 262 831 c 1
 271 806 l 2
 272 798 272 798 300 776 c 0
 328 754 328 754 364 736 c 1
 376 744 376 744 405 774 c 0
 469 840 469 840 506 840 c 0
 565 840 565 840 565 808 c 1
 521 808 521 808 484 760 c 0
 469 740 469 740 437 716 c 0
 405 690 405 690 367 672 c 1
EndSplineSet
Refer: 52 82 N 1 0 0 1 0 0 3
Validated: 8388609
EndChar

StartChar: Ccaron
Encoding: 268 268 249
Width: 662
VWidth: 0
HStem: -18 54<349.25 482.312> 593 65<240.734 357.444> 813 32<487.031 517.631>
VStem: 43 101<233.909 453.71> 160 72<813.6 839.045> 588 38<-69 25>
DStem2: 269 782 223 748 0.818482 -0.574532<-60.6551 81.7563> 334 741 406 721 0.77121 0.636581<-8.55997 174.785>
LayerCount: 2
Back
Fore
SplineSet
336 677 m 5
 284 702 284 702 223 748 c 4
 160 794 160 794 160 825 c 4
 160 843 160 843 180 843 c 4
 184 843 184 843 232 836 c 5
 240 811 l 6
 241 804 241 804 269 782 c 4
 298 760 298 760 334 741 c 5
 346 749 346 749 374 779 c 4
 438 845 438 845 476 845 c 4
 534 845 534 845 534 813 c 5
 490 813 490 813 454 765 c 4
 438 745 438 745 406 721 c 4
 374 695 374 695 336 677 c 5
EndSplineSet
Refer: 36 67 N 1 0 0 1 0 0 3
Validated: 1
EndChar

StartChar: ccaron
Encoding: 269 269 250
Width: 410
VWidth: 0
Flags: W
HStem: -19 67<194.676 309.425> 310 73<160.558 274.363> 548 32<362.715 393.349>
VStem: 30 102<109.219 278.232>
DStem2: 144 516 98 482 0.823412 -0.567443<-39.9294 81.3711>
LayerCount: 2
Back
Fore
SplineSet
212 412 m 1
 160 436 160 436 98 482 c 0
 36 528 36 528 36 560 c 0
 36 578 36 578 55 578 c 0
 58 578 58 578 107 571 c 1
 116 546 l 2
 116 538 116 538 144 516 c 0
 172 494 172 494 209 476 c 1
 221 484 221 484 250 514 c 0
 314 580 314 580 351 580 c 0
 410 580 410 580 410 548 c 1
 366 548 366 548 329 500 c 0
 314 480 314 480 282 456 c 0
 250 430 250 430 212 412 c 1
EndSplineSet
Refer: 2 99 N 1 0 0 1 0 0 3
Validated: 1
EndChar

StartChar: Ecaron
Encoding: 282 282 251
Width: 641
VWidth: 0
Flags: W
HStem: -26 108<289.973 463.963> 261 104<171 278.946> 285 105<419.207 523 558 572> 566 90<211.872 358.34> 812 32<436.375 482.961>
VStem: 44 117<365 460.071> 111 71<793.471 835> 572 66<167.755 285> 590 37<-69 57.4231>
DStem2: 220 780 174 746 0.822449 -0.568839<-58.5791 80.8796> 284 740 358 720 0.779751 0.62609<-9.12866 175.749>
LayerCount: 2
Back
Fore
SplineSet
287 676 m 5
 236 700 236 700 174 746 c 0
 112 792 112 792 111 824 c 0
 111 842 111 842 130 842 c 0
 133 842 133 842 182 835 c 1
 182 829 l 1
 191 811 191 811 191 810 c 0
 192 802 192 802 220 780 c 0
 248 758 248 758 284 740 c 1
 296 748 296 748 326 778 c 0
 392 844 392 844 427 844 c 0
 485 844 485 844 485 820 c 2
 485 812 l 1
 478 812 l 2
 441 812 441 812 404 764 c 0
 390 744 390 744 358 720 c 0
 326 694 326 694 287 676 c 5
EndSplineSet
Refer: 3 69 N 1 0 0 1 0 0 3
Validated: 8388609
EndChar

StartChar: ecaron
Encoding: 283 283 252
Width: 425
VWidth: 0
Flags: W
HStem: -9 71<180.699 315.58> 336 53<165.962 226.924> 549 32<355.715 386.349>
VStem: 30 106<221 287.901>
DStem2: 138 518 92 484 0.82105 -0.570856<-61.6877 81.4011> 136 221 141 161 0.895274 0.445516<0 69.3265 226.816 274.571>
LayerCount: 2
Back
Fore
SplineSet
205 413 m 1
 154 438 154 438 92 484 c 0
 30 530 30 530 29 561 c 0
 29 579 29 579 48 579 c 0
 51 579 51 579 100 572 c 1
 109 547 l 2
 110 540 110 540 138 518 c 0
 166 496 166 496 202 477 c 1
 214 485 214 485 243 515 c 0
 307 581 307 581 344 581 c 0
 403 581 403 581 403 549 c 1
 359 549 359 549 322 501 c 0
 307 481 307 481 275 457 c 0
 243 431 243 431 205 413 c 1
EndSplineSet
Refer: 5 101 N 1 0 0 1 0 0 3
Validated: 1
EndChar

StartChar: Dcaron
Encoding: 270 270 253
Width: 633
VWidth: 0
Flags: W
HStem: -21 55<263.645 457.435> 570 44<25.0625 111.727> 583 72<274.934 398.92> 811 32<450.398 481.066>
VStem: 130 105<60.1628 550.619> 513 83<134.87 411.747>
DStem2: 232 780 186 746 0.822019 -0.56946<-61.6367 81.6319>
LayerCount: 2
Back
Fore
SplineSet
300 675 m 1
 248 700 248 700 186 746 c 0
 124 792 124 792 124 823 c 0
 124 841 124 841 142 841 c 0
 144 841 144 841 194 834 c 1
 204 809 l 2
 205 802 205 802 232 780 c 0
 260 758 260 758 296 739 c 1
 308 747 308 747 338 777 c 0
 402 843 402 843 438 843 c 0
 498 843 498 843 498 811 c 1
 454 811 454 811 416 763 c 0
 402 743 402 743 370 719 c 0
 338 693 338 693 300 675 c 1
EndSplineSet
Refer: 37 68 N 1 0 0 1 0 0 3
Validated: 8388609
EndChar

StartChar: dcaron
Encoding: 271 271 254
Width: 499
VWidth: 0
Flags: W
HStem: -28 76<181.756 263.966> 310 59<164.638 273.45> 602 20G<357 388.5>
VStem: 30 101<104.119 272.309> 302 97<83.1932 287.234 347 550.434> 450 111<407.871 576.447>
LayerCount: 2
Back
Fore
SplineSet
503 617 m 0
 561 617 561 617 561 568 c 0
 561 518 561 518 547 445 c 0
 520 303 520 303 450 303 c 1
 450 617 450 617 503 617 c 0
EndSplineSet
Refer: 10 100 N 1 0 0 1 0 0 2
Validated: 1
EndChar

StartChar: Ncaron
Encoding: 327 327 255
Width: 721
VWidth: 0
Flags: W
HStem: -15 49<220.512 356.938> -11 57<72.438 146.958 216 342.976> 576 39<50.0349 118.787> 584 54<58.1458 172.679 528.86 591 658 683.75> 797 32<536.715 567.349>
VStem: 147 69<49.9648 438> 591 67<3.47559 43 190 587.451>
DStem2: 374 412 216 438 0.683634 -0.729825<-126.99 310.37> 318 765 272 731 0.823412 -0.567443<-39.9294 81.3711>
LayerCount: 2
Back
Fore
SplineSet
386 661 m 5
 334 685 334 685 272 731 c 4
 210 777 210 777 210 809 c 4
 210 827 210 827 229 827 c 4
 232 827 232 827 281 820 c 5
 290 795 l 6
 290 787 290 787 318 765 c 4
 346 743 346 743 383 725 c 5
 395 733 395 733 424 763 c 4
 488 829 488 829 525 829 c 4
 584 829 584 829 584 797 c 5
 540 797 540 797 503 749 c 4
 488 729 488 729 456 705 c 4
 424 679 424 679 386 661 c 5
EndSplineSet
Refer: 50 78 N 1 0 0 1 0 0 3
Validated: 8388609
EndChar

StartChar: ncaron
Encoding: 328 328 256
Width: 535
VWidth: 0
Flags: W
HStem: -14 21G<110 135 362 362.5> 321 78<247.232 362.5> 331 69<59.3159 84.3354> 556 32<416.398 447.066>
VStem: 110 100<30.9569 304.281> 373 89<74.3832 282.524>
DStem2: 198 524 152 490 0.823412 -0.567443<-39.9041 80.9173>
LayerCount: 2
Back
Fore
SplineSet
266 420 m 1
 214 444 214 444 152 490 c 0
 90 536 90 536 90 568 c 0
 90 586 90 586 108 586 c 0
 110 586 110 586 160 579 c 1
 170 554 l 2
 171 546 171 546 198 524 c 0
 226 502 226 502 262 484 c 1
 274 492 274 492 304 522 c 0
 368 588 368 588 404 588 c 0
 464 588 464 588 464 556 c 1
 420 556 420 556 382 508 c 0
 368 488 368 488 336 464 c 0
 304 438 304 438 266 420 c 1
EndSplineSet
Refer: 1 110 N 1 0 0 1 0 0 3
Validated: 8388609
EndChar

StartChar: Scaron
Encoding: 352 352 257
Width: 636
VWidth: 0
Flags: W
HStem: -28 83<288.513 431.585> 246 126<197.109 317.754> 587 69<226.983 322.247> 605 20G<544 555.5> 812 32<457.715 488.349>
VStem: 34 51<-93.3164 -68> 81 101<348 501.671> 507 103<148.729 294.734>
DStem2: 34 -70 85 -68 0.312751 0.949835<-13.9492 104.181> 240 780 194 746 0.822449 -0.568839<-40.7409 80.6989> 499 550 527 512 0.5547 0.83205<0 83.3962>
LayerCount: 2
Back
Fore
SplineSet
307 676 m 1
 256 700 256 700 194 746 c 0
 132 792 132 792 131 824 c 0
 131 842 131 842 150 842 c 0
 153 842 153 842 202 835 c 1
 211 810 l 2
 212 802 212 802 240 780 c 0
 268 758 268 758 304 740 c 1
 316 748 316 748 345 778 c 0
 409 844 409 844 446 844 c 0
 505 844 505 844 505 812 c 1
 461 812 461 812 424 764 c 0
 409 744 409 744 377 720 c 0
 345 694 345 694 307 676 c 1
EndSplineSet
Refer: 53 83 N 1 0 0 1 0 0 3
Validated: 8388609
EndChar

StartChar: scaron
Encoding: 353 353 258
Width: 366
VWidth: 0
Flags: W
HStem: -12 63<145.309 237.984> 173 85<145.855 234.906> 340 45<143.681 285> 549 32<322.715 353.349>
VStem: 39 97<244 330.036> 253 87<80.9199 182>
DStem2: 104 518 58 484 0.822019 -0.56946<-39.3986 82.0736>
LayerCount: 2
Back
Fore
SplineSet
172 413 m 1
 120 438 120 438 58 484 c 0
 -4 530 -4 530 -4 561 c 0
 -4 579 -4 579 15 579 c 0
 18 579 18 579 67 572 c 1
 76 547 l 2
 76 540 76 540 104 518 c 0
 132 496 132 496 169 477 c 1
 181 485 181 485 210 515 c 0
 274 581 274 581 311 581 c 0
 370 581 370 581 370 549 c 1
 326 549 326 549 289 501 c 0
 274 481 274 481 242 457 c 0
 210 431 210 431 172 413 c 1
EndSplineSet
Refer: 19 115 N 1 0 0 1 0 0 3
Validated: 1
EndChar

StartChar: Tcaron
Encoding: 356 356 259
Width: 683
VWidth: 0
Flags: W
HStem: -13 57<487.059 545.186> 7 37<191.976 284.602> 530 82<111.669 292.736 407.129 504.85> 533 69<407.129 618.734> 542 80<75.822 286.784> 801 32<496.715 527.349>
VStem: 18 52<493.346 540.883> 293 110<56 523.813> 624 59<613.218 664.951>
DStem2: 278 770 232 736 0.822019 -0.56946<-39.3986 82.0736>
LayerCount: 2
Back
Fore
SplineSet
346 665 m 1
 294 690 294 690 232 736 c 0
 170 782 170 782 170 813 c 0
 170 831 170 831 189 831 c 0
 192 831 192 831 241 824 c 1
 250 799 l 2
 250 792 250 792 278 770 c 0
 306 748 306 748 343 729 c 1
 355 737 355 737 384 767 c 0
 448 833 448 833 485 833 c 0
 544 833 544 833 544 801 c 1
 500 801 500 801 463 753 c 0
 448 733 448 733 416 709 c 0
 384 683 384 683 346 665 c 1
EndSplineSet
Refer: 55 84 N 1 0 0 1 0 0 3
Validated: 8388609
EndChar

StartChar: tcaron
Encoding: 357 357 260
Width: 369
VWidth: 0
Flags: W
HStem: -22 80<181.037 281.25> 304 70<170 322.045>
VStem: 72 98<70.3047 304> 213 111<534.871 703.447>
LayerCount: 2
Back
Fore
SplineSet
266 744 m 0
 324 744 324 744 324 695 c 0
 324 645 324 645 310 572 c 0
 283 430 283 430 213 430 c 1
 213 744 213 744 266 744 c 0
EndSplineSet
Refer: 20 116 N 1 0 0 1 0 0 2
Validated: 1
EndChar

StartChar: Zcaron
Encoding: 381 381 263
Width: 630
VWidth: 0
Flags: W
HStem: -14 21G<34 244> 0 114<219 551.219> 553 105<75.8516 351.927> 561 83<85.116 351.927 354.073 462> 569 82<100.812 459.666> 816 32<454.715 485.349>
VStem: 548 50<-144.155 -8.87036> 548 66<-120.277 -7>
DStem2: 236 784 190 750 0.823412 -0.567443<-39.9294 81.3711>
LayerCount: 2
Back
Fore
SplineSet
304 680 m 1
 252 704 252 704 190 750 c 0
 128 796 128 796 128 828 c 0
 128 846 128 846 147 846 c 0
 150 846 150 846 199 839 c 1
 208 814 l 2
 208 806 208 806 236 784 c 0
 264 762 264 762 301 744 c 1
 313 752 313 752 342 782 c 0
 406 848 406 848 443 848 c 0
 502 848 502 848 502 816 c 1
 458 816 458 816 421 768 c 0
 406 748 406 748 374 724 c 0
 342 698 342 698 304 680 c 1
EndSplineSet
Refer: 60 90 N 1 0 0 1 0 0 3
Validated: 8388609
EndChar

StartChar: zcaron
Encoding: 382 382 264
Width: 481
VWidth: 0
HStem: 4 77<204 413.122> 318 79<81.6147 227.951> 553 32<386.715 417.349>
VStem: 417 48<-44.8364 -15>
DStem2: 30 -27 204 81 0.667545 0.744569<196.566 409.924 499.294 553.937> 168 522 122 488 0.822019 -0.56946<-39.3986 82.0736>
LayerCount: 2
Back
Fore
SplineSet
236 417 m 1
 184 442 184 442 122 488 c 0
 60 534 60 534 60 565 c 0
 60 583 60 583 79 583 c 0
 82 583 82 583 131 576 c 1
 140 551 l 2
 140 544 140 544 168 522 c 0
 196 500 196 500 233 481 c 1
 245 489 245 489 274 519 c 0
 338 585 338 585 375 585 c 0
 434 585 434 585 434 553 c 1
 390 553 390 553 353 505 c 0
 338 485 338 485 306 461 c 0
 274 435 274 435 236 417 c 1
EndSplineSet
Refer: 31 122 N 1 0 0 1 0 0 3
Validated: 1
EndChar

